<?xml version="1.0" encoding="utf-8"?>
<!-- Generator: Adobe Illustrator 19.0.0, SVG Export Plug-In . SVG Version: 6.00 Build 0)  -->
<svg version="1.1" id="Layer_2" xmlns="http://www.w3.org/2000/svg" xmlns:xlink="http://www.w3.org/1999/xlink" x="0px" y="0px"
	 viewBox="0 0 210 138" style="enable-background:new 0 0 210 138;" xml:space="preserve">
<style type="text/css">
	.st0{fill:#FFFFFF;}
	.st1{fill:#E31E24;}
	.st2{fill:none;stroke:#E31E24;stroke-width:4;stroke-miterlimit:10;}
	.st3{fill:none;stroke:#FFFFFF;stroke-width:4;stroke-miterlimit:10;}
</style>
<g id="XMLID_1_">
	<path id="XMLID_54_" class="st0" d="M72,136c-2.2,0-4-1.8-4-4V6c0-2.2,1.8-4,4-4h69c2.2,0,4,1.8,4,4v126c0,2.2-1.8,4-4,4H72z"/>
	<path id="XMLID_51_" class="st1" d="M141,4c1.1,0,2,0.9,2,2v126c0,1.1-0.9,2-2,2H72c-1.1,0-2-0.9-2-2V6c0-1.1,0.9-2,2-2H141 M141,0
		H72c-3.3,0-6,2.7-6,6v126c0,3.3,2.7,6,6,6h69c3.3,0,6-2.7,6-6V6C147,2.7,144.3,0,141,0L141,0z"/>
</g>
<circle id="XMLID_2_" class="st1" cx="106.5" cy="121.5" r="4.5"/>
<g id="XMLID_3_">
	<rect id="XMLID_49_" x="86" y="20" class="st0" width="68" height="23"/>
	<path id="XMLID_46_" class="st1" d="M152,22v19H88V22H152 M156,18H84v27h72V18L156,18z"/>
</g>
<line id="XMLID_4_" class="st2" x1="95" y1="31" x2="110" y2="31"/>
<line id="XMLID_6_" class="st2" x1="117" y1="31" x2="144" y2="31"/>
<g id="XMLID_41_">
	<rect id="XMLID_45_" x="84" y="88" class="st1" width="72" height="20"/>
</g>
<line id="XMLID_29_" class="st3" x1="95" y1="98" x2="140" y2="98"/>
<g id="XMLID_9_">
	<rect id="XMLID_42_" x="86" y="56" class="st0" width="68" height="23"/>
	<path id="XMLID_38_" class="st1" d="M152,58v19H88V58H152 M156,54H84v27h72V54L156,54z"/>
</g>
<circle id="XMLID_5_" class="st1" cx="97.4" cy="67.1" r="2.6"/>
<circle id="XMLID_8_" class="st1" cx="107.4" cy="67.1" r="2.6"/>
<circle id="XMLID_25_" class="st1" cx="117.4" cy="67.1" r="2.6"/>
<circle id="XMLID_26_" class="st1" cx="127.4" cy="67.1" r="2.6"/>
<circle id="XMLID_27_" class="st1" cx="137.4" cy="67.1" r="2.6"/>
</svg>
