<?xml version="1.0" encoding="utf-8"?>
<!-- Generator: Adobe Illustrator 19.0.0, SVG Export Plug-In . SVG Version: 6.00 Build 0)  -->
<svg version="1.1" id="Layer_2" xmlns="http://www.w3.org/2000/svg" xmlns:xlink="http://www.w3.org/1999/xlink" x="0px" y="0px"
	 viewBox="0 0 432 288" style="enable-background:new 0 0 432 288;" xml:space="preserve">
<style type="text/css">
	.st0{fill:#FFFFFF;stroke:#E31E24;stroke-width:6;stroke-miterlimit:10;}
	.st1{fill:#E31E24;}
	.st2{font-family:'Poppins-Regular';}
	.st3{font-size:162px;}
</style>
<path id="XMLID_9_" class="st0" d="M216,207l67.1,26.9c12.6,5,27-1.1,32-13.7v0c4.9-12.3-0.8-26.4-13-31.7l-81.7-35.7
	c-25.8-11.3-55.2-11.4-81.1-0.3L117,162l18,90l93,23.3c33,8.3,67.8,5,98.8-9.1l84.2-38.5c11.8-5.4,17.4-19.1,12.7-31.2l-0.4-1
	c-5.1-13.2-20.3-19.5-33.2-13.6L315,216"/>
<polygon id="XMLID_12_" class="st0" points="116,144 143,270 17.3,288 8,144 "/>
<text id="XMLID_14_" transform="matrix(1 0 0 1 279.0004 162)" class="st1 st2 st3">₹</text>
</svg>
