<?xml version="1.0" encoding="utf-8"?>
<!-- Generator: Adobe Illustrator 19.0.0, SVG Export Plug-In . SVG Version: 6.00 Build 0)  -->
<svg version="1.1" id="Layer_3_copy_2" xmlns="http://www.w3.org/2000/svg" xmlns:xlink="http://www.w3.org/1999/xlink" x="0px"
	 y="0px" viewBox="0 0 210 138" style="enable-background:new 0 0 210 138;" xml:space="preserve">
<style type="text/css">
	.st0{fill:#FFFFFF;}
	.st1{fill:#E31E24;}
	.st2{fill:none;stroke:#E31E24;stroke-width:4;stroke-miterlimit:10;}
	.st3{fill:none;stroke:#E31E24;stroke-width:4;stroke-linejoin:round;stroke-miterlimit:10;}
</style>
<g id="XMLID_1_">
	<path id="XMLID_24_" class="st0" d="M51,136c-2.2,0-4-1.8-4-4V6c0-2.2,1.8-4,4-4h87.3c2.2,0,4,1.8,4,4v126c0,2.2-1.8,4-4,4H51z"/>
	<path id="XMLID_21_" class="st1" d="M138.3,4c1.1,0,2,0.9,2,2v126c0,1.1-0.9,2-2,2H51c-1.1,0-2-0.9-2-2V6c0-1.1,0.9-2,2-2H138.3
		 M138.3,0H51c-3.3,0-6,2.7-6,6v126c0,3.3,2.7,6,6,6h87.3c3.3,0,6-2.7,6-6V6C144.3,2.7,141.6,0,138.3,0L138.3,0z"/>
</g>
<line id="XMLID_2_" class="st2" x1="63" y1="18" x2="99" y2="18"/>
<line id="XMLID_4_" class="st2" x1="63" y1="38" x2="125.3" y2="38"/>
<line id="XMLID_5_" class="st2" x1="63" y1="51" x2="125.3" y2="51"/>
<line id="XMLID_6_" class="st2" x1="63" y1="64" x2="125.3" y2="64"/>
<line id="XMLID_7_" class="st2" x1="63" y1="77" x2="125.3" y2="77"/>
<line id="XMLID_8_" class="st2" x1="63" y1="90" x2="115.3" y2="90"/>
<path id="XMLID_9_" class="st3" d="M89.6,128.1l4-6.5l2.8,2.7c0,0-0.4-9.5,8.3-9.2s10.5,2.4,10.5,2.4l9-10.8l-1.8,10.5l11.3-5.2"/>
</svg>
