<?xml version="1.0" encoding="utf-8"?>
<!-- Generator: Adobe Illustrator 19.0.0, SVG Export Plug-In . SVG Version: 6.00 Build 0)  -->
<svg version="1.1" id="Layer_1" xmlns="http://www.w3.org/2000/svg" xmlns:xlink="http://www.w3.org/1999/xlink" x="0px" y="0px"
	 viewBox="0 0 432 288" style="enable-background:new 0 0 432 288;" xml:space="preserve">
<style type="text/css">
	.st0{fill:#FFFFFF;}
	.st1{fill:#E31E24;}
	.st2{fill:none;stroke:#E31E24;stroke-width:6;stroke-miterlimit:10;}
</style>
<g id="XMLID_10_">
	<path id="XMLID_55_" class="st0" d="M18,209.7c-8.3,0-15-6.7-15-15V54.5c0-8.3,6.7-15,15-15h238.9c8.3,0,15,6.7,15,15v140.2
		c0,8.3-6.7,15-15,15H18z"/>
	<path id="XMLID_52_" class="st1" d="M256.9,42.5c6.6,0,12,5.4,12,12v140.2c0,6.6-5.4,12-12,12H18c-6.6,0-12-5.4-12-12V54.5
		c0-6.6,5.4-12,12-12H256.9 M256.9,36.5H18c-9.9,0-18,8.1-18,18v140.2c0,9.9,8.1,18,18,18h238.9c9.9,0,18-8.1,18-18V54.5
		C274.9,44.6,266.9,36.5,256.9,36.5L256.9,36.5z"/>
</g>
<g id="XMLID_2_">
	<rect id="XMLID_51_" x="117.8" y="212.7" class="st1" width="39.3" height="29.5"/>
</g>
<path id="XMLID_3_" class="st1" d="M172.2,252h-69.5c-2.5,0-4.5-2-4.5-4.5v-0.8c0-2.5,2-4.5,4.5-4.5h69.5c2.5,0,4.5,2,4.5,4.5v0.8
	C176.7,250,174.7,252,172.2,252z"/>
<path id="XMLID_4_" class="st1" d="M256.9,212.7H18c-9.9,0-18-8.1-18-18v-11.5h274.9v11.5C274.9,204.7,266.9,212.7,256.9,212.7z"/>
<g id="XMLID_6_">
	<g id="XMLID_24_">
		<polyline id="XMLID_29_" class="st2" points="29.5,163.6 127.6,85.1 196.4,153.8 342.8,41.9 		"/>
		<g id="XMLID_25_">
			<polygon id="XMLID_26_" class="st1" points="349.5,59.3 363.3,26.2 327.7,30.8 			"/>
		</g>
	</g>
</g>
<g id="XMLID_28_">
	<path id="XMLID_48_" class="st0" d="M355.1,239.2c-2,0-3.5-1.6-3.5-3.5v-4.6c0-7.2-3.5-14.1-9.5-18.4c-9.4-6.8-15.1-17.8-15.1-29.4
		c0-20,16.3-36.3,36.3-36.3c0.9,0,1.7,0,2.6,0.1c18.3,1.3,32.8,16.1,33.6,34.4c0.6,12.4-5.1,24.2-15.3,31.4
		c-5.8,4.1-9.2,10.9-9.2,18.2v4.6c0,2-1.6,3.5-3.5,3.5H355.1z"/>
	<path id="XMLID_45_" class="st1" d="M363.3,144v6h0c0.8,0,1.6,0,2.4,0.1c8.1,0.6,15.6,4.1,21.4,10c5.7,5.9,9.1,13.5,9.5,21.6
		c0.5,11.4-4.7,22.2-14,28.8c-6.6,4.7-10.5,12.4-10.5,20.6v4.6c0,0.3-0.2,0.5-0.5,0.5h-16.4c-0.3,0-0.5-0.2-0.5-0.5v-4.6
		c0-8.2-4-15.9-10.7-20.8c-8.6-6.2-13.8-16.3-13.8-27c0-18.3,14.9-33.3,33.3-33.3L363.3,144 M363.3,144c-21.7,0-39.3,17.6-39.3,39.3
		c0,13.1,6.4,24.7,16.3,31.8c5.1,3.7,8.3,9.6,8.3,15.9v4.6c0,3.6,2.9,6.5,6.5,6.5h16.4c3.6,0,6.5-2.9,6.5-6.5v-4.6
		c0-6.2,2.9-12.1,8-15.8c10.5-7.5,17.2-19.9,16.5-33.9c-0.9-19.7-16.7-35.9-36.4-37.3C365.1,144,364.2,144,363.3,144L363.3,144z"/>
</g>
<path id="XMLID_5_" class="st1" d="M363.6,252h-0.7c-2.1,0-3.8-1.7-3.8-3.8v-6.1h8.2v6.1C367.4,250.3,365.7,252,363.6,252z"/>
<path id="XMLID_8_" class="st2" d="M363.3,242.2v-28.1c0-0.9-0.3-1.7-1-2.3l-5.6-5.6c-1.6-1.6-1.1-4.2,0.9-5.2l9.7-4.9
	c2.4-1.2,2.4-4.6,0-5.9l-9.7-4.9c-2-1-2.4-3.7-0.9-5.2l6.6-6.6"/>
<line id="XMLID_7_" class="st2" x1="363.3" y1="114.5" x2="363.3" y2="134.2"/>
<line id="XMLID_11_" class="st2" x1="314.7" y1="134.7" x2="328.6" y2="148.6"/>
<line id="XMLID_13_" class="st2" x1="294.5" y1="183.3" x2="314.2" y2="183.3"/>
<line id="XMLID_27_" class="st2" x1="432" y1="183.3" x2="412.4" y2="183.3"/>
<line id="XMLID_30_" class="st2" x1="411.9" y1="134.7" x2="398" y2="148.6"/>
</svg>
