<?xml version="1.0" encoding="utf-8"?>
<!-- Generator: Adobe Illustrator 19.0.0, SVG Export Plug-In . SVG Version: 6.00 Build 0)  -->
<svg version="1.1" id="Layer_2_copy_2" xmlns="http://www.w3.org/2000/svg" xmlns:xlink="http://www.w3.org/1999/xlink" x="0px"
	 y="0px" viewBox="0 0 210 138" style="enable-background:new 0 0 210 138;" xml:space="preserve">
<style type="text/css">
	.st0{fill:#FFFFFF;}
	.st1{fill:#E31E24;}
	.st2{fill:#FFFFFF;stroke:#E31E24;stroke-width:4;stroke-miterlimit:10;}
</style>
<g id="XMLID_1_">
	<g id="XMLID_2_">
		<path id="XMLID_42_" class="st0" d="M81.6,79H27c-8.8,0-16-7.2-16-16V27.4c0-8.8,7.1-16,15.9-16l63-0.3c8.9,0,16.1,7.2,16.1,16
			v68.2L81.6,79z"/>
		<path id="XMLID_39_" class="st1" d="M90,13.1L90,13.1c7.7,0,14,6.3,14,14v64.4L83.2,77.7l-1-0.7H81H27c-7.7,0-14-6.3-14-14V27.4
			c0-7.7,6.2-14,13.9-14L90,13.1L90,13.1 M90,9.1C90,9.1,89.9,9.1,90,9.1L26.9,9.4C17,9.5,9,17.5,9,27.4V63c0,9.9,8.1,18,18,18h54
			l27,18V27.1C108,17.1,99.9,9.1,90,9.1L90,9.1z"/>
	</g>
	<line id="XMLID_3_" class="st2" x1="27" y1="31" x2="90" y2="31"/>
	<path id="XMLID_7_" class="st2" d="M62.7,45c9.1,0,18.2,0,27.3,0"/>
	<path id="XMLID_6_" class="st2" d="M27,45c8.2,0,16.4,0,24.6,0"/>
	<line id="XMLID_5_" class="st2" x1="27" y1="59" x2="60" y2="59"/>
</g>
<g id="XMLID_18_">
	<path id="XMLID_37_" class="st0" d="M119,71.7c0-8.8,7.2-16,16-16l45.1,0.3c8.8,0,15.9,7.2,15.9,16v21c0,8.8-7.2,16-16,16h-36.6
		L119,125.3V71.7z"/>
	<path id="XMLID_34_" class="st1" d="M135,57.7L135,57.7L135,57.7l45.1,0.3c7.7,0,13.9,6.3,13.9,14v21c0,7.7-6.3,14-14,14h-36h-1.2
		l-1,0.7L121,121.5V71.7C121,64,127.3,57.7,135,57.7 M135,53.7c-9.9,0-18,8.1-18,18V129l27-18h36c9.9,0,18-8.1,18-18V72
		c0-9.9-8-17.9-17.9-18L135,53.7C135.1,53.7,135,53.7,135,53.7L135,53.7z"/>
</g>
<polyline id="XMLID_4_" class="st2" points="142.5,84 151.5,93 174,70.5 "/>
</svg>
