<?xml version="1.0" encoding="utf-8"?>
<!-- Generator: Adobe Illustrator 19.0.0, SVG Export Plug-In . SVG Version: 6.00 Build 0)  -->
<svg version="1.1" id="Layer_3" xmlns="http://www.w3.org/2000/svg" xmlns:xlink="http://www.w3.org/1999/xlink" x="0px" y="0px"
	 viewBox="0 0 432 288" style="enable-background:new 0 0 432 288;" xml:space="preserve">
<style type="text/css">
	.st0{fill:#FFFFFF;}
	.st1{fill:#E31E24;}
	.st2{fill:none;stroke:#E31E24;stroke-width:6;stroke-miterlimit:10;}
</style>
<g id="XMLID_18_">
	<rect id="XMLID_40_" x="30" y="21" class="st0" width="318" height="192"/>
	<path id="XMLID_37_" class="st1" d="M345,24v186H33V24H345 M351,18H27v198h324V18L351,18z"/>
</g>
<line id="XMLID_16_" class="st2" x1="189" y1="216" x2="189" y2="261"/>
<line id="XMLID_19_" class="st2" x1="117" y1="288" x2="189" y2="261"/>
<line id="XMLID_21_" class="st2" x1="189" y1="261" x2="261" y2="288"/>
<g id="XMLID_15_">
	<rect id="XMLID_35_" x="3" y="3" class="st0" width="372" height="21"/>
	<path id="XMLID_31_" class="st1" d="M372,6v15H6V6H372 M378,0H0v27h378V0L378,0z"/>
</g>
<path id="XMLID_47_" class="st2" d="M268.4,54c49.6,0,100.6,0,150.2,0"/>
<path id="XMLID_45_" class="st2" d="M218.8,54c10.2,0,20.5,0,30.7,0"/>
<path id="XMLID_46_" class="st2" d="M144,54c16,0,33,0,49,0"/>
<path id="XMLID_61_" class="st2" d="M377.2,81c29.8,0,24.8,0,54.8,0"/>
<path id="XMLID_32_" class="st2" d="M282.8,81c27.3,0,54.6,0,82,0"/>
<path id="XMLID_50_" class="st2" d="M144,81c42,0,85,0,127.1,0"/>
<path id="XMLID_41_" class="st2" d="M210,108c37,0,73,0,110.5,0"/>
<path id="XMLID_52_" class="st2" d="M144,108c18,0,36,0,54,0"/>
<path id="XMLID_64_" class="st2" d="M281.3,144c46.7,0,67.7,0,114.7,0"/>
<path id="XMLID_43_" class="st2" d="M216.4,144c17.4,0,34.9,0,52.3,0"/>
<path id="XMLID_62_" class="st2" d="M144,144c20,0,41,0,60.6,0"/>
<path id="XMLID_67_" class="st2" d="M212.8,171c46.2,0,92.2,0,138.2,0"/>
<path id="XMLID_65_" class="st2" d="M144,171c19,0,38,0,57.1,0"/>
<polyline id="XMLID_44_" class="st2" points="63,72 81,90 117,54 "/>
<line id="XMLID_69_" class="st2" x1="63" y1="135" x2="99" y2="171"/>
<line id="XMLID_70_" class="st2" x1="99" y1="135" x2="63" y2="171"/>
</svg>
