<?xml version="1.0" encoding="utf-8"?>
<!-- Generator: Adobe Illustrator 19.0.0, SVG Export Plug-In . SVG Version: 6.00 Build 0)  -->
<svg version="1.1" id="Layer_1_copy_3" xmlns="http://www.w3.org/2000/svg" xmlns:xlink="http://www.w3.org/1999/xlink" x="0px"
	 y="0px" viewBox="0 0 168 136" style="enable-background:new 0 0 168 136;" xml:space="preserve">
<style type="text/css">
	.st0{fill:#FFFFFF;}
	.st1{fill:#E31E24;}
	.st2{fill:#FFFFFF;stroke:#E31E24;stroke-width:4;stroke-miterlimit:10;}
</style>
<g id="XMLID_85_">
	<polygon id="XMLID_29_" class="st0" points="128.8,134 128.8,126.8 116.8,70.6 112.9,71.1 115,113.7 109.8,127.6 109.8,134 
		58.2,134 58.2,127.6 53,113.7 55.1,71.1 51.2,70.6 39.2,126.8 39.2,134 30.6,134 30.6,127.1 27.1,124.1 31.3,70.3 40.8,31.4 
		72.1,15.4 77.3,2 90.7,2 95.9,15.4 127.2,31.4 136.7,70.3 140.9,124.1 137.4,127.1 137.4,134 	"/>
	<path id="XMLID_26_" class="st1" d="M89.4,4l4.4,11.4l0.6,1.4l1.4,0.7l29.8,15.2l9.2,37.9l4.1,52.6l-2,1.7l-1.4,1.2v1.9v4h-4.6v-5
		v-0.4l-0.1-0.4l-11.9-56l-7.9,1l2.1,42.2l-4.9,13.2l-0.3,0.7v0.7v4H60.2v-4v-0.7l-0.3-0.7L55,113.4l2.1-42.2l-7.9-1l-11.9,56
		l-0.1,0.4v0.4v5h-4.6v-4v-1.9l-1.4-1.2l-2-1.7l4.1-52.6l9.2-37.9l29.8-15.2l1.4-0.7l0.6-1.4L78.6,4H89.4 M92.1,0H75.9l-5.4,14
		L39.1,30l-9.7,40L25,125l3.6,3v8h12.6v-9l11.9-56L51,114l5.2,14v8h55.6v-8l5.2-14l-2.2-43l11.9,56v9h12.6v-8l3.6-3l-4.3-55l-9.7-40
		L97.5,14L92.1,0L92.1,0z"/>
</g>
<path id="XMLID_39_" class="st2" d="M84.5,26c0,0-23.1,0.9-22.7-14S84.5,2,84.5,2V26z"/>
<path id="XMLID_54_" class="st2" d="M83.5,26c0,0,23.1,0.9,22.7-14C105.8-2.9,83.5,2,83.5,2V26z"/>
<path id="XMLID_68_" class="st2" d="M99.7,12c-0.2,8.5-11.6,12.6-15.2,13.7c-0.2,0.1-0.4,0.1-0.5,0.2c-0.2,0-0.3-0.1-0.5-0.2
	c-3.6-1.1-14.9-5.2-15.2-13.7C68.1,3,81.1,3.7,84,3.9h0C86.9,3.7,99.9,3,99.7,12z"/>
<path id="XMLID_65_" class="st2" d="M84.5,25.7V26c0,0-0.2,0-0.5-0.1C84.2,25.8,84.3,25.8,84.5,25.7z"/>
<path id="XMLID_64_" class="st2" d="M84,25.9C83.7,26,83.5,26,83.5,26v-0.3C83.7,25.8,83.8,25.8,84,25.9z"/>
<line id="XMLID_49_" class="st2" x1="83.5" y1="26" x2="83.5" y2="47"/>
</svg>
