<?xml version="1.0" encoding="utf-8"?>
<!-- Generator: Adobe Illustrator 19.0.0, SVG Export Plug-In . SVG Version: 6.00 Build 0)  -->
<svg version="1.1" id="Layer_1_copy_5" xmlns="http://www.w3.org/2000/svg" xmlns:xlink="http://www.w3.org/1999/xlink" x="0px"
	 y="0px" viewBox="0 0 168 136" style="enable-background:new 0 0 168 136;" xml:space="preserve">
<style type="text/css">
	.st0{fill:#FFFFFF;}
	.st1{fill:#E31E24;}
	.st2{fill:none;stroke:#E31E24;stroke-width:4;stroke-miterlimit:10;}
</style>
<g id="XMLID_236_">
	<path id="XMLID_34_" class="st0" d="M32,134V76c0-5.5,4.5-10,10-10h84c5.5,0,10,4.5,10,10v58H32z"/>
	<path id="XMLID_31_" class="st1" d="M126,68c4.4,0,8,3.6,8,8v56H34V76c0-4.4,3.6-8,8-8H126 M126,64H42c-6.6,0-12,5.4-12,12v60h108
		V76C138,69.4,132.6,64,126,64L126,64z"/>
</g>
<g id="XMLID_240_">
	<path id="XMLID_269_" class="st0" d="M34,80c8.3,0,8.3,8,16.7,8c8.3,0,8.3-8,16.7-8c8.3,0,8.3,8,16.7,8c8.3,0,8.3-8,16.7-8
		c8.3,0,8.3,8,16.7,8s8.3-8,16.7-8"/>
	<path id="XMLID_268_" class="st2" d="M34,80c8.3,0,8.3,8,16.7,8c8.3,0,8.3-8,16.7-8c8.3,0,8.3,8,16.7,8c8.3,0,8.3-8,16.7-8
		c8.3,0,8.3,8,16.7,8s8.3-8,16.7-8"/>
</g>
<g id="XMLID_241_">
	<path id="XMLID_272_" class="st0" d="M34,99c8.3,0,8.3,8,16.7,8c8.3,0,8.3-8,16.7-8c8.3,0,8.3,8,16.7,8c8.3,0,8.3-8,16.7-8
		c8.3,0,8.3,8,16.7,8s8.3-8,16.7-8"/>
	<path id="XMLID_271_" class="st2" d="M34,99c8.3,0,8.3,8,16.7,8c8.3,0,8.3-8,16.7-8c8.3,0,8.3,8,16.7,8c8.3,0,8.3-8,16.7-8
		c8.3,0,8.3,8,16.7,8s8.3-8,16.7-8"/>
</g>
<g id="XMLID_242_">
	<path id="XMLID_244_" class="st0" d="M34,116c8.3,0,8.3,8,16.7,8c8.3,0,8.3-8,16.7-8c8.3,0,8.3,8,16.7,8c8.3,0,8.3-8,16.7-8
		c8.3,0,8.3,8,16.7,8s8.3-8,16.7-8"/>
	<path id="XMLID_243_" class="st1" d="M134,116c-8.3,0-8.3,8-16.7,8s-8.3-8-16.7-8c-8.3,0-8.3,8-16.7,8c-8.3,0-8.3-8-16.7-8
		c-8.3,0-8.3,8-16.7,8c-8.3,0-8.3-8-16.7-8h-2v18h104v-18H134z"/>
</g>
<g id="XMLID_237_">
	<rect id="XMLID_29_" x="77" y="29" class="st0" width="14" height="37"/>
	<path id="XMLID_26_" class="st1" d="M89,31v33H79V31H89 M93,27H75v41h18V27L93,27z"/>
</g>
<g id="XMLID_248_">
	<line id="XMLID_276_" class="st0" x1="84" y1="0" x2="84" y2="22"/>
	<path id="XMLID_265_" class="st1" d="M84,0c0,0,0.1,0.1,0.3,0.2c0.2,0.2,0.5,0.4,0.8,0.7c0.3,0.3,0.7,0.7,1.1,1.1
		c0.4,0.4,0.8,0.9,1.2,1.4c0.7,1,1.4,2.2,1.9,3.5c0.5,1.3,0.7,2.7,0.7,4c0,1.4-0.2,2.8-0.7,4c-0.4,1.3-1.1,2.5-1.9,3.5
		c-0.4,0.5-0.8,1-1.2,1.4c-0.4,0.4-0.8,0.8-1.1,1.1c-0.3,0.3-0.7,0.5-0.8,0.7C84.1,21.9,84,22,84,22s-0.1-0.1-0.3-0.2
		c-0.2-0.2-0.5-0.4-0.8-0.7c-0.3-0.3-0.7-0.7-1.1-1.1c-0.4-0.4-0.8-0.9-1.2-1.4c-0.7-1-1.4-2.2-1.9-3.5c-0.5-1.3-0.7-2.7-0.7-4
		c0-1.4,0.2-2.8,0.7-4c0.4-1.3,1.1-2.5,1.9-3.5c0.4-0.5,0.8-1,1.2-1.4c0.4-0.4,0.8-0.8,1.1-1.1c0.3-0.3,0.7-0.5,0.8-0.7
		C83.9,0.1,84,0,84,0z"/>
</g>
</svg>
