<?xml version="1.0" encoding="utf-8"?>
<!-- Generator: Adobe Illustrator 19.0.0, SVG Export Plug-In . SVG Version: 6.00 Build 0)  -->
<svg version="1.1" id="Layer_1_copy" xmlns="http://www.w3.org/2000/svg" xmlns:xlink="http://www.w3.org/1999/xlink" x="0px"
	 y="0px" viewBox="0 0 168 136" style="enable-background:new 0 0 168 136;" xml:space="preserve">
<style type="text/css">
	.st0{fill:#FFFFFF;}
	.st1{fill:#E31E24;}
	.st2{fill:none;stroke:#E31E24;stroke-width:4;stroke-miterlimit:10;}
</style>
<g id="XMLID_13_">
	<polygon id="XMLID_40_" class="st0" points="27.5,115.8 24,118.7 24,7 100,7 100,113.2 87.3,126.8 	"/>
	<path id="XMLID_37_" class="st1" d="M98,9v103.4l-11.4,12.2L28.8,114l-1.8-0.3l-1,0.8V9H98 M102,5H22v118l6.1-5L88,129l14-15V5
		L102,5z"/>
</g>
<g id="XMLID_6_">
	<path id="XMLID_35_" class="st0" d="M31,129c-3.9,0-7-3.1-7-7s3.1-7,7-7h67.5c-2.1,4.4-2.1,9.6,0,14H31z"/>
	<path id="XMLID_32_" class="st1" d="M95.6,117c-0.9,3.3-0.9,6.7,0,10H31c-2.8,0-5-2.2-5-5s2.2-5,5-5H95.6 M102,113H31c-5,0-9,4-9,9
		s4,9,9,9h71v0C97.9,125.7,97.9,118.3,102,113L102,113z"/>
</g>
<rect id="XMLID_12_" x="37" y="25" class="st1" width="50" height="10"/>
<line id="XMLID_14_" class="st2" x1="39" y1="93" x2="66" y2="93"/>
<line id="XMLID_15_" class="st2" x1="72" y1="93" x2="86" y2="93"/>
<path id="XMLID_16_" class="st1" d="M116,62L116,62c-1.7,0-3,1.3-3,3v58l3,7l3-7V65C119,63.3,117.7,62,116,62z"/>
</svg>
