<?xml version="1.0" encoding="utf-8"?>
<!-- Generator: Adobe Illustrator 19.0.0, SVG Export Plug-In . SVG Version: 6.00 Build 0)  -->
<svg version="1.1" id="Layer_3_copy_2" xmlns="http://www.w3.org/2000/svg" xmlns:xlink="http://www.w3.org/1999/xlink" x="0px"
	 y="0px" viewBox="0 0 210 138" style="enable-background:new 0 0 210 138;" xml:space="preserve">
<style type="text/css">
	.st0{fill:#E31E24;}
	.st1{fill:none;stroke:#E31E24;stroke-width:4;stroke-miterlimit:10;}
</style>
<g id="XMLID_1192_">
	<path id="XMLID_29_" class="st0" d="M162,4c4.4,0,8,3.6,8,8v114c0,4.4-3.6,8-8,8H48c-4.4,0-8-3.6-8-8V12c0-4.4,3.6-8,8-8H162
		 M162,0H48c-6.6,0-12,5.4-12,12v114c0,6.6,5.4,12,12,12h114c6.6,0,12-5.4,12-12V12C174,5.4,168.6,0,162,0L162,0z"/>
</g>
<g id="XMLID_1186_">
	<g id="XMLID_40_">
		<path id="XMLID_41_" class="st0" d="M80,17c12.7,0,23,10.3,23,23c0,0,0,0.1,0,0.1l0,0.1l0,0.2c-0.2,9-5.6,17.1-13.9,20.7
			C86.2,62.4,83.2,63,80,63c-12.7,0-23-10.3-23-23C57,27.3,67.3,17,80,17 M80,13c-14.9,0-27,12.1-27,27c0,14.9,12.1,27,27,27
			c3.8,0,7.4-0.8,10.7-2.2c9.4-4.1,16.1-13.4,16.3-24.3c0-0.2,0-0.4,0-0.5C107,25.1,94.9,13,80,13L80,13z"/>
	</g>
</g>
<g id="XMLID_1183_">
	<path id="XMLID_27_" class="st0" d="M106.8,40.8c-0.2,10.9-6.9,20.2-16.3,24.3L79.2,40.8H106.8z"/>
</g>
<g id="XMLID_1180_">
	<path id="XMLID_38_" class="st0" d="M128.9,93.4h-12v-30c0-3.3,2.7-6,6-6h0c3.3,0,6,2.7,6,6V93.4z"/>
</g>
<g id="XMLID_1174_">
	<g id="XMLID_31_">
		<path id="XMLID_32_" class="st0" d="M144.9,51.4c1.1,0,2,0.9,2,2v36h-4v-36C142.9,52.3,143.8,51.4,144.9,51.4 M144.9,47.4
			L144.9,47.4c-3.3,0-6,2.7-6,6v40h12v-40C150.9,50.1,148.2,47.4,144.9,47.4L144.9,47.4z"/>
	</g>
</g>
<polyline id="XMLID_1173_" class="st1" points="59.8,80.8 59.8,118 99.2,118 "/>
<line id="XMLID_1172_" class="st1" x1="110" y1="91.5" x2="157.7" y2="91.5"/>
<polyline id="XMLID_1171_" class="st1" points="67.7,109.5 75.2,94.7 84.4,102.1 97.9,86.2 "/>
</svg>
