<?xml version="1.0" encoding="utf-8"?>
<!-- Generator: Adobe Illustrator 19.0.0, SVG Export Plug-In . SVG Version: 6.00 Build 0)  -->
<svg version="1.1" id="Layer_1_copy_2" xmlns="http://www.w3.org/2000/svg" xmlns:xlink="http://www.w3.org/1999/xlink" x="0px"
	 y="0px" viewBox="0 0 210 138" style="enable-background:new 0 0 210 138;" xml:space="preserve">
<style type="text/css">
	.st0{fill:none;stroke:#E31E24;stroke-width:4;stroke-miterlimit:10;}
	.st1{fill:#E31E24;}
	.st2{fill:#FFFFFF;}
	.st3{font-family:'Poppins-Medium';}
	.st4{font-size:37.4443px;}
</style>
<path id="XMLID_960_" class="st0" d="M33.2,64.3c-3.5-0.4-7.4-1.7-10.1-5.1c-2.9-3.6-4.7-10.1-1.9-12.9c2-1.9,6-1.8,8.5-0.2
	C34.1,48.9,35.6,57.3,33.2,64.3z"/>
<g id="XMLID_906_">
	<g id="XMLID_37_">
		<path id="XMLID_38_" class="st1" d="M155.9,12.5L155.9,12.5c2.2,0,4,0.5,5.3,1.6c2,1.6,4.9,6.2,1.5,19.6c-0.3,1.1-0.6,2.3-1,3.6
			l-0.7,2.2l1.6,1.7c6,6.4,9.9,13.6,11.6,21.4l0.5,2.4l2.4,0.6l7.2,1.8c1.6,0.4,2.6,1.8,2.6,3.4v8.4c0,1.3-0.7,2.5-1.9,3.1l0,0l0,0
			c-0.2,0.1-0.4,0.2-0.7,0.3l-2.8,0.7l-6.9,1.8l-1.9,0.5l-0.8,1.8c-4.8,11.3-14.5,21.1-27.5,27.5l-1.7,0.8l-0.4,1.8l-3.2,13.9
			c-0.2,0.7-0.5,1.3-0.9,1.7c-0.4,0.4-0.9,0.8-1.7,0.8h-7.6c-1.2,0-2.3-1-2.7-2.5l-1.4-6.2l-0.8-3.6l-3.6,0.5
			c-3.8,0.5-7.8,0.8-11.7,0.8c-2.8,0-5.7-0.1-8.5-0.4c-2-0.2-4-0.5-6.1-0.8l-3.7-0.6l-0.8,3.7l-1.5,6.7c-0.2,0.7-0.5,1.3-0.9,1.7
			c-0.5,0.5-1.1,0.8-1.7,0.8h-7.6c-1.2,0-2.3-1-2.7-2.5l-3.6-15.7l-0.4-1.7l-1.5-0.9c-17.3-9.7-27.6-25.4-27.6-41.8
			c0-2.1,0.2-4.2,0.5-6.3c1.9-12.3,9.6-23.7,21.5-32c7.2-5,15.8-8.9,25-11.1c6.3-1.5,13-2.3,19.7-2.3c5.8,0,11.5,0.6,17,1.7
			c2.9,0.6,5.8,1.3,8.5,2.2l2.8,0.9l1.7-2.5c0.4-0.6,0.7-1,0.9-1.2l0.1-0.1c0.4-0.5,0.8-0.9,1.3-1.4c3.5-3.6,8.6-6.1,13.3-6.7
			C154.7,12.5,155.3,12.5,155.9,12.5 M155.9,8.5c-0.8,0-1.5,0-2.3,0.1c-5.5,0.7-11.5,3.7-15.6,7.9c-0.5,0.5-1,1.1-1.5,1.7
			c-0.2,0.3-0.6,0.8-1.2,1.6c-2.9-0.9-5.9-1.7-8.9-2.3c-5.7-1.2-11.6-1.8-17.8-1.8c-7.2,0-14.1,0.8-20.6,2.4
			C78,20.4,69,24.4,61.5,29.7c-12.5,8.8-21,20.9-23.1,34.7c-0.4,2.3-0.6,4.6-0.6,6.9c0,18.7,11.7,35.2,29.6,45.3l3.6,15.7
			c0.8,3.3,3.5,5.6,6.6,5.6h7.6c1.8,0,3.4-0.8,4.6-2c0.9-1,1.6-2.2,2-3.6l1.5-6.7c2.1,0.4,4.2,0.6,6.3,0.9c2.9,0.3,5.9,0.4,8.9,0.4
			c4.2,0,8.3-0.3,12.3-0.8l1.4,6.2c0.8,3.3,3.5,5.6,6.6,5.6h7.6c1.8,0,3.4-0.8,4.6-2c0.9-1,1.6-2.2,1.9-3.6l3.2-13.9
			c13.7-6.8,24.3-17.2,29.5-29.6l6.9-1.8l2.8-0.7c0.6-0.2,1.1-0.4,1.6-0.6c2.4-1.3,4-3.8,4-6.6v-8.4c0-3.4-2.3-6.4-5.6-7.3l-7.2-1.8
			c-1.9-8.6-6.3-16.5-12.6-23.2c0.4-1.4,0.8-2.7,1.1-3.8c1-3.7,4.6-17.8-2.9-23.7C161.5,9.2,158.8,8.5,155.9,8.5L155.9,8.5z"/>
	</g>
</g>
<path id="XMLID_905_" class="st0" d="M17,75.6c2-0.1,8.3-0.6,12.7-5.4c1.6-1.7,2.7-3.7,3.5-5.9c2,0.3,3.8,0.2,5.2,0.1
	c1.2-0.1,2-0.2,2.2-0.3"/>
<path id="XMLID_903_" class="st0" d="M163.1,61c-0.2,3.2-2.5,5.8-5.3,6.2c-3.4,0.5-6.9-2.1-7.3-5.9"/>
<line id="XMLID_898_" class="st0" x1="65.3" y1="53.9" x2="125.6" y2="53.9"/>
<g id="XMLID_815_">
	<path id="XMLID_35_" class="st2" d="M71.8,45.1c-2.8-4.4-4.3-9.5-4.3-14.8C67.5,15,79.9,2.6,95.1,2.6c15.3,0,27.7,12.4,27.7,27.7
		c0,5.3-1.5,10.4-4.3,14.8H71.8z"/>
	<g id="XMLID_31_">
		<path id="XMLID_32_" class="st1" d="M95.1,4.6c14.2,0,25.7,11.5,25.7,25.7c0,4.6-1.2,9-3.4,12.8H72.9c-2.3-3.9-3.4-8.3-3.4-12.8
			C69.5,16.1,81,4.6,95.1,4.6 M95.1,0.6c-16.4,0-29.7,13.3-29.7,29.7c0,6.3,1.9,12.1,5.2,16.8h48.9c3.3-4.8,5.2-10.6,5.2-16.8
			C124.8,13.9,111.5,0.6,95.1,0.6L95.1,0.6z"/>
	</g>
</g>
<text id="XMLID_778_" transform="matrix(1 0 0 1 83.4273 39.6968)" class="st1 st3 st4">₹</text>
</svg>
