<?xml version="1.0" encoding="utf-8"?>
<!-- Generator: Adobe Illustrator 19.0.0, SVG Export Plug-In . SVG Version: 6.00 Build 0)  -->
<svg version="1.1" id="Layer_1_copy_12" xmlns="http://www.w3.org/2000/svg" xmlns:xlink="http://www.w3.org/1999/xlink" x="0px"
	 y="0px" viewBox="0 0 168 136" style="enable-background:new 0 0 168 136;" xml:space="preserve">
<style type="text/css">
	.st0{fill:#FFFFFF;}
	.st1{fill:#E31E24;}
	.st2{fill:#FFFFFF;stroke:#E31E24;stroke-width:4;stroke-miterlimit:10;}
</style>
<g id="XMLID_316_">
	<path id="XMLID_56_" class="st0" d="M11,115c-2.2,0-4-1.8-4-4V93h152c2.2,0,4,1.8,4,4v14c0,2.2-1.8,4-4,4H11z"/>
	<path id="XMLID_53_" class="st1" d="M159,95c1.1,0,2,0.9,2,2v14c0,1.1-0.9,2-2,2H11c-1.1,0-2-0.9-2-2V95H159 M159,91H5v20
		c0,3.3,2.7,6,6,6h148c3.3,0,6-2.7,6-6V97C165,93.7,162.3,91,159,91L159,91z"/>
</g>
<g id="XMLID_299_">
	<circle id="XMLID_52_" class="st1" cx="37" cy="116" r="20"/>
</g>
<g id="XMLID_298_">
	<circle id="XMLID_50_" class="st1" cx="132" cy="116" r="20"/>
</g>
<g id="XMLID_297_">
	<path id="XMLID_45_" class="st0" d="M109,93V32h22c0.3,0,0.6,0.1,0.8,0.4l23,30.5c0.1,0.2,0.2,0.4,0.2,0.6V93H109z"/>
	<path id="XMLID_40_" class="st1" d="M130.5,34L153,63.8V91h-42V34H130.5 M131,30h-24v65h50V63.5c0-0.7-0.2-1.3-0.6-1.8l-23-30.5
		C132.8,30.4,131.9,30,131,30L131,30z"/>
</g>
<line id="XMLID_296_" class="st2" x1="156" y1="64" x2="109" y2="64"/>
<line id="XMLID_295_" class="st2" x1="131" y1="32" x2="131" y2="65"/>
<g id="XMLID_293_">
	<circle id="XMLID_49_" class="st0" cx="132" cy="116" r="7"/>
</g>
<g id="XMLID_380_">
	<circle id="XMLID_47_" class="st0" cx="37" cy="116" r="7"/>
</g>
<g id="XMLID_319_">
	<rect id="XMLID_39_" x="17" y="62" class="st1" width="44" height="29"/>
</g>
<g id="XMLID_405_">
	<rect id="XMLID_36_" x="27" y="35" class="st0" width="35" height="25"/>
	<path id="XMLID_33_" class="st1" d="M60,37v21H29V37H60 M64,33H25v29h39V33L64,33z"/>
</g>
<g id="XMLID_406_">
	<rect id="XMLID_32_" x="64" y="35" class="st1" width="25" height="18"/>
</g>
<g id="XMLID_390_">
	<rect id="XMLID_29_" x="66" y="55" class="st0" width="25" height="34"/>
	<path id="XMLID_26_" class="st1" d="M89,57v30H68V57H89 M93,53H64v38h29V53L93,53z"/>
</g>
</svg>
