<?xml version="1.0" encoding="utf-8"?>
<!-- Generator: Adobe Illustrator 19.0.0, SVG Export Plug-In . SVG Version: 6.00 Build 0)  -->
<svg version="1.1" id="Layer_5_copy" xmlns="http://www.w3.org/2000/svg" xmlns:xlink="http://www.w3.org/1999/xlink" x="0px"
	 y="0px" viewBox="0 0 168 136" style="enable-background:new 0 0 168 136;" xml:space="preserve">
<style type="text/css">
	.st0{fill:#FFFFFF;}
	.st1{fill:#E31E24;}
	.st2{fill:none;stroke:#E31E24;stroke-width:4;stroke-miterlimit:10;}
</style>
<g id="XMLID_73_">
	<g id="XMLID_52_">
		<rect id="XMLID_42_" x="24" y="2" class="st0" width="64" height="132"/>
		<path id="XMLID_39_" class="st1" d="M86,4v128H26V4H86 M90,0H22v136h68V0L90,0z"/>
	</g>
	<line id="XMLID_53_" class="st2" x1="22" y1="48" x2="90" y2="48"/>
	<line id="XMLID_61_" class="st2" x1="33" y1="18" x2="33" y2="40"/>
	<line id="XMLID_66_" class="st2" x1="33" y1="56" x2="33" y2="82"/>
</g>
<g id="XMLID_98_">
	<g id="XMLID_63_">
		<rect id="XMLID_37_" x="74" y="50" class="st0" width="72" height="84"/>
		<path id="XMLID_34_" class="st1" d="M144,52v80H76V52H144 M148,48H72v88h76V48L148,48z"/>
	</g>
	<line id="XMLID_80_" class="st2" x1="72" y1="62" x2="148" y2="62"/>
	<line id="XMLID_88_" class="st2" x1="101" y1="48" x2="101" y2="64"/>
	<g id="XMLID_92_">
		<path id="XMLID_30_" class="st1" d="M110,75c11.6,0,21,9.4,21,21s-9.4,21-21,21s-21-9.4-21-21S98.4,75,110,75 M110,71
			c-13.8,0-25,11.2-25,25s11.2,25,25,25s25-11.2,25-25S123.8,71,110,71L110,71z"/>
	</g>
	<g id="XMLID_110_">
		<path id="XMLID_26_" class="st1" d="M110,82c7.7,0,14,6.3,14,14s-6.3,14-14,14s-14-6.3-14-14S102.3,82,110,82 M110,78
			c-9.9,0-18,8.1-18,18s8.1,18,18,18s18-8.1,18-18S119.9,78,110,78L110,78z"/>
	</g>
</g>
</svg>
