<?xml version="1.0" encoding="utf-8"?>
<!-- Generator: Adobe Illustrator 19.0.0, SVG Export Plug-In . SVG Version: 6.00 Build 0)  -->
<svg version="1.1" id="Layer_2" xmlns="http://www.w3.org/2000/svg" xmlns:xlink="http://www.w3.org/1999/xlink" x="0px" y="0px"
	 viewBox="0 0 440 270" style="enable-background:new 0 0 440 270;" xml:space="preserve">
<style type="text/css">
	.st0{fill:#FAFAFA;}
	.st1{fill:none;stroke:#E31E24;stroke-width:4;stroke-miterlimit:10;}
	.st2{fill:#E31E24;}
</style>
<polygon id="XMLID_52_" class="st0" points="79,81 297,81 297,270 78.7,270 "/>
<polyline id="XMLID_64_" class="st1" points="79,275 79,81 297,81 297,272 "/>
<polygon id="XMLID_5_" class="st2" points="69,172 78.9,176 88.8,172 98.8,176 108.7,172 118.6,176 128.5,172 138.4,176 148.3,172 
	158.3,176 168.2,172 178.1,176 188,172 197.9,176 207.8,172 217.8,176 227.7,172 237.6,176 247.5,172 257.4,176 267.3,172 
	277.3,176 287.2,172 297.1,176 307,172 307,122 69,122 "/>
<g id="XMLID_6_">
	<rect id="XMLID_62_" x="98" y="191" class="st0" width="40" height="78"/>
	<path id="XMLID_59_" class="st2" d="M136,193v74h-36v-74H136 M140,189H96v82h44V189L140,189z"/>
</g>
<circle id="XMLID_7_" class="st2" cx="130" cy="231" r="3"/>
<line id="XMLID_8_" class="st1" x1="157" y1="174" x2="157" y2="277"/>
<g id="XMLID_9_">
	<path id="XMLID_47_" class="st2" d="M295,191v38H159v-38H295 M299,187H155v46h144V187L299,187z"/>
</g>
<line id="XMLID_11_" class="st1" x1="351" y1="270" x2="351" y2="200"/>
<g id="XMLID_10_">
	<path id="XMLID_46_" class="st2" d="M351.5,200h-1c-15.2,0-27.5-12.3-27.5-27.5v-49c0-15.2,12.3-27.5,27.5-27.5h1
		c15.2,0,27.5,12.3,27.5,27.5v49C379,187.7,366.7,200,351.5,200z"/>
</g>
<g id="XMLID_50_">
	<rect id="XMLID_40_" x="107" y="9" class="st0" width="162" height="56"/>
	<path id="XMLID_34_" class="st2" d="M267,11v52H109V11H267 M271,7H105v60h166V7L271,7z"/>
</g>
<path id="XMLID_54_" class="st1" d="M152,82V63V82z"/>
<path id="XMLID_55_" class="st1" d="M223,82V63V82z"/>
<line id="XMLID_69_" class="st1" x1="97" y1="102" x2="213" y2="102"/>
<line id="XMLID_65_" class="st1" x1="224" y1="102" x2="270" y2="102"/>
<g id="XMLID_4_">
	<rect id="XMLID_45_" x="171" y="244" class="st2" width="32" height="14"/>
</g>
<g id="XMLID_51_">
	<rect id="XMLID_43_" x="211" y="244" class="st2" width="32" height="14"/>
</g>
<g id="XMLID_56_">
	<rect id="XMLID_41_" x="251" y="244" class="st2" width="32" height="14"/>
</g>
<path id="XMLID_49_" class="st2" d="M190.8,25.2l2.6,5.2c0.3,0.6,0.9,1,1.5,1.1l5.7,0.8c1.6,0.2,2.3,2.3,1.1,3.4l-4.1,4
	c-0.5,0.5-0.7,1.1-0.6,1.8l1,5.7c0.3,1.6-1.4,2.9-2.9,2.1l-5.1-2.7c-0.6-0.3-1.3-0.3-1.9,0l-5.1,2.7c-1.5,0.8-3.2-0.5-2.9-2.1l1-5.7
	c0.1-0.6-0.1-1.3-0.6-1.8l-4.1-4c-1.2-1.2-0.5-3.2,1.1-3.4l5.7-0.8c0.7-0.1,1.2-0.5,1.5-1.1l2.6-5.2
	C187.9,23.7,190.1,23.7,190.8,25.2z"/>
<path id="XMLID_57_" class="st2" d="M221.7,27.9l2,4c0.2,0.5,0.7,0.8,1.2,0.8l4.4,0.6c1.3,0.2,1.8,1.7,0.9,2.6l-3.2,3.1
	c-0.4,0.4-0.5,0.9-0.4,1.4l0.8,4.4c0.2,1.3-1.1,2.2-2.2,1.6l-4-2.1c-0.5-0.2-1-0.2-1.4,0l-4,2.1c-1.1,0.6-2.5-0.4-2.2-1.6l0.8-4.4
	c0.1-0.5-0.1-1-0.4-1.4l-3.2-3.1c-0.9-0.9-0.4-2.5,0.9-2.6l4.4-0.6c0.5-0.1,0.9-0.4,1.2-0.8l2-4C219.5,26.7,221.1,26.7,221.7,27.9z"
	/>
<path id="XMLID_63_" class="st2" d="M158.7,27.9l2,4c0.2,0.5,0.7,0.8,1.2,0.8l4.4,0.6c1.3,0.2,1.8,1.7,0.9,2.6l-3.2,3.1
	c-0.4,0.4-0.5,0.9-0.4,1.4l0.8,4.4c0.2,1.3-1.1,2.2-2.2,1.6l-4-2.1c-0.5-0.2-1-0.2-1.4,0l-4,2.1c-1.1,0.6-2.5-0.4-2.2-1.6l0.8-4.4
	c0.1-0.5-0.1-1-0.4-1.4l-3.2-3.1c-0.9-0.9-0.4-2.5,0.9-2.6l4.4-0.6c0.5-0.1,0.9-0.4,1.2-0.8l2-4C156.5,26.7,158.1,26.7,158.7,27.9z"
	/>
</svg>
