<?xml version="1.0" encoding="utf-8"?>
<!-- Generator: Adobe Illustrator 19.0.0, SVG Export Plug-In . SVG Version: 6.00 Build 0)  -->
<svg version="1.1" id="Layer_1_copy_9" xmlns="http://www.w3.org/2000/svg" xmlns:xlink="http://www.w3.org/1999/xlink" x="0px"
	 y="0px" viewBox="0 0 168 136" style="enable-background:new 0 0 168 136;" xml:space="preserve">
<style type="text/css">
	.st0{fill:#FFFFFF;}
	.st1{fill:#E31E24;}
</style>
<g id="XMLID_337_">
	<g id="XMLID_312_">
		<path id="XMLID_50_" class="st0" d="M49,67V26c0-2.2,1.8-4,4-4h24v45H49z"/>
		<path id="XMLID_47_" class="st1" d="M75,24v41H51V26c0-1.1,0.9-2,2-2H75 M79,20H53c-3.3,0-6,2.7-6,6v43h32V20L79,20z"/>
	</g>
	<g id="XMLID_340_">
		<path id="XMLID_45_" class="st0" d="M77,67V22h3c2.2,0,4,1.8,4,4v41H77z"/>
		<path id="XMLID_42_" class="st1" d="M80,24c1.1,0,2,0.9,2,2v39h-3V24H80 M80,20h-5v49h11V26C86,22.7,83.3,20,80,20L80,20z"/>
	</g>
	<g id="XMLID_338_">
		<path id="XMLID_40_" class="st0" d="M31,134c-5.5,0-10-4.5-10-10V47.5c0.9,1.1,2.3,2.5,4.7,2.5c2.6,0,4-1.6,4.9-2.7
			c0.8-1,1.1-1.3,1.8-1.3c0.7,0,1,0.3,1.8,1.3c0.9,1.1,2.3,2.7,4.9,2.7c2.6,0,4-1.6,4.9-2.7c0.8-1,1.1-1.3,1.8-1.3
			c0.7,0,1,0.3,1.8,1.3c0.9,1.1,2.3,2.7,4.9,2.7c2.6,0,4-1.6,4.9-2.7c0.8-1,1.1-1.3,1.8-1.3c0.7,0,1,0.3,1.8,1.3
			c0.9,1.1,2.3,2.7,4.9,2.7s4-1.6,4.9-2.7c0.8-1,1.1-1.3,1.8-1.3c0.7,0,1,0.3,1.8,1.3c0.9,1.1,2.3,2.7,4.9,2.7c2.6,0,4-1.6,4.9-2.7
			c0.8-1,1.1-1.3,1.8-1.3c0.7,0,1,0.3,1.8,1.3c0.6,0.8,1.5,1.8,2.9,2.3V124c0,5.5-4.5,10-10,10H31z"/>
		<path id="XMLID_37_" class="st1" d="M32.5,48.2c0.1,0.1,0.2,0.2,0.3,0.4c1,1.2,2.9,3.4,6.4,3.4c3.5,0,5.4-2.2,6.4-3.4
			c0.1-0.1,0.2-0.2,0.3-0.4c0.1,0.1,0.2,0.2,0.3,0.4c1,1.2,2.9,3.4,6.4,3.4c3.5,0,5.4-2.2,6.4-3.4c0.1-0.1,0.2-0.2,0.3-0.4
			c0.1,0.1,0.2,0.2,0.3,0.4c1,1.2,2.9,3.4,6.4,3.4c3.5,0,5.4-2.2,6.4-3.4c0.1-0.1,0.2-0.2,0.3-0.4c0.1,0.1,0.2,0.2,0.3,0.4
			c1,1.2,2.9,3.4,6.4,3.4c3.5,0,5.4-2.2,6.4-3.4c0.1-0.1,0.2-0.2,0.3-0.4c0.1,0.1,0.2,0.2,0.3,0.4c0.5,0.6,1.3,1.5,2.4,2.3V124
			c0,4.4-3.6,8-8,8H31c-4.4,0-8-3.6-8-8V51.5c0.8,0.3,1.7,0.5,2.7,0.5c3.5,0,5.4-2.2,6.4-3.4C32.3,48.5,32.4,48.3,32.5,48.2
			 M86.3,44c-3.4,0-3.4,4-6.7,4c-3.4,0-3.4-4-6.7-4c-3.4,0-3.4,4-6.7,4c-3.4,0-3.4-4-6.7-4c-3.4,0-3.4,4-6.7,4c-3.4,0-3.4-4-6.7-4
			c-3.4,0-3.4,4-6.7,4c-3.4,0-3.4-4-6.7-4c-3.4,0-3.4,4-6.7,4c-3.4,0-3.4-4-6.7-4v80c0,6.6,5.4,12,12,12h50c6.6,0,12-5.4,12-12V48
			C89.6,48,89.6,44,86.3,44L86.3,44z"/>
	</g>
	<rect id="XMLID_341_" x="19" y="93" class="st1" width="74" height="16"/>
</g>
<g id="XMLID_344_">
	<g id="XMLID_372_">
		<path id="XMLID_35_" class="st0" d="M92,134c-5.5,0-10-4.5-10-10v-13.5l4-7V85.5l-4-7V47.8c0-3.6,1.9-6.9,5-8.7l12.2-7v-7.9
			c0.2,0,0.4,0,0.6,0c1,0,2.1,0,3.3,0l2.5-0.1l2.5,0.1c1.1,0,2.3,0,3.3,0c0.2,0,0.4,0,0.6,0v7.9l12.2,7c3.1,1.8,5,5.1,5,8.7v30.7
			l-4,7v18.1l4,7V124c0,5.5-4.5,10-10,10H92z"/>
		<path id="XMLID_32_" class="st1" d="M105.5,26.1c0.7,0,1.6,0,2.4,0.1c0.7,0,1.3,0,1.9,0v4.7v2.3l2,1.2l11.2,6.5
			c2.5,1.4,4,4.1,4,6.9v30.2l-3.5,6.1l-0.5,0.9V86v17v1.1l0.5,0.9l3.5,6.1V124c0,4.4-3.6,8-8,8H92c-4.4,0-8-3.6-8-8v-12.9l3.5-6.1
			l0.5-0.9V103V86v-1.1L87.5,84L84,77.9V47.8c0-2.9,1.5-5.5,4-6.9l11.2-6.5l2-1.2v-2.3v-4.7c0.6,0,1.2,0,1.9,0
			C103.9,26.1,104.8,26.1,105.5,26.1 M113.8,22c-0.1,0.1-1.2,0.1-2.6,0.1c-1,0-2.1,0-3.2,0c-0.9,0-1.7,0-2.5-0.1
			c-0.8,0-1.6,0-2.5,0.1c-1.1,0-2.3,0-3.2,0c-1.4,0-2.4,0-2.6-0.1v8.9L86,37.4c-3.7,2.1-6,6.1-6,10.4V79l4,7v17l-4,7v14
			c0,6.6,5.4,12,12,12h27c6.6,0,12-5.4,12-12v-14l-4-7V86l4-7V47.8c0-4.3-2.3-8.3-6-10.4l-11.2-6.4V22L113.8,22z"/>
	</g>
	<g id="XMLID_369_">
		<path id="XMLID_27_" class="st0" d="M108,22v0.1c-0.9,0-1.7,0-2.5-0.1C107,22,108,22,108,22z"/>
		<path id="XMLID_26_" class="st1" d="M108,22c0,0-1,0-2.5,0.1c0.8,0,1.6,0,2.5,0.1V22L108,22z"/>
	</g>
	<g id="XMLID_359_">
		<path id="XMLID_24_" class="st0" d="M103,22c0,0,1,0,2.5,0.1c-0.8,0-1.6,0-2.5,0.1V22z"/>
		<path id="XMLID_23_" class="st1" d="M103,22v0.1c0.9,0,1.7,0,2.5-0.1C104,22,103,22,103,22L103,22z"/>
	</g>
	<path id="XMLID_342_" class="st1" d="M113,24H98c-1.7,0-3-1.3-3-3v-7c0-1.7,1.3-3,3-3h15c1.7,0,3,1.3,3,3v7
		C116,22.7,114.7,24,113,24z"/>
	<path id="XMLID_343_" class="st1" d="M84,85h43v18H84C84,103,84,84.5,84,85z"/>
</g>
</svg>
