<?xml version="1.0" encoding="utf-8"?>
<!-- Generator: Adobe Illustrator 19.0.0, SVG Export Plug-In . SVG Version: 6.00 Build 0)  -->
<svg version="1.1" id="Layer_1_copy_6" xmlns="http://www.w3.org/2000/svg" xmlns:xlink="http://www.w3.org/1999/xlink" x="0px"
	 y="0px" viewBox="0 0 168 136" style="enable-background:new 0 0 168 136;" xml:space="preserve">
<style type="text/css">
	.st0{fill:#FFFFFF;}
	.st1{fill:#E31E24;}
	.st2{fill:#FFFFFF;stroke:#E31E24;stroke-width:4;stroke-miterlimit:10;}
	.st3{fill:none;stroke:#E31E24;stroke-width:4;stroke-miterlimit:10;}
</style>
<g id="XMLID_245_">
	<path id="XMLID_52_" class="st0" d="M14,111c-2.2,0-4-1.8-4-4V89h152c2.2,0,4,1.8,4,4v14c0,2.2-1.8,4-4,4H14z"/>
	<path id="XMLID_49_" class="st1" d="M162,91c1.1,0,2,0.9,2,2v14c0,1.1-0.9,2-2,2H14c-1.1,0-2-0.9-2-2V91H162 M162,87H8v20
		c0,3.3,2.7,6,6,6h148c3.3,0,6-2.7,6-6V93C168,89.7,165.3,87,162,87L162,87z"/>
</g>
<g id="XMLID_249_">
	<circle id="XMLID_48_" class="st1" cx="40" cy="112" r="20"/>
</g>
<g id="XMLID_274_">
	<circle id="XMLID_46_" class="st0" cx="40" cy="112" r="7"/>
</g>
<g id="XMLID_259_">
	<circle id="XMLID_44_" class="st1" cx="135" cy="112" r="20"/>
</g>
<g id="XMLID_250_">
	<path id="XMLID_41_" class="st0" d="M6,89c-2.2,0-4-1.8-4-4V11c0-2.2,1.8-4,4-4h102c2.2,0,4,1.8,4,4v78H6z"/>
	<path id="XMLID_38_" class="st1" d="M108,9c1.1,0,2,0.9,2,2v76H6c-1.1,0-2-0.9-2-2V11c0-1.1,0.9-2,2-2H108 M108,5H6
		c-3.3,0-6,2.7-6,6v74c0,3.3,2.7,6,6,6h108V11C114,7.7,111.3,5,108,5L108,5z"/>
</g>
<g id="XMLID_261_">
	<path id="XMLID_36_" class="st0" d="M112,89V23h22c0.3,0,0.6,0.1,0.8,0.4l23,30.5c0.1,0.2,0.2,0.4,0.2,0.6V89H112z"/>
	<path id="XMLID_32_" class="st1" d="M133.5,25L156,54.8V87h-42V25H133.5 M134,21h-24v70h50V54.5c0-0.7-0.2-1.3-0.6-1.8l-23-30.5
		C135.8,21.4,134.9,21,134,21L134,21z"/>
</g>
<line id="XMLID_262_" class="st2" x1="159" y1="55" x2="112" y2="55"/>
<line id="XMLID_264_" class="st2" x1="134" y1="23" x2="134" y2="56"/>
<path id="XMLID_286_" class="st3" d="M68,23h-5.5c-1.4,0-2.5,1.2-2.5,2.6V37"/>
<g id="XMLID_275_">
	<polygon id="XMLID_30_" class="st0" points="51.9,69 50,40.7 51.6,35 68.4,35 70,40.7 68.1,69 	"/>
	<path id="XMLID_26_" class="st1" d="M66.9,37l1.1,3.9L66.2,67H53.8L52,40.9l1.1-3.9H66.9 M69.9,33H50.1L48,40.5L50.1,71h19.9
		L72,40.5L69.9,33L69.9,33z"/>
</g>
<polygon id="XMLID_273_" class="st1" points="50,51 50.3,61 69.3,61 70,51 "/>
<g id="XMLID_287_">
	<circle id="XMLID_33_" class="st0" cx="135" cy="112" r="7"/>
</g>
</svg>
