<?xml version="1.0" encoding="utf-8"?>
<!-- Generator: Adobe Illustrator 19.0.0, SVG Export Plug-In . SVG Version: 6.00 Build 0)  -->
<svg version="1.1" id="Layer_1_copy_8" xmlns="http://www.w3.org/2000/svg" xmlns:xlink="http://www.w3.org/1999/xlink" x="0px"
	 y="0px" viewBox="0 0 168 136" style="enable-background:new 0 0 168 136;" xml:space="preserve">
<style type="text/css">
	.st0{fill:#FFFFFF;stroke:#E31E24;stroke-width:4;stroke-miterlimit:10;}
	.st1{fill:#E31E24;}
	.st2{fill:none;stroke:#E31E24;stroke-width:4;stroke-miterlimit:10;}
</style>
<path id="XMLID_290_" class="st0" d="M115,64H53c-1.7,0-3-1.3-3-3v0c0-1.7,1.3-3,3-3h62c1.7,0,3,1.3,3,3v0C118,62.7,116.7,64,115,64
	z"/>
<rect id="XMLID_292_" x="81" y="62.5" class="st1" width="6" height="74"/>
<line id="XMLID_309_" class="st2" x1="18" y1="36" x2="18" y2="136"/>
<polyline id="XMLID_308_" class="st2" points="18,90 59,90 59,136 "/>
<rect id="XMLID_311_" x="16" y="88" class="st1" width="45" height="12"/>
<line id="XMLID_327_" class="st2" x1="150" y1="36" x2="150" y2="136"/>
<polyline id="XMLID_317_" class="st2" points="150,90 109,90 109,136 "/>
<rect id="XMLID_314_" x="107" y="88" class="st1" width="45" height="12"/>
<line id="XMLID_328_" class="st2" x1="84" y1="58" x2="84" y2="19"/>
<path id="XMLID_329_" class="st2" d="M113.8,20H54.2c-2.7,0-4-3.2-2.1-5.1l0,0c17.6-17.6,46.2-17.6,63.8,0l0,0
	C117.8,16.8,116.4,20,113.8,20z"/>
</svg>
