<?xml version="1.0" encoding="utf-8"?>
<!-- Generator: Adobe Illustrator 19.0.0, SVG Export Plug-In . SVG Version: 6.00 Build 0)  -->
<svg version="1.1" id="Layer_2_copy_2" xmlns="http://www.w3.org/2000/svg" xmlns:xlink="http://www.w3.org/1999/xlink" x="0px"
	 y="0px" viewBox="0 0 210 138" style="enable-background:new 0 0 210 138;" xml:space="preserve">
<style type="text/css">
	.st0{fill:#E31E24;}
	.st1{fill:#FFFFFF;stroke:#E31E24;stroke-width:4;stroke-miterlimit:10;}
	.st2{fill:#FFFFFF;}
	.st3{fill:none;stroke:#E31E24;stroke-width:4;stroke-miterlimit:10;}
</style>
<g id="XMLID_1002_">
	<g id="XMLID_41_">
		<path id="XMLID_42_" class="st0" d="M151.6,4c1.1,0,2,0.9,2,2v126c0,1.1-0.9,2-2,2h-78c-1.1,0-2-0.9-2-2V6c0-1.1,0.9-2,2-2H151.6
			 M151.6,0h-78c-3.3,0-6,2.7-6,6v126c0,3.3,2.7,6,6,6h78c3.3,0,6-2.7,6-6V6C157.6,2.7,154.9,0,151.6,0L151.6,0z"/>
	</g>
</g>
<line id="XMLID_1001_" class="st1" x1="126.8" y1="13.2" x2="142.6" y2="13.2"/>
<line id="XMLID_1000_" class="st1" x1="106.8" y1="63.2" x2="142.6" y2="63.2"/>
<line id="XMLID_999_" class="st1" x1="116.8" y1="73.2" x2="142.6" y2="73.2"/>
<line id="XMLID_998_" class="st1" x1="106.8" y1="94.2" x2="142.6" y2="94.2"/>
<line id="XMLID_997_" class="st1" x1="106.8" y1="104.2" x2="142.6" y2="104.2"/>
<line id="XMLID_996_" class="st1" x1="116.8" y1="115.2" x2="142.6" y2="115.2"/>
<g id="XMLID_990_">
	<rect id="XMLID_34_" x="83.3" y="28.2" class="st2" width="57.4" height="19.4"/>
	<path id="XMLID_31_" class="st0" d="M138.7,30.2v15.4H85.3V30.2H138.7 M142.7,26.2H81.3v23.4h61.4V26.2L142.7,26.2z"/>
</g>
<g id="XMLID_973_">
	<path id="XMLID_29_" class="st2" d="M26,136c-2.2,0-4-1.8-4-4V53.5c0-2.2,1.8-4,4-4h48.7c2.2,0,4,1.8,4,4V132c0,2.2-1.8,4-4,4H26z"
		/>
	<path id="XMLID_26_" class="st0" d="M74.8,51.5c1.1,0,2,0.9,2,2V132c0,1.1-0.9,2-2,2H26c-1.1,0-2-0.9-2-2V53.5c0-1.1,0.9-2,2-2
		H74.8 M74.8,47.5H26c-3.3,0-6,2.7-6,6V132c0,3.3,2.7,6,6,6h48.7c3.3,0,6-2.7,6-6V53.5C80.8,50.2,78.1,47.5,74.8,47.5L74.8,47.5z"/>
</g>
<line id="XMLID_972_" class="st3" x1="20" y1="89.8" x2="80.8" y2="89.8"/>
<rect id="XMLID_959_" x="30" y="99.3" class="st0" width="11.8" height="11.8"/>
<rect id="XMLID_946_" x="47" y="99.3" class="st0" width="11.8" height="11.8"/>
<rect id="XMLID_943_" x="64" y="99.3" class="st0" width="7" height="17"/>
<rect id="XMLID_941_" x="64" y="121" class="st0" width="7" height="7.1"/>
<rect id="XMLID_913_" x="30" y="116.3" class="st0" width="11.8" height="11.8"/>
<rect id="XMLID_912_" x="47" y="116.3" class="st0" width="11.8" height="11.8"/>
<line id="XMLID_907_" class="st1" x1="29.8" y1="59.2" x2="65.6" y2="59.2"/>
<line id="XMLID_893_" class="st1" x1="29.8" y1="69.2" x2="55.6" y2="69.2"/>
</svg>
