<?xml version="1.0" encoding="utf-8"?>
<!-- Generator: Adobe Illustrator 19.0.0, SVG Export Plug-In . SVG Version: 6.00 Build 0)  -->
<svg version="1.1" id="Layer_5" xmlns="http://www.w3.org/2000/svg" xmlns:xlink="http://www.w3.org/1999/xlink" x="0px" y="0px"
	 viewBox="0 0 168 136" style="enable-background:new 0 0 168 136;" xml:space="preserve">
<style type="text/css">
	.st0{fill:#FFFFFF;}
	.st1{fill:#E31E24;}
</style>
<g id="XMLID_100_">
	<path id="XMLID_41_" class="st0" d="M119.1,133c-2,0-4.1-1.5-4.1-4v-8c0-2.1-0.8-4.2-2.4-5.7c-1.4-1.5-3.4-2.3-5.4-2.3l-0.2,0
		c-4.3,0-8,3.8-8,8.3v7.8c0,2.5-2.1,4-4.1,4c-0.7,0-1.8-0.2-2.7-1.2c-4-4-6.2-9.3-6.2-14.9c0-8,4.7-15.4,11.9-18.9l1.1-0.5v-59
		L97.9,38C90.7,34.5,86,27.1,86,19.1c0-5.6,2.2-10.9,6.2-14.9c1-1,2-1.2,2.7-1.2c2,0,4.1,1.5,4.1,4v7.8c0,4.5,3.7,8.3,8,8.3l0.2,0
		c2.1-0.1,4-0.9,5.5-2.3c1.5-1.5,2.3-3.5,2.3-5.6V7c0-2.5,2.1-4,4.1-4c0.7,0,1.8,0.2,2.7,1.2c4,4,6.2,9.3,6.2,14.9
		c0,8-4.7,15.4-11.9,18.9l-1.1,0.5v59l1.1,0.5c7.2,3.5,11.9,10.9,11.9,18.9c0,5.6-2.2,10.9-6.2,14.9
		C120.8,132.8,119.8,133,119.1,133z"/>
	<path id="XMLID_38_" class="st1" d="M94.9,5C95.8,5,97,5.6,97,7v7.8c0,5.7,4.5,10.3,10,10.3c0.1,0,0.2,0,0.2,0
		c2.6-0.1,5-1.1,6.8-2.9c1.9-1.9,2.9-4.4,2.9-7.1V7c0-1.4,1.2-2,2.1-2c0.5,0,0.9,0.2,1.3,0.6C124,9.2,126,14,126,19.1
		c0,7.2-4.2,14-10.7,17.1l-2.3,1.1v2.5v56.5v2.5l2.3,1.1c6.5,3.1,10.7,9.9,10.7,17.1c0,5.1-2,9.9-5.6,13.5c-0.4,0.4-0.8,0.6-1.3,0.6
		c-0.9,0-2.1-0.6-2.1-2v-8c0-2.7-1-5.2-2.9-7.1c-1.8-1.8-4.2-2.9-6.8-2.9c-0.1,0-0.2,0-0.2,0c-2.7,0-5.2,1.1-7.2,3.1
		c-1.8,1.9-2.9,4.5-2.9,7.1v7.8c0,1.4-1.2,2-2.1,2c-0.5,0-0.9-0.2-1.3-0.6C90,126.8,88,122,88,116.9c0-7.2,4.2-14,10.7-17.1l2.3-1.1
		v-2.5V39.8v-2.5l-2.3-1.1C92.2,33,88,26.3,88,19.1c0-5.1,2-9.9,5.6-13.5C94,5.2,94.4,5,94.9,5 M119.1,1C116,1,113,3.4,113,7v8
		c0,1.7-0.7,3.2-1.8,4.2c-1,1.1-2.5,1.7-4.1,1.8c0,0-0.1,0-0.1,0c-3.3,0-6-2.9-6-6.3V7c0-3.6-3-6-6.1-6c-1.5,0-2.9,0.5-4.2,1.7
		C86.6,6.9,84,12.7,84,19.1c0,9.1,5.3,17,13,20.7v56.5c-7.7,3.7-13,11.6-13,20.7c0,6.4,2.6,12.1,6.8,16.3c1.2,1.2,2.7,1.7,4.2,1.7
		c3.1,0,6.1-2.4,6.1-6v-7.8c0-3.3,2.7-6.3,6-6.3c0,0,0.1,0,0.1,0c1.6,0,3,0.7,4.1,1.8c1.1,1.1,1.8,2.6,1.8,4.2v8c0,3.6,3,6,6.1,6
		c1.5,0,2.9-0.5,4.2-1.7c4.2-4.2,6.8-9.9,6.8-16.3c0-9.1-5.3-17-13-20.7V39.8c7.7-3.7,13-11.6,13-20.7c0-6.4-2.6-12.1-6.8-16.3
		C122,1.5,120.5,1,119.1,1L119.1,1z"/>
</g>
<g id="XMLID_97_">
	<polygon id="XMLID_36_" class="st0" points="49,80 49,23 43.4,23 46.7,3 57.3,3 60.6,23 55,23 55,80 	"/>
	<path id="XMLID_33_" class="st1" d="M55.6,5l2.7,16H57h-4v4v53h-2V25v-4h-4h-1.3l2.7-16H55.6 M59,1H45l-4,24h6v57h10V25h6L59,1
		L59,1z"/>
</g>
<g id="XMLID_56_">
	<path id="XMLID_31_" class="st0" d="M52.5,133c-5.2,0-9.5-4.3-9.5-9.5V88h19v35.5C62,128.7,57.7,133,52.5,133z"/>
	<path id="XMLID_28_" class="st1" d="M60,90v33.5c0,4.1-3.4,7.5-7.5,7.5c-4.1,0-7.5-3.4-7.5-7.5V90H60 M64,86H41v37.5
		c0,6.4,5.1,11.5,11.5,11.5h0c6.4,0,11.5-5.1,11.5-11.5V86L64,86z"/>
</g>
<g id="XMLID_58_">
	<rect id="XMLID_27_" x="45" y="78" class="st1" width="14" height="12"/>
</g>
</svg>
