<?xml version="1.0" encoding="utf-8"?>
<!-- Generator: Adobe Illustrator 19.0.0, SVG Export Plug-In . SVG Version: 6.00 Build 0)  -->
<svg version="1.1" id="purchases" xmlns="http://www.w3.org/2000/svg" xmlns:xlink="http://www.w3.org/1999/xlink" x="0px" y="0px"
	 viewBox="0 0 800 450" style="enable-background:new 0 0 800 450;" xml:space="preserve">
<style type="text/css">
	.st0{opacity:0.1;}
	.st1{fill:#8FC977;}
	.st2{fill:#7DB762;}
	.st3{fill:#A0E082;}
	.st4{fill:#330B00;}
	.st5{fill:#FFAC73;}
	.st6{fill:#001960;}
	.st7{fill:#001C7C;}
	.st8{fill:#B70400;}
	.st9{fill:#F93D31;}
	.st10{opacity:0.54;fill:#820000;}
	.st11{fill:#E3784E;}
	.st12{fill:#FFFFFF;}
	.st13{fill:url(#SVGID_1_);}
	.st14{fill:#590800;}
	.st15{fill:url(#SVGID_2_);}
	.st16{opacity:0.5;fill:#FFFFFF;}
	.st17{fill:url(#SVGID_3_);}
	.st18{fill:url(#SVGID_4_);}
	.st19{opacity:0.2;fill:#FFF594;}
	.st20{fill:#B0CBFF;}
	.st21{fill:url(#SVGID_5_);}
	.st22{fill:#469740;}
	.st23{opacity:0.43;fill:#B70400;}
	.st24{opacity:0.28;fill:#FFF594;}
	.st25{fill:#007975;}
	.st26{fill:#00605B;}
	.st27{fill:#009991;}
	.st28{fill:url(#SVGID_6_);}
	.st29{fill:#5B1800;}
	.st30{fill:#471100;}
	.st31{fill:#EFC16F;}
	.st32{fill:url(#SVGID_7_);}
	.st33{fill:url(#SVGID_8_);}
	.st34{fill:#FCCBA9;}
	.st35{fill:#7C250A;}
	.st36{fill:#8B011B;}
	.st37{fill:#FFBF59;}
	.st38{fill:url(#SVGID_9_);}
	.st39{fill:url(#SVGID_10_);}
	.st40{fill:url(#SVGID_11_);}
	.st41{fill:#FF944A;}
	.st42{fill:url(#SVGID_12_);}
	.st43{fill:#009579;}
	.st44{fill:url(#SVGID_13_);}
	.st45{fill:#FFF594;}
	.st46{fill:url(#SVGID_14_);}
	.st47{fill:url(#SVGID_15_);}
	.st48{fill:url(#SVGID_16_);}
	.st49{fill:url(#SVGID_17_);}
	.st50{fill:url(#SVGID_18_);}
	.st51{fill:#680019;}
	.st52{fill:url(#SVGID_19_);}
	.st53{opacity:0.14;fill:#FFF594;}
	.st54{fill:url(#SVGID_20_);}
	.st55{fill:#88E0FF;}
	.st56{fill:#299ECE;}
	.st57{fill:url(#SVGID_21_);}
	.st58{fill:url(#SVGID_22_);}
	.st59{fill:#B1EF95;}
	.st60{fill:#2A5C76;}
	.st61{fill:#FF4E4A;}
	.st62{fill:#7A1B53;}
	.st63{fill:#6D0648;}
	.st64{fill:url(#SVGID_23_);}
	.st65{fill:url(#SVGID_24_);}
	.st66{fill:#FF6A66;}
	.st67{opacity:0.22;fill:#820000;}
	.st68{fill:url(#SVGID_25_);}
	.st69{fill:#38F4E4;}
	.st70{fill:#38BDE4;}
	.st71{fill:url(#SVGID_26_);}
	.st72{fill:#668D12;}
	.st73{fill:#FD9533;}
	.st74{fill:#9BAE05;}
	.st75{fill:#54B9EC;}
	.st76{fill:#FFAD36;}
	.st77{fill:#FFE1AC;}
	.st78{opacity:0.15;fill:#8B011B;}
</style>
<g>
	<path class="st0" d="M800,376.1v3.6c-24.6,3.4-115.9,5.8-224.9,5.8c-127.8,0-231.4-3.4-231.4-7.7c0-4.2,103.6-7.7,231.4-7.7
		C684.1,370.3,775.4,372.8,800,376.1z"/>
	<g>
		<ellipse class="st0" cx="261.4" cy="392.3" rx="145.5" ry="9.2"/>
		<ellipse class="st0" cx="111.9" cy="409.2" rx="76.6" ry="5"/>
		<ellipse class="st0" cx="274.8" cy="414.1" rx="50.8" ry="5"/>
		<g>
			<g>
				<path class="st1" d="M166.1,283.7l22.3,0.8c0,0-1.1-3.6-4.4-6.2h0c-1.9-1.4-4.4-2.5-7.9-2.5c-5.2,0-7.8,3.4-9,5.8l0,0
					C166.4,282.7,166.1,283.7,166.1,283.7z"/>
				<path class="st2" d="M166.1,283.7l22.3,0.8c0,0-1.1-3.6-4.4-6.2h0c0,0-3.4,3-8.5,3.6c-5.1,0.6-8.5-0.4-8.5-0.4l0,0
					C166.4,282.7,166.1,283.7,166.1,283.7z"/>
				<path class="st3" d="M173.5,283.8c0,0,2.8-3.1,3.8-4.2c1-1.1,0-1.3-0.2-1.9c-0.2-0.6,0.9-1.4,0.5-1.5s-2.8,0.8-3.3,0.5
					s-0.7-1.1-1.3-1c-0.6,0.1-3.1,0.8-4.2,1.8c-1.1,1-1.5,3.6-1.5,3.6l5.1,2.9L173.5,283.8z"/>
				<path class="st3" d="M185.3,279.4c0,0-1.9-0.2-3.4,0.7c-1.5,0.9-1,2.4-1.8,2.6c-0.7,0.3-1.6,1.3-1.6,1.3l9.9,0.4
					C188.4,284.4,187.3,281,185.3,279.4z"/>
			</g>
			<polygon class="st4" points="186.2,284.7 190.8,260.8 155.2,259.8 157,284.7 157.8,284.7 157.8,261.8 186.9,263.2 185.6,284.7 
							"/>
			<path class="st5" d="M210.9,372.5c0,0-0.9,4.5-1.7,6.4c-0.8,2-1.5,3.3-1.4,4.3c0.1,1,2.8,1.2,5.9,3.1c3.1,1.9,8.8,2.2,10.7,2.1
				s-12.4-8-12.5-9.1c-0.1-1.1,2.2-6.4,2.2-6.4L210.9,372.5z"/>
			<path class="st6" d="M208.7,380.2c0,0,5.2,4.1,8,4.8c2.8,0.8,3.8,0.4,3.8,0.4s5,1.8,5.2,2.5c0.2,0.7-0.2,1.3-0.8,1.5
				s-6.1,0.3-9.2-0.9c-3-1.2-8.6-3.8-8.6-4.8C207.1,382.7,208.7,380.2,208.7,380.2z"/>
			<polygon class="st5" points="217.1,379.5 220.1,387.9 222.5,387.9 221.6,379.5 			"/>
			<path class="st5" d="M222.5,387.9c0,0,3.8,3.3,6.5,5.3c2.6,2,10.8,2.7,10.6,3.7c-0.2,1-4.8,3.6-9.9,2.4c-5.1-1.3-9.7-3.7-9.9-4.8
				c-0.2-1.1,0.3-6.6,0.3-6.6H222.5z"/>
			<path class="st7" d="M219.8,390.9c0,0,6,5.3,9.3,6c3.3,0.7,5.7-1.6,5.7-1.6s5.1,0.5,4.9,1.6c-0.2,1.1-3.4,3.6-8.6,3.1
				c-5.2-0.5-10.7-4.1-11.3-5.2C219.1,393.6,219.8,390.9,219.8,390.9z"/>
			<path class="st8" d="M194.1,236.3C194.1,236.3,194.1,236.3,194.1,236.3l7.5,22.3l2.3,6.8l3.2,85.6l0.8,20.6l6.1,3.7
				c0,0,6-23.1,11.6-47.3v0c3.2-13.6,6.2-27.5,8-37.9c2.6-15.2,3.9-27.3,4.6-35.4c0.6-7.4,0.7-11.4,0.7-11.4L194.1,236.3z"/>
			<path class="st9" d="M194.4,260.6c0.5,3.2,1.1,6.8,2,10.6c3.7,15.8,7.1,33,8.1,43.5c1,10.4-0.3,22.8,2.6,36.5c0,0,0,0.1,0,0.1
				c1.8,8.3,4.8,17.9,6.9,24.2c1.4,4.2,2.4,7,2.4,7h7.3c0,0,0.6-8.9,1.2-20.8c0.5-10.3,0.9-22.9,0.8-33.5v0c0-4.8-0.2-9.3-0.5-12.9
				c-0.9-11.3-1.5-26-2.6-38.5c-0.5-5.3-1-10.2-1.7-14.2c-0.7-4.1-1.6-7.3-2.7-9.2c-4.8-8.2-23.4-16.8-23.9-17c0,0,0,0,0,0
				s-0.1,0.3-0.2,1C193.5,240,192.6,248.1,194.4,260.6z"/>
			<path class="st10" d="M194.4,260.6c0,0,2.7-1.4,7.2-1.9c1.9-0.2,4.2-0.2,6.8,0.1c8.5,1.1,12.4,3.8,12.4,3.8s1.5-2.9,5.9-5
				c4.4-2.2,11.5-2.6,11.5-2.6l0,0c0.6-7.4,0.7-11.4,0.7-11.4l-44.8-7.1C194.1,236.3,192.2,245.2,194.4,260.6z"/>
			<path class="st4" d="M189.2,145.4c0,0,13.9-3,23.1-3.8c9.2-0.8,13.8,2,23.3-0.8c9.4-2.8,11.9-12.9,5.6-28.3
				c-6.3-15.4-5.7-26.5-5.7-26.5s-2.8-7.6-10.5-10.1c-7.7-2.5-32.8-1.3-32.8-1.3l-14.8,31.9l-1,24.7L189.2,145.4z"/>
			<path class="st11" d="M211.9,128.3c0,0,0.6,4.4,0.3,6.9c-0.2,2.5-1,5.1-1,5.1s1.1,1.2,3.9,1c2.7-0.2,2.8-1.4,2.8-1.4
				s-0.6-1.1-1.1-4c-0.5-2.9-0.1-5.1-0.1-5.1L211.9,128.3z"/>
			<path class="st5" d="M175.9,100c1.7,6.3,16.2,25.5,21.5,27.5c5.3,2,18.7,5,27,2.7c3.4-0.9,6-2.8,8-4.8c3-3,4.5-6.6,4.8-8.7
				c0.5-3.5-1.7-7.5-5.3-12.6c-3.7-5.1-3.8-10.2-5.3-18.1c0-0.2-0.1-0.5-0.1-0.7c0,0,0,0,0,0c-1.7-7.9-8.5-19.2-31.2-13.6
				C181.2,75.2,174.2,93.7,175.9,100z"/>
			<path class="st11" d="M175.9,100c1.7,6.3,16.2,25.5,21.5,27.5c5.3,2,18.7,5,27,2.7c3.4-0.9,6-2.8,8-4.8v0c0,0-11.2,7.7-24.5,1
				c-13.3-6.7-17.1-26.9-15.7-34c1.3-7.2,17.1-12.6,24.3-12.3c6.9,0.3,9.8,4.9,10,5.2c-1.7-7.9-8.5-19.2-31.2-13.6
				C181.2,75.2,174.2,93.7,175.9,100z"/>
			<g>
				<path class="st11" d="M211.8,111.4c0,0-5.6,3-11.9-1.2c-4.4-3-4.3-9.7-4.3-9.7s1.7,7.7,6.6,9.7c4.9,2.1,9.4,0.7,9.4,0.7
					L211.8,111.4z"/>
				<path class="st12" d="M200.3,109.1c0.9,0.8,2.7,1.8,3.8,2.1c4.9,1.3,7.5-0.4,7.5-0.4s-0.1-4.7-1.5-9c0,0,0,0,0,0
					c-0.6-1.9-1.4-3.8-2.6-5.2c-0.1-0.1-0.2-0.2-0.2-0.3c-3.1-3.4-8.1-4.2-10.9-0.7c-0.7,0.9-1,2.3-0.9,3.9
					C195.7,102.8,197.6,106.8,200.3,109.1z"/>
				
					<linearGradient id="SVGID_1_" gradientUnits="userSpaceOnUse" x1="582.0476" y1="326.1421" x2="589.8156" y2="326.1421" gradientTransform="matrix(-0.9268 0.3755 0.3755 0.9268 627.1268 -417.9467)">
					<stop  offset="0" style="stop-color:#A43113"/>
					<stop  offset="1" style="stop-color:#6F160D"/>
				</linearGradient>
				<path class="st13" d="M203,105.8c1.1,2.8,3.7,4.4,5.6,3.6c2-0.8,2.7-3.7,1.6-6.5c-1.1-2.8-3.7-4.4-5.6-3.6
					C202.5,100.1,201.8,103,203,105.8z"/>
				
					<ellipse transform="matrix(-0.9268 0.3755 -0.3755 -0.9268 437.3721 123.7935)" class="st14" cx="206.6" cy="104.5" rx="2.5" ry="3.5"/>
				
					<ellipse transform="matrix(-0.975 0.222 -0.222 -0.975 425.0147 163.9575)" class="st12" cx="203.3" cy="105.9" rx="3.1" ry="0.6"/>
				<path class="st12" d="M200.3,109.1c-0.4-0.6-5.9-8.8-0.3-12c5.7-3.2,10,4.7,10,4.7c0,0,0,0,0,0c-0.6-1.9-1.4-3.8-2.6-5.2
					c-2.4-1.8-5.9-2.3-8-1.8c-2.2,0.5-3.5,2.6-4.1,4.8C195.7,102.8,197.6,106.8,200.3,109.1z"/>
				<path class="st14" d="M209.9,101.1c0,0-4.2-7.5-9.8-5.5c-6.1,2.2-3.6,8.1-3.6,8.1l-6.3-1.5c0,0,3.6-0.8,4.2-2.7
					c0.7-2,1.7-6.1,6.1-6.6C207,92.3,209.9,101.1,209.9,101.1z"/>
			</g>
			<g>
				<path class="st11" d="M228.4,97c0,0,3.1,5.4,0.8,8.8c-2.1,2.9-7,1.9-7,1.9l-0.3-0.1c0,0,4.6,0.4,6.5-2.2c1.9-2.6-0.3-8-0.3-8
					L228.4,97z"/>
				<path class="st12" d="M219.1,102.3c1.2,3.3,2.8,5.2,2.8,5.2s6.7,0.8,7.2-4.2c0.1-0.8,0.1-1.7-0.1-2.5c0,0,0,0,0,0l0,0
					c0,0,0,0,0-0.1c-0.6-4.5-3.6-9.4-7.3-9.3c-2.8,0-4.7,2.9-3.5,8c0,0.1,0,0.1,0,0.2c0,0,0,0,0,0
					C218.5,100.6,218.8,101.5,219.1,102.3z"/>
				
					<linearGradient id="SVGID_2_" gradientUnits="userSpaceOnUse" x1="480.8599" y1="327.8277" x2="488.5368" y2="327.8277" gradientTransform="matrix(-0.8994 0.2279 0.2263 0.8929 586.6709 -303.3327)">
					<stop  offset="0" style="stop-color:#A43113"/>
					<stop  offset="1" style="stop-color:#6F160D"/>
				</linearGradient>
				<path class="st15" d="M221.5,100.7c0.7,2.6,2.8,4.4,4.7,3.9c1.9-0.5,2.9-3,2.2-5.7c-0.7-2.6-2.8-4.4-4.7-3.9
					C221.8,95.5,220.8,98.1,221.5,100.7z"/>
				
					<ellipse transform="matrix(-0.9694 0.2456 -0.2456 -0.9694 467.6019 141.7047)" class="st14" cx="225" cy="100" rx="2.3" ry="3.2"/>
				<path class="st12" d="M219.3,101.6c0.1,0.4,1.1,0.5,2.6,0.3c1.5-0.2,2.7-0.7,2.6-1.1c-0.1-0.4-1.3-0.5-2.8-0.2
					C220.2,100.8,219.3,101.2,219.3,101.6z"/>
				<path class="st12" d="M219.1,102.3c0,0-2.2-9,3.5-9.2c4.8-0.2,6.3,7,6.4,7.7l0,0c0,0,0,0,0-0.1c-0.6-4.5-3.6-9.4-7.3-9.3
					c-2.8,0-4.7,2.9-3.5,8c0,0.1,0,0.1,0,0.2c0,0,0,0,0,0C218.7,101,219.1,102.3,219.1,102.3z"/>
				<path class="st14" d="M218.2,99c0,0-0.7-6.4,3.6-7s6.4,5.3,6.4,5.3l3.6-4.1c0,0-3,0.8-4.3-0.4c-1.9-1.7-3.8-3.6-6-3.3
					C215.7,90.3,218.2,99,218.2,99z"/>
			</g>
			<path class="st16" d="M225,110.4c0.2-1.1-4.7-0.5-6.1,0.7C217.6,112.3,224.9,111.3,225,110.4z"/>
			<path class="st16" d="M218.1,111.4c0.6,0.4-1.6,1.6-2,1.3C215.7,112.5,217.5,111.1,218.1,111.4z"/>
			<path class="st14" d="M216.3,114.5c0,0,3.1,1.1,6.1,0.3c3-0.8,5.1-3.5,4.8-4.3c-0.6-1.4-5.3-3-5.3-3s3.8,1.8,3.9,3.4
				C225.8,112.1,220.1,115.4,216.3,114.5z"/>
			<path class="st14" d="M230.1,116.2c0,0-4.2,2.4-8.6,3.1c-5,0.8-10.8,0.7-10.8,0.7s6.5,5.3,11.2,3.9
				C226.6,122.4,230.1,116.2,230.1,116.2z"/>
			<path class="st12" d="M227.2,118.2c0,0-1.8,2.6-2.8,3.7c-1.1,1.2-3.6,1.8-5.5,1.4c-2.7-0.5-7.4-3.2-7.4-3.2
				S220.9,121.8,227.2,118.2z"/>
			<polygon class="st14" points="214.6,122 221,121.8 215.9,122.5 			"/>
			<path class="st8" d="M228,117.2c0,0-3.2,0.2-7,0.5c-3.8,0.4-8.7,2.2-8.7,2.2s3.6,0.3,9.3-0.7C227.2,118.2,228,117.2,228,117.2z"
				/>
			<path class="st9" d="M228.7,118.2c0,0-2,7.1-6.2,8.4c-4.2,1.3-10.3-5.6-10.3-5.6s5.6,3.9,9.4,2.7
				C225.4,122.6,228.7,118.2,228.7,118.2z"/>
			<path class="st14" d="M200.4,83.1c0,0-5.9,1.4-8.3,6.1c-2.4,4.7-0.9,9.1-0.9,9.1s-0.6-4.5,1.5-6.9C194.9,89,201,86.4,200.4,83.1z
				"/>
			<path class="st14" d="M214.6,80.1c0,0,3.6-0.6,8.2,2.6c3.5,2.4,3.8,6.8,3.8,6.8s-1.1-4.2-4.2-5.3
				C219.5,83.2,214.7,83.8,214.6,80.1z"/>
			
				<linearGradient id="SVGID_3_" gradientUnits="userSpaceOnUse" x1="600.9141" y1="62.7445" x2="639.5737" y2="149.5757" gradientTransform="matrix(-1 0 0 1 811.5016 0)">
				<stop  offset="0" style="stop-color:#A43113"/>
				<stop  offset="1" style="stop-color:#6F160D"/>
			</linearGradient>
			<path class="st17" d="M160.2,135.4c8,18.2,23.9,17.7,23.9,17.7l8-1.1c0,0-6.3-21.3-7.9-33.4c-1-7.4,1.2-13.6,3.8-20.1
				c0,0,0,0,0,0c0,0,0,0,0,0c2-5,4.2-10.3,5.4-16.3c0.4-2,0.6-4,0.8-6.1c0,0,11.2,1.3,22.5,2h0c1.3,0.1,2.7,0.2,4,0.2
				c12.5,0.6,14.8,7.8,14.8,7.8s0.3-9.8-11.9-16.8c-12.2-7-19.3-8.7-24.3-8.2c-3.4,0.3-6.7,3.6-8.5,5.7c-0.9,1-1.4,1.8-1.4,1.8
				c-0.1,0-12.2,0-18.3,6.7c-0.6,0.6-1.2,1.5-1.9,2.6l0,0c-2.6,4.2-5.6,11.5-7.9,19.8v0C157.7,110.3,155.9,125.4,160.2,135.4z"/>
			
				<linearGradient id="SVGID_4_" gradientUnits="userSpaceOnUse" x1="564.4319" y1="111.3065" x2="579.1396" y2="144.3404" gradientTransform="matrix(-1 0 0 1 811.5016 0)">
				<stop  offset="0" style="stop-color:#A43113"/>
				<stop  offset="1" style="stop-color:#6F160D"/>
			</linearGradient>
			<path class="st18" d="M227.3,142c0,0,9.2-0.3,12.8-9.6c3.1-7.9-0.7-24.5-0.7-24.5s9.5,17.7,5.2,29.7S227.3,142,227.3,142z"/>
			<path class="st19" d="M161.2,97.5L161.2,97.5c0,0,5.5,7.3,14.8,6.3c8.8-0.9,11.6-4.9,11.9-5.4c0,0,0,0,0,0c0,0,0,0,0,0
				c2-5,4.2-10.3,5.4-16.3c-0.4,0.1-10,2.7-16.6,0.7c-6.8-2.1-7.6-5.1-7.6-5.1l0,0C166.6,81.9,163.6,89.2,161.2,97.5z"/>
			<polygon class="st5" points="177.3,252.4 179.3,241 183,241.1 179.1,252.2 			"/>
			<path class="st20" d="M178.2,241l-0.4,5.9l3,0.4l3-6.1C183.8,241.1,180.7,240.6,178.2,241z"/>
			<path class="st5" d="M256.3,248.5c0.6,1,3.6,4.7,5.1,5.5c1.5,0.7,5.5,2.4,5.5,2.4s0.1-1-1.5-1.9c-1.6-0.9-2.9-2.2-2.9-2.2
				s2.3-0.3,4.3,0.4c2.1,0.6,3.3,1.6,3.9,1.5c0.6-0.1-1.8-2.1-3.2-2.6c-1.4-0.5-1.9-0.7-1.9-0.7s1.3,0.3,3,1.1c1.7,0.8,3,2,3.5,1.9
				c0.5-0.1-1.6-2.4-4-3.6c-1.6-0.8-2.5-0.8-2.5-0.8s0.9,0.2,2.8,1c1.9,0.8,2.8,2,3.2,1.8c0.4-0.2-1.7-2.4-3.5-3.3
				c-1.9-0.8-2.6-0.9-2.6-0.9s1.4-0.3,2.8,0.3c1.4,0.5,2.9,2.5,2.7,2c-0.2-0.5-1.8-3.1-5.2-3.7c-2.4-0.4-8.4-0.5-9.5-0.5
				C255.2,246.1,255.3,246.9,256.3,248.5z"/>
			<polygon class="st5" points="257.3,246.1 254.4,239.1 250.9,239.9 256.3,248.5 			"/>
			<path class="st20" d="M255.5,238.8l1.4,5.7l-2.8,0.9l-3.4-5.3C250.7,240.2,253,238.9,255.5,238.8z"/>
			
				<linearGradient id="SVGID_5_" gradientUnits="userSpaceOnUse" x1="594.3026" y1="243.4899" x2="594.3026" y2="139.9181" gradientTransform="matrix(-1 0 0 1 811.5016 0)">
				<stop  offset="0" style="stop-color:#399C36"/>
				<stop  offset="1" style="stop-color:#8FC977"/>
			</linearGradient>
			<path class="st21" d="M177.1,241.2l7.8,0.4c0,0,10.1-31.2,12.7-39c4-12.2,5.6-20.3,5.6-20.3s1.3,11.3,1,19.5
				c-0.4,8.2-11,34-11,34s7,3.5,19.2,6.2c12.2,2.7,29.5,0.8,29.5,0.8s-6.8-28.8-7.3-37.5c-0.1-0.9-0.1-1.7-0.1-2.4
				c-0.3-6.6,0-8.3,0-8.3l14.9,46.4l8.1-2c0,0-5.3-31.6-8.8-47.4c-3.1-14-8.3-30.7-12.8-39.7c-1.1-2.3-2.3-4.1-3.3-5.3
				c-3.7-4.1-14.5-6.9-14.5-6.9l-6.6,0.3c0,0-6.9,2.1-10.8,5.4h0c-0.5,0.5-1,1-1.4,1.5c-0.3,0.3-0.6,0.8-0.9,1.5c0,0,0,0,0,0
				c-3.8,7.5-10.8,32.9-14.1,45.2C180,209.5,177.1,241.2,177.1,241.2z"/>
			<path class="st11" d="M184.2,125.7c4.5,0,8-3.7,8-3.7l-4.3-5.3c0,0,0,0-0.1-0.1c-1-0.8-10.2-8.4-13.9-6.4
				c-0.1,0.1-0.2,0.1-0.3,0.2h0C168.5,113.9,179.7,125.7,184.2,125.7z"/>
			<path class="st5" d="M172.9,111c0.1,0,1.9,0,5.4,1.3c3.3,1.3,7.5,4,7.5,4l2.1,0.3c0,0,0,0-0.1-0.1c-1-0.8-10.2-8.4-13.9-6.4
				C173.8,110.2,173,110.9,172.9,111z"/>
			<path class="st22" d="M238.2,177.3c0,0-4.9,3.6-14.7,4.4c-9.7,0.8-17.8-0.3-17.8-0.3s20.1,15.9,23.1,22.3c2.9,6.3,8.6,20,8.6,20
				s-5-20.6-3.1-30.3C236.2,183.7,236.5,181.5,238.2,177.3z"/>
			<path class="st22" d="M198.2,148.7c0,0,2.7-0.1,13.6,0.6c11,0.7,23.9,2.7,23.9,2.7c-1.1-2.3-2.3-4.1-3.3-5.3
				c-3.7-4.1-14.5-6.9-14.5-6.9l-6.6,0.3c0,0-9,2.7-12.2,6.9C198.8,147.6,198.5,148.1,198.2,148.7
				C198.2,148.7,198.2,148.7,198.2,148.7z"/>
			<path class="st22" d="M181.5,241.5c0,0-2.1-21.1,1-32.2c3.1-11.1,15.6-54.1,19.1-57.2s13-2.5,13-2.5l-14.1-3.8h0
				c-0.5,0.5-1,1-1.4,1.5c-0.3,0.3-0.6,0.8-0.9,1.5c0,0,0,0,0,0c-3.8,7.5-10.8,32.9-14.1,45.2c-4.1,15.5-7.1,47.2-7.1,47.2
				L181.5,241.5z"/>
			<path class="st22" d="M234.3,202.9c-0.3-6.6,0-8.3,0-8.3l14.9,46.4l2.6-0.6l-16.1-54.3l-3.2,11.9L234.3,202.9z"/>
			<path class="st20" d="M220.1,140.6c0,0-1.4-5.3-2.2-5.7c-0.8-0.5-1.2-0.3-1.2-0.3l-4.4,0c0,0-1-0.2-1.6,0.3
				c-0.5,0.5-1.5,6.2-1.5,6.2S214.5,142.9,220.1,140.6z"/>
			<path class="st20" d="M241,242.9v3.1c0,0-12.8,3.2-26.4-0.6c-13.5-3.8-20.7-8.2-20.7-8.2l-0.6-1.3
				C193.3,236,210.5,244.6,241,242.9z"/>
			<path class="st23" d="M194.4,260.6c0.5,3.2,1.1,6.8,2,10.6c3.7,15.8,7.1,33,8.1,43.5c1,10.4-0.3,22.8,2.6,36.5c0,0,0,0.1,0,0.1
				c1.8,8.3,4.8,17.9,6.9,24.2c1.4,4.2,2.4,7,2.4,7h3.1c0,0-5.8-27.7-9-40.6c-3.2-12.8-5-30.7-7.7-49.5c-2.7-18.8-3.2-52.3-3.2-52.3
				l-5.7-2.9C193.5,240,192.6,248.1,194.4,260.6z"/>
			<path class="st24" d="M217.2,302.5c0.1,12.5,7.6,59.2,7.6,59.2c0.5-10.3,0.9-22.9,0.8-33.5v0c0-4.8-0.2-9.3-0.5-12.9
				c-0.9-11.3-1.5-26-2.6-38.5C222.5,276.8,217.1,290,217.2,302.5z"/>
			<g>
				<polygon class="st25" points="200.8,284.9 176.1,283.9 176.1,308.5 198.7,307.2 				"/>
				<polygon class="st26" points="176.1,283.9 135,282.9 139.6,308.5 176.1,308.5 				"/>
				<polygon class="st27" points="201.6,285 201.3,287.1 176.1,287.1 135,286 135,282.9 176.1,283.9 				"/>
				<polygon class="st26" points="200.6,287.1 200.5,288 176.1,288.6 176.1,287.1 				"/>
				<polygon class="st4" points="171.2,290.4 171.2,292.1 140.8,291.3 140.8,290.4 				"/>
				<polygon class="st4" points="171.2,295.7 141.7,296.2 141.7,296.9 171.2,296.9 				"/>
				<polygon class="st4" points="171.2,300.8 142.3,301.2 142.9,303.1 171.2,302 				"/>
			</g>
			<g>
				<path class="st5" d="M172.4,283.9c0,0-36.3-20.9-40.6-20.1s23.4,19.6,23.4,19.6L172.4,283.9z"/>
				<path class="st11" d="M166.1,280.3c0,0-8.8,0.7-9.7,0c-0.9-0.7,6.5-1.8,6.5-1.8L166.1,280.3z"/>
				<path class="st11" d="M157.8,275.7c0,0-8.8-0.1-9.7-0.5c-0.9-0.3,6.2-1.4,6.2-1.4L157.8,275.7z"/>
				<path class="st11" d="M149.5,271.3c0,0-6.8-0.5-7.8-1.3s4.3-0.5,4.3-0.5L149.5,271.3z"/>
			</g>
			<path class="st5" d="M177.3,252.4c0,0-4.4,3.5-5.4,5.9c-1,2.4-1.3,4.5-0.7,4.8c0.4,0.2,0.8,0,0.8,0s0.2,0.7,0.8,0.8
				c0.7,0.2,1.2-0.3,1.2-0.3s0.2,0.6,1.1,0.6c0.7,0,1-0.8,1-0.8s0.3,0.5,1,0.4c0.7-0.1,0.9-1,0.9-1s-0.7,0.3-0.8-1.5
				c0-0.7,0.1-1.6,0.1-1.6l0.4,0.8l1.8,0c0,0-0.2-1.5-0.4-3.6c-0.2-1.8,0-4.7,0-4.7L177.3,252.4z"/>
			<polygon class="st11" points="176.1,263.3 175.8,262 175.7,263.9 			"/>
			<polygon class="st11" points="174,263.6 173.9,261.7 173.4,263.9 			"/>
			<polygon class="st11" points="172,263.1 172.2,261.3 171.4,263.2 			"/>
		</g>
		<g>
			<path class="st5" d="M263.1,366.1c0,0,2,10.2,2.1,16.2c0.1,5.8,7,21.5,7.6,22.9v0c0,0,0,0.1,0,0.1v0c0,0,0,0,0,0l1.5,0.6v-39.8
				H263.1z"/>
			<path class="st5" d="M274.3,405.3c0,0,2.4,2,4,3.2c1.6,1.2,6.6,1.7,6.5,2.3c-0.1,0.6-3,2.2-6.1,1.4c-3.1-0.8-5.9-2.3-6.1-3
				s0.2-4,0.2-4H274.3z"/>
			<path class="st25" d="M272.6,407.2c0,0,3.7,3.3,5.7,3.7c2,0.4,3.5-1,3.5-1s3.1,0.3,3,1c-0.1,0.7-2.1,2.2-5.3,1.9
				c-3.2-0.3-6.6-2.5-6.9-3.2C272.2,408.8,272.6,407.2,272.6,407.2z"/>
			<path class="st11" d="M263.1,366.1c0,0,2,10.2,2.1,16.2c0.1,5.8,7,21.5,7.6,22.9c-0.3-0.9-2.7-8.6-3.9-12.7
				c-1.3-4.4-2.7-18.3-1.6-20.7c1.1-2.5,7-3.4,7-3.4v-1.5l-5.7-0.8H263.1z"/>
			<path class="st5" d="M242.9,403.1l1.6,0.6c0,0,9.4-19.1,10.3-22.6c0.8-3.1,2.4-9.2,3.2-12.6v0c0.2-0.6,0.3-1.2,0.4-1.6
				c0.1-0.5,0.2-0.9,0.2-0.9l-12.1-1.2c0,0,0,0.1,0,0.4c-0.1,2.2-0.8,12.6-1.5,17.2C244.3,387.6,243,401.7,242.9,403.1L242.9,403.1z
				"/>
			<path class="st5" d="M244.4,403.5c0,0,1.5,2.7,2.7,4.4c1.1,1.7,5.7,3.8,5.4,4.3c-0.3,0.5-3.5,1.1-6.2-0.7
				c-2.7-1.8-4.8-4.1-4.7-4.8c0.1-0.7,1.5-3.7,1.5-3.7L244.4,403.5z"/>
			<path class="st25" d="M242.2,404.6c0,0,2.4,4.3,4.1,5.4c1.8,1.1,3.6,0.2,3.6,0.2s2.9,1.3,2.5,2c-0.4,0.6-2.7,1.4-5.6,0
				c-2.9-1.4-5.4-4.5-5.5-5.3C241.2,406.1,242.2,404.6,242.2,404.6z"/>
			<path class="st11" d="M258,368.5L258,368.5c0,0-7.6,1.8-8.9,4c-1.4,2.2-0.4,6.3-2.2,15.2c-1.8,8.9-4,15.4-4,15.4l0-0.1
				c0.1-1.3,1.3-15.4,2.1-20.4c0.7-4.6,1.4-15,1.5-17.2l11.9,1.6L258,368.5z"/>
			<path class="st5" d="M283.4,347.5c0.2,0.7,1.4,3.2,2.1,3.8c0.7,0.6,2.8,2,2.8,2s0.2-0.6-0.6-1.3c-0.8-0.7-1.3-1.6-1.3-1.6
				s1.3,0.1,2.4,0.7c1.1,0.6,1.7,1.3,2,1.3c0.3,0-0.8-1.4-1.5-1.9c-0.7-0.4-1-0.6-1-0.6s0.7,0.3,1.6,1c0.8,0.7,1.4,1.5,1.7,1.5
				c0.3,0-0.6-1.6-1.8-2.5c-0.8-0.6-1.3-0.8-1.3-0.8s0.5,0.2,1.4,0.9c1,0.7,1.3,1.5,1.6,1.4c0.3-0.1-0.6-1.6-1.6-2.3
				c-0.9-0.7-1.3-0.8-1.3-0.8s0.8,0,1.5,0.5c0.7,0.5,1.3,1.8,1.3,1.5c0-0.3-0.6-2-2.4-2.7c-1.3-0.5-4.6-1.3-5.2-1.4
				C283.1,346,283,346.5,283.4,347.5z"/>
			<path class="st5" d="M266.8,312.7c0,0,1.7,7.8,3.6,14c0.8,2.8,1.7,5.2,2.5,6.5c2.4,4,9.8,13.6,10.4,14.3c0,0,0,0,0,0l0,0l1.5,0.1
				c0,0-4-13.8-5.6-19c-1-3.2-2.6-9.4-3.7-13.6v0c-0.7-2.6-1.1-4.4-1.1-4.4l-3.5,1L266.8,312.7z"/>
			<path class="st11" d="M269.6,317.1l0.9,9.6c0.8,2.8,1.7,5.2,2.5,6.5c2.4,4,9.8,13.6,10.4,14.3c-0.4-0.9-7.2-16-7.5-20.7
				c-0.3-4.8-0.4-11.8-0.4-11.8v0c-0.7-2.6-1.1-4.4-1.1-4.4l-3.5,1L269.6,317.1z"/>
			
				<linearGradient id="SVGID_6_" gradientUnits="userSpaceOnUse" x1="551.3746" y1="300.2985" x2="551.3746" y2="366.9563" gradientTransform="matrix(-1 0 0 1 811.5016 0)">
				<stop  offset="0" style="stop-color:#FFF594"/>
				<stop  offset="1" style="stop-color:#FAB945"/>
			</linearGradient>
			<path class="st28" d="M238.3,362.7c0,0,0.3,0.1,0.9,0.3l0.1,0c1.5,0.5,4.5,1.3,8.2,2.2c4.3,0.9,9.4,1.8,14.2,1.8
				c9.2,0,13.7-1,20.2-2c0,0,0.8-12.7-2.5-24.5c-3.3-11.8-7.1-19.1-7.1-19.1s0.2-2.4,0.1-4.4c-0.3-3.5-0.8-5.4-0.8-5.4l4.4-0.6
				c0,0-1.4-2.1-4.3-5.5c-1-1.1-2-2-3-2.8c-2-1.4-3.7-2.2-4.2-2.4l-0.1,0l-5.2,0.3c0,0-0.7,0-2.5,0.6c-0.6,0.2-1.4,0.5-2.4,0.9
				c-0.4,0.2-0.9,0.4-1.4,0.7c-3.1,2.1-6.2,6.4-6.2,6.4l6.6,4.7c0,0-0.1,0.4-0.4,1.1c-0.9,2.2-2.9,7.3-6.1,14.2
				C241.8,340.4,238.3,362.7,238.3,362.7z"/>
			<path class="st11" d="M259.5,292.5l-0.4,8.1c0,0,1.7,1.5,3.4,1.3c1.7-0.3,1.8-1.6,1.8-1.6l-0.5-7.3L259.5,292.5z"/>
			<path class="st5" d="M228.9,344.5c-0.3,0.6-1.6,3.1-2.4,3.6c-0.8,0.6-3,1.9-3,1.9s-0.2-0.6,0.7-1.2c0.8-0.7,1.5-1.5,1.5-1.5
				s-1.4,0.1-2.5,0.6c-1.1,0.6-1.8,1.2-2.1,1.2c-0.4,0,0.8-1.4,1.6-1.8c0.8-0.4,1-0.6,1-0.6s-0.8,0.3-1.7,0.9
				c-0.9,0.6-1.5,1.4-1.8,1.4c-0.3,0,0.6-1.5,1.9-2.5c0.8-0.6,1.3-0.7,1.3-0.7s-0.5,0.2-1.5,0.8c-1,0.7-1.4,1.4-1.7,1.3
				c-0.3-0.1,0.7-1.6,1.7-2.2c1-0.7,1.4-0.8,1.4-0.8s-0.8,0-1.6,0.5c-0.8,0.5-1.4,1.7-1.4,1.4c0-0.3,0.7-1.9,2.7-2.6
				c1.3-0.5,4.9-1.1,5.5-1.2C229.3,343,229.3,343.5,228.9,344.5z"/>
			<g>
				<path class="st29" d="M239.9,250.1c0,0-2.3-6.7-6.4-10.9c-4-4.2-7.9-0.5-10.3,1.8c-2.3,2.3-4.9,6.6-4.8,9.1
					c0.1,2.5,15.7,5.9,15.7,5.9L239.9,250.1z"/>
				<path class="st30" d="M235.6,254.6c0,0-9.6-9.2-12.7-7.9c-3.1,1.2-1.8,4-0.9,4.5c0.8,0.5,12.6,4.5,12.6,4.5L235.6,254.6z"/>
				<path class="st29" d="M274.7,243.3c0,0,2-9.4,6.3-10.7c4.3-1.3,16.3,6.3,16.3,8.8c0,2.5-12.8,8.3-12.8,8.3L274.7,243.3z"/>
				<path class="st30" d="M284,248.3c0,0,9.5-8.4,12-7.2c2.5,1.2-11.6,8.1-11.6,8.1L284,248.3z"/>
				<path class="st29" d="M239,248.7c0,0-2.3-8.6-4.4-11.4c-2.2-2.8-6.3-1.8-6.3-1.8s5-2.2,8,1.1c2.5,2.8,3.8,11.6,3.8,11.6
					L239,248.7z"/>
				<path class="st29" d="M275.2,242.3c0,0,0.1-1.7,0.8-4.1c0.7-2.4,1.5-3.7,1.5-3.7s-1.6,2-2.5,4.1c-0.9,2.1-1,3.9-1,3.9
					L275.2,242.3z"/>
				<path class="st31" d="M240.1,248.1l-0.1-2.6c0,0-3.2,0.4-5.9,3.2c-2.7,2.8-3.1,6.5-3.1,6.5l2,0.5L240.1,248.1z"/>
				<path class="st31" d="M274,242.1l15.2,5.5l1.5-1c0,0-3-2.8-8-4.7c-5-1.9-8.4-1.2-8.4-1.2L274,242.1z"/>
				<path class="st5" d="M240.3,283.2c1.9,4.4,16.4,11.6,24.1,13.4c1,0.2,1.9,0.4,2.5,0.5c0.4,0.1,0.9,0.1,1.3,0.1
					c2.3,0,5-0.5,7.5-1.3c4.5-1.3,8.6-3.3,9.1-4.1c0.9-1.3,0.4-3.3,0.3-8.3c-0.1-5,2.6-9.6,3.2-15.2c0.4-3.2-0.2-6.2-0.7-8.3
					c-0.4-1.6-0.8-2.6-0.8-2.6c-1.7-3.1-6-15-20.9-14.7c-14.8,0.3-23.5,6.2-26.1,11.8C237.4,260.2,238.1,278.3,240.3,283.2z"/>
				<path class="st14" d="M263.3,287.5c0,0,4.5,1.7,9.4,2.5c3.9,0.7,5.7,0.6,5.7,0.6s-3.4,5.5-8.7,5.5
					C263.8,296.1,263.3,287.5,263.3,287.5z"/>
				<g>
					<g>
						
							<ellipse transform="matrix(-0.9984 -5.712851e-002 5.712851e-002 -0.9984 508.6763 561.739)" class="st12" cx="262.4" cy="273.6" rx="6.3" ry="8.2"/>
						
							<linearGradient id="SVGID_7_" gradientUnits="userSpaceOnUse" x1="304.5433" y1="275.4076" x2="312.0024" y2="275.4076" gradientTransform="matrix(-1 0 0 1 568.8154 0)">
							<stop  offset="0" style="stop-color:#A43113"/>
							<stop  offset="1" style="stop-color:#6F160D"/>
						</linearGradient>
						<path class="st32" d="M256.9,274.9c-0.4,2.7,1,5.1,3,5.4c2,0.3,4-1.7,4.3-4.4c0.4-2.7-1-5.1-3-5.4
							C259.2,270.2,257.2,272.2,256.9,274.9z"/>
						<path class="st29" d="M258.1,275.4c-0.3,1.9,0.7,3.6,2.1,3.8c1.4,0.2,2.8-1.2,3.1-3.1c0.3-1.9-0.7-3.6-2.1-3.8
							C259.8,272.1,258.4,273.5,258.1,275.4z"/>
						<path class="st12" d="M266.4,277.2c0-0.3-1-0.7-2.3-0.9c-1.3-0.2-2.4-0.2-2.5,0.1c0,0.3,1,0.7,2.3,0.9
							C265.2,277.5,266.3,277.5,266.4,277.2z"/>
						<path class="st11" d="M256.1,275.4c-0.2-1-0.1-1.1-0.1-2.2c0.3-4.5,3.3-8,6.8-7.8c3.3,0.2,5.8,2.7,5.8,6.9
							C262.5,261.4,256.1,275.2,256.1,275.4z"/>
					</g>
					<path class="st29" d="M255.9,275.9c0,0,0.8-8.2,6.5-9.7c5.4-1.4,6.6,5,6.6,5l-0.4,2.7c0,0-1.2-6-5.8-5.5
						C258.4,269,255.9,275.9,255.9,275.9z"/>
				</g>
				<g>
					<g>
						
							<ellipse transform="matrix(-0.9991 -4.319337e-002 4.319337e-002 -0.9991 550.5327 561.657)" class="st12" cx="281.3" cy="274.9" rx="4.9" ry="7.8"/>
						
							<linearGradient id="SVGID_8_" gradientUnits="userSpaceOnUse" x1="219.8347" y1="369.9615" x2="225.6077" y2="369.9615" gradientTransform="matrix(-0.9994 3.460000e-002 3.460000e-002 0.9994 489.9934 -100.9912)">
							<stop  offset="0" style="stop-color:#A43113"/>
							<stop  offset="1" style="stop-color:#6F160D"/>
						</linearGradient>
						<path class="st33" d="M277.3,276.1c-0.2,2.6,1,4.9,2.5,5.1c1.6,0.2,3-1.8,3.2-4.4c0.2-2.6-1-4.9-2.5-5.1
							C279,271.5,277.5,273.5,277.3,276.1z"/>
						<path class="st29" d="M278.3,276.5c-0.1,1.8,0.7,3.4,1.8,3.6c1.1,0.1,2.1-1.3,2.3-3.1c0.1-1.8-0.7-3.4-1.8-3.6
							C279.5,273.3,278.5,274.7,278.3,276.5z"/>
						<path class="st12" d="M284.3,278.3c0.1-0.3-0.6-0.7-1.6-1c-1-0.3-1.9-0.3-2-0.1c-0.1,0.3,0.6,0.7,1.6,1
							C283.3,278.6,284.2,278.6,284.3,278.3z"/>
						<path class="st11" d="M276.5,277.1c-0.2-0.9-0.1-1.4-0.1-2.4c0.2-4.3,2.5-7.7,5.2-7.6c2.6,0.1,4.5,3.4,4.5,7.4
							C281.1,261.9,276.7,275.6,276.5,277.1z"/>
					</g>
					<path class="st29" d="M276.5,277.2c0,0-0.3-7.9,4.3-9c4.4-1.1,5.6,4.5,5.6,4.5l-0.2,1.7c0,0-1.6-4.8-4.9-4.1
						C277.9,271.2,276.5,277.2,276.5,277.2z"/>
				</g>
				<path class="st11" d="M267.9,284.9c0,0,3.2,0.6,5.7,0.4c2.5-0.1,4.3-0.4,4.3-0.4s-2.6,2.8-5,2.5
					C271.1,287.2,267.9,284.9,267.9,284.9z"/>
				<path class="st11" d="M251,285.7c2,6,13.4,10.9,13.4,10.9c-7.8-1.8-21.5-8.3-23.4-12.7c-2.2-4.9-3.6-23.7-1-29.3
					c2.6-5.6,11.2-11.5,26.1-11.8s19.1,11.5,20.9,14.7c0,0,0.4,1,0.8,2.6c-3.1-0.7-14.1-2.7-21.5-0.4
					C257.8,262.3,249,279.7,251,285.7z"/>
				<path class="st12" d="M267,288.9c0,0,0.3,1.4,0.7,1.8c0.2,0.2,2.6,1.1,4.7,1.3c1.4,0.1,2.6,0.3,2.9,0c0.2-0.2,0.8-1.3,0.8-1.3
					s-1.7-0.1-4.1-0.5C269.4,289.8,267,288.9,267,288.9z"/>
				<path class="st30" d="M267.5,258.9c0,0-4.1-0.4-8.2,2.8c-4.1,3.3-4.8,8.4-4.8,8.4s2-4.1,5-5.9
					C262.5,262.4,266.4,263.7,267.5,258.9z"/>
				<path class="st30" d="M280.2,259.7c0,0,4,1.7,5.8,4.4c1.8,2.6,1.8,5.4,1.8,5.4s-1.3-3.1-3.7-4.2
					C281.7,264,280.2,262.1,280.2,259.7z"/>
				
					<ellipse transform="matrix(0.9999 1.314327e-002 -1.314327e-002 0.9999 3.7537 -3.5313)" class="st34" cx="270.5" cy="283.8" rx="2.4" ry="0.4"/>
				
					<ellipse transform="matrix(0.993 0.1181 -0.1181 0.993 35.4447 -30.39)" class="st34" cx="274.2" cy="283.9" rx="0.8" ry="0.3"/>
				<path class="st29" d="M242.4,285.8c0.5-4.4,8.2-18.6,16.4-24.7c8.1-6.1,12.9-8.5,12.9-8.5s17.2,9.8,16.7,15.7
					c-0.5,5.9-1.8,17.4-0.2,29.7c1.6,12-2.2,18.6-2.4,19c0.2-0.3,4-5.8,4.6-12.5c0.6-6.9-1-14.6-1.2-23.4
					c-0.2-8.8,9.2-26.9-2.1-36.1c-7.4-6-19-2.8-19-2.8s-1.4,0-3.7,0.1c-0.1,0-0.2,0-0.3,0c-3.6,0.2-9.2,0.8-14.7,2.1
					c-6.6,1.6-13,4.3-16,9c-0.3,0.6-0.6,1.1-0.9,1.8c-0.6,1.2-1,2.4-1.3,3.6C227.6,273.6,242,289.9,242.4,285.8z"/>
				<path class="st35" d="M274.3,251.1c0,0,11.8,4.6,15.9,9.4c4.1,4.8-1.6,19-2.1,25c-0.5,6,0,9.8,0,9.8s-2-6.8-1.3-16.9
					c0.7-10.1,2.2-13.6-2.3-18.7C280.1,254.7,274.3,251.1,274.3,251.1z"/>
				<path class="st11" d="M238.9,286.2c4.7,0.8,5,0,5,0l2-7c0,0-0.2-0.2-0.5-0.4c-1.8-1.6-8.3-7-12.3-5.2c-0.4,0.2-0.7,0.4-1,0.7
					c-0.3,0.3-0.5,0.7-0.6,1v0l0,0C230.6,278.9,235,285.5,238.9,286.2z"/>
				<path class="st5" d="M231.6,275.4L231.6,275.4c0.2-0.1,1.6-0.9,4.7,0c3.3,1,7.2,4.5,7.2,4.5l1.9-1.1c-1.8-1.6-8.3-7-12.3-5.2
					c-0.4,0.2-0.7,0.4-1,0.7L231.6,275.4z"/>
				<path class="st35" d="M231.2,258.9c3.4,1.2,13.7,4,23.2-1.7c11.6-6.9,13.6-15,13.6-15s-1.4,0-3.7,0.1c-0.1,0-0.2,0-0.3,0
					c-3.6,0.2-9.2,0.8-14.7,2.1c-6.6,1.6-13,4.3-16,9c-0.3,0.6-0.6,1.1-0.9,1.8C232,256.4,231.5,257.6,231.2,258.9z"/>
				<path class="st29" d="M272.1,252.8c0,0-10,8.3-16.8,17.6c-6.9,9.2-10.4,33.3-10.4,33.3s0.6-21.8,9-35.8
					c5.5-9.2,14.1-14.8,14.1-14.8l4.2-1.2L272.1,252.8z"/>
				<path class="st36" d="M264,290.2c0,0,3.5,1,6,2.2c2.5,1.2,3.6,2.4,3.6,2.4s-3.6,2-6.3,0.2C264.5,293.2,264,290.2,264,290.2z"/>
				<path class="st12" d="M266.1,294.2c0,0,0.3-0.7,0.4-0.8c0.1,0,0.7,0.6,1.9,1.2c1.2,0.5,2.4,0.6,2.4,0.7c0.1,0-0.3,0.6-0.3,0.6
					s-1.3,0.2-2.6-0.3C266.7,295,266.1,294.2,266.1,294.2z"/>
				<path class="st12" d="M265.9,294.1c0,0,0.4-0.7,0.4-0.8c0-0.1-0.7-0.9-0.8-0.9c-0.1,0-0.6,0.5-0.6,0.5S265.4,293.7,265.9,294.1z
					"/>
			</g>
			<path class="st37" d="M252.9,302.8c1.5,1.4,4.7,2.9,9.6,2.4c2.4-0.2,4.7-1.6,6-2.5c-2-1.4-3.7-2.2-4.2-2.4l-0.1,0l-5.2,0.3
				l-2.5,0.6c-0.6,0.2-1.4,0.5-2.4,0.9C253.8,302.3,253.3,302.5,252.9,302.8z"/>
			<polygon class="st9" points="275.5,309.1 271.5,311.6 271.7,312.6 276.3,311 			"/>
			<path class="st9" d="M265.2,300.7l-0.9-1.8l-5.1,0l-0.6,1.9C258.6,300.7,261.3,301.7,265.2,300.7z"/>
			<path class="st37" d="M238.3,362.7c0,0,0.3,0.1,0.9,0.3l0.1,0l8.2,2.2c0,0-2-2.7-2.3-4.9s1.1-22.4,5.6-29.3
				c4.5-6.9,18.8-10.3,18.8-10.3s-3.4-0.2-8.2-1.3c-4.8-1.1-7.4-5.1-7.4-5.1l-1,0.8c-0.9,2.2-2.9,7.3-6.1,14.2
				C241.8,340.4,238.3,362.7,238.3,362.7z"/>
			<path class="st9" d="M281.9,363.9c0,0-8.7,2.8-21.8,2.2c-13.1-0.5-21.8-4.8-21.8-4.8l-0.5,1.6c0,0,7.3,4,22.9,4.4
				c15.9,0.4,21.3-1.6,21.3-1.6L281.9,363.9z"/>
			<path class="st9" d="M272.3,320.9c0,0-4.2,1.2-10.5,1c-6.3-0.2-10.6-2-10.6-2l-0.2,0.7c0,0,3.5,1.7,11.1,1.9
				c7.7,0.2,10.4-0.7,10.4-0.7L272.3,320.9z"/>
			<circle class="st16" cx="261.8" cy="337" r="1.7"/>
			<circle class="st16" cx="276.7" cy="345.8" r="1.7"/>
			<circle class="st16" cx="253.4" cy="348.4" r="1.7"/>
			<circle class="st16" cx="265.1" cy="357.5" r="1.7"/>
			<circle class="st16" cx="242.1" cy="359.2" r="1.7"/>
			<circle class="st16" cx="246.3" cy="338.1" r="1.7"/>
			<circle class="st16" cx="273.8" cy="332.4" r="1.7"/>
			<circle class="st16" cx="265.8" cy="324.6" r="1.7"/>
			<circle class="st16" cx="268.7" cy="314.2" r="1.7"/>
			<circle class="st16" cx="258.6" cy="309.8" r="1.7"/>
			<circle class="st16" cx="267" cy="305.3" r="1.7"/>
			<circle class="st16" cx="255" cy="323.7" r="1.7"/>
			<circle class="st16" cx="278.3" cy="360.3" r="1.7"/>
			<path class="st5" d="M227.2,343.3l1.6,1.4l2.9-2.6c0.6-0.5,9.8-7.8,13-11.1c3.3-3.3,9.2-16.8,9.2-16.8l-6.1-4.3
				c0,0-0.3,0.6-0.8,1.6c-1.7,3.2-5.4,10.5-7.5,14C236.9,330,227.2,343.3,227.2,343.3z"/>
			<path class="st11" d="M231.7,342.2c0.6-0.5,9.8-7.8,13-11.1c3.3-3.3,9.2-16.8,9.2-16.8l-6.1-4.3c0,0-0.3,0.6-0.8,1.6
				c0,0,1.9,7.9,1,11.3C247.1,326.3,232.5,341.4,231.7,342.2z"/>
			<polygon class="st9" points="247.3,307.7 245.8,309.4 253.9,314.2 254.4,313.1 			"/>
		</g>
		<g>
			<polygon class="st5" points="102,397.6 103.1,402.3 105.1,402.3 104.5,397.6 			"/>
			
				<linearGradient id="SVGID_9_" gradientUnits="userSpaceOnUse" x1="696.5158" y1="405.7493" x2="708.7397" y2="405.7493" gradientTransform="matrix(-1 0 0 1 811.5016 0)">
				<stop  offset="0" style="stop-color:#A43113"/>
				<stop  offset="1" style="stop-color:#6F160D"/>
			</linearGradient>
			<path class="st38" d="M102.9,406.4c0.4,0.4,4.5,2.8,7.5,2.8c3.1,0,4.5-1.5,4.5-1.5s0.2-0.8-0.2-1.2c-0.1-0.1-0.2-0.1-0.4-0.2
				c-1-0.2-3.5-0.3-4.7-0.8c-0.8-0.3-2.1-1.3-3.1-2.1c-0.8-0.6-1.4-1.2-1.4-1.2h-2C103.1,402.3,102.5,406,102.9,406.4z"/>
			<path class="st19" d="M104.5,403.9c0,0,2.4,2.8,4.6,3.2c2.2,0.4,5.2-0.6,5.2-0.6c-1-0.2-3.5-0.3-4.7-0.8
				c-0.8-0.3-2.1-1.3-3.1-2.1L104.5,403.9z"/>
			<polygon class="st5" points="65.4,393.6 63.5,397.5 65.3,398.4 67.9,394.4 			"/>
			
				<linearGradient id="SVGID_10_" gradientUnits="userSpaceOnUse" x1="704.8804" y1="546.1927" x2="717.3117" y2="546.1927" gradientTransform="matrix(-0.8958 -0.4445 -0.4445 0.8958 946.9503 230.0794)">
				<stop  offset="0" style="stop-color:#A43113"/>
				<stop  offset="1" style="stop-color:#6F160D"/>
			</linearGradient>
			<path class="st39" d="M61.4,401.2c0.2,0.6,2.8,4.5,5.6,6c2.8,1.4,4.8,0.7,4.8,0.7s0.6-0.6,0.3-1.2c0-0.1-0.1-0.2-0.3-0.3
				c-0.8-0.7-3.1-1.9-3.9-2.9c-0.5-0.6-1.3-2.1-1.9-3.3c-0.4-0.9-0.8-1.7-0.8-1.7l-1.8-0.9C63.5,397.5,61.3,400.6,61.4,401.2z"/>
			<path class="st19" d="M64.1,399.6c0,0,0.9,3.6,2.7,4.9c1.8,1.4,5,1.8,5,1.8c-0.8-0.7-3.1-1.9-3.9-2.9c-0.5-0.6-1.3-2.1-1.9-3.3
				L64.1,399.6z"/>
			
				<linearGradient id="SVGID_11_" gradientUnits="userSpaceOnUse" x1="726.978" y1="345.9617" x2="726.978" y2="401.1897" gradientTransform="matrix(-1 0 0 1 811.5016 0)">
				<stop  offset="0" style="stop-color:#FDA24C"/>
				<stop  offset="1" style="stop-color:#FAC25E"/>
			</linearGradient>
			<path class="st40" d="M62.7,395.9l3.8,1.7l0,0c0,0,2.5-2.5,5.6-5.9c0,0,0,0,0,0c0,0,0,0,0,0c4-4.4,9.1-10.1,10.9-13.5
				c2.3-4.3,5.4-12.2,7-16.5c0,0,0-0.1,0-0.1c0.6-1.7,1-2.7,1-2.7s2.7,15.3,3.2,20.1c0.8,7.8,6.1,18.9,7.4,21.6l0.3,0.6h3.2
				c0,0,0.1-2.9,0.1-7.2l0-0.1c0.1-7,0.4-17.6,0.7-25.4c0.2-4,0.2-7.5,0.2-10.4c0-5.2-0.1-8.9-0.2-10.7l0-0.4c0-0.7-0.1-1-0.1-1
				H72.8c0,0-0.2,24.2-1.2,28.2C70.7,378.1,62.7,395.9,62.7,395.9z"/>
			<path class="st41" d="M65.2,395.7c-0.1-0.9,8.3-16,9.2-19.8c0.9-3.8,0.8-19.4,2.5-23.4c1.7-4.1,29.3-5,29.3-5l0-0.4
				c0-0.7-0.1-1-0.1-1H72.8c0,0-0.2,24.2-1.2,28.2c-0.9,4-8.9,21.8-8.9,21.8l3.8,1.7C66.4,397.5,65.3,396.5,65.2,395.7z"/>
			<path class="st41" d="M91.1,359c0,0,2.7,15.3,3.2,20.1c0.8,7.8,6.1,18.9,7.4,21.6l0.3,0.6l0.7-0.2c0,0-6.3-16.2-6.7-23.3
				c-0.4-7.1-1.7-21.3-1.7-21.3L91.1,359z"/>
			
				<linearGradient id="SVGID_12_" gradientUnits="userSpaceOnUse" x1="722.9833" y1="288.8234" x2="722.9833" y2="346.9227" gradientTransform="matrix(-1 0 0 1 811.5016 0)">
				<stop  offset="0" style="stop-color:#02B695"/>
				<stop  offset="1" style="stop-color:#009579"/>
			</linearGradient>
			<path class="st42" d="M72.8,333c-1.4,9.1-2,12.8-2,12.8s16,1.7,26.5,1c10.5-0.7,10.5-0.7,10.5-0.7s-0.1-0.6-0.1-1.7
				c-0.4-4.1-1.4-15-2.4-22.2c-1.3-9-3.8-16.4-3.8-16.4l4.1-2.7c0,0-4.6-5.6-8.3-9.3c-1.1-1.1-2.2-2.1-3-2.6
				c-3.4-2.3-4.2-2.1-4.2-2.1l-5.1-0.1c0,0-3.6,0.6-7.4,4.2l0,0c-0.5,0.5-1,1-1.5,1.6c-4.3,5-6.9,9.6-6.9,9.6l9.2,6.5
				c0,0-0.4,1.1-0.9,3C76.1,318.2,73.8,326.6,72.8,333z"/>
			<path class="st43" d="M77.5,293c0,0,3.1,2.8,8.7,2.8c5.6,0,11-2.2,11-2.2c-1.1-1.1-2.2-2.1-3-2.6c-3.4-2.3-4.2-2.1-4.2-2.1
				l-5.1-0.1C85,288.8,81.4,289.4,77.5,293L77.5,293z"/>
			<path class="st11" d="M85.4,281.1l-0.4,8.1c0,0,1.7,1.5,3.4,1.3c1.7-0.3,1.8-1.6,1.8-1.6l-0.5-7.3L85.4,281.1z"/>
			<path class="st43" d="M70.9,345.8c0,0,16,1.7,26.5,1c10.5-0.7,10.5-0.7,10.5-0.7v-1.7c0,0-0.1,0-0.1,0c-2-0.1-23.8-0.9-26.5-5.9
				c-2.9-5.2-3.7-24.8-3.7-24.8l-0.1,0.1c-1.3,4.4-3.6,12.7-4.6,19.1C71.4,342.1,70.9,345.8,70.9,345.8z"/>
			<path class="st9" d="M91.9,289.6c0,0-1.3,2.2-4.1,2.3c-2.8,0.1-4.5-2.5-4.5-2.5l1.6-0.8c0,0,0.7,1.1,2.7,1
				c1.9-0.2,2.5-1.1,2.5-1.1L91.9,289.6z"/>
			<g>
				<polygon class="st9" points="98,336.9 98.8,310.1 93.2,310.9 96,336.9 				"/>
				
					<linearGradient id="SVGID_13_" gradientUnits="userSpaceOnUse" x1="715.5106" y1="323.7019" x2="732.0754" y2="323.7019" gradientTransform="matrix(-1 0 0 1 811.5016 0)">
					<stop  offset="0" style="stop-color:#F10A24"/>
					<stop  offset="1" style="stop-color:#D30000"/>
				</linearGradient>
				<polygon class="st44" points="96,336.9 82,335.4 79.4,310.5 93.2,310.9 				"/>
				<polygon class="st9" points="98.8,310.1 83.3,310 79.4,310.5 93.2,310.9 				"/>
				<polygon class="st45" points="98.7,315.7 93.8,316.9 80,316.3 80.2,317.7 93.9,317.9 98.6,316.5 				"/>
				<polygon class="st45" points="98.6,319.1 94.2,320.4 80.4,319.4 80.5,320.4 94.3,321.2 98.6,319.6 				"/>
			</g>
			<path class="st5" d="M65.1,327.2c2.5,2.4,19.3-0.2,23.8-0.9l0.1,0c0.7-0.1,1-0.2,1-0.2v-1.7c0,0-16.5-1.7-16.9-3.9
				c-0.3-1.5,2.2-6.1,3.7-8.6l0.9-1.5c0.1-0.1,0.1-0.2,0.1-0.2c-1.3-1.3-6.3-4.3-6.7-4.5l0,0l0,0C70.7,306.7,61.4,323.6,65.1,327.2z
				"/>
			<polygon class="st9" points="70.3,301.7 68.9,304.2 78.3,310.8 79,309.2 			"/>
			<path class="st5" d="M88.8,324.6c0.6-0.5,3-2.1,4-2.3c1-0.2,3.7-0.4,3.7-0.4s-0.1,0.6-1.2,0.9c-1.1,0.3-2.1,0.8-2.1,0.8
				s1.3,0.6,2.6,0.6c1.3,0,2.3-0.3,2.6-0.1c0.3,0.2-1.5,0.9-2.4,0.9c-0.9,0-1.3,0.1-1.3,0.1s0.8,0.1,2-0.1c1.1-0.1,2.1-0.6,2.4-0.5
				c0.3,0.2-1.4,1.1-3,1.4c-1.1,0.2-1.6,0-1.6,0s0.6,0.1,1.8-0.1c1.3-0.1,2-0.7,2.2-0.5c0.2,0.2-1.4,1.1-2.7,1.3
				c-1.2,0.2-1.7,0.1-1.7,0.1s0.8,0.4,1.7,0.3c0.9-0.1,2.2-1,2-0.7c-0.2,0.3-1.6,1.5-3.8,1.2c-1.5-0.2-5.1-1.2-5.7-1.4
				C87.7,325.8,87.9,325.4,88.8,324.6z"/>
			<path class="st5" d="M101.6,330.2c-0.8,0-3.8,0.2-4.8,0.7c-0.9,0.5-3.3,2.1-3.3,2.1s0.5,0.4,1.6-0.1c1.1-0.5,2.2-0.7,2.2-0.7
				s-0.7,1.3-1.8,2.2c-1.1,0.9-2.1,1.2-2.2,1.5c-0.2,0.3,1.8-0.2,2.6-0.8c0.8-0.6,1.1-0.8,1.1-0.8s-0.6,0.6-1.7,1.2
				c-1,0.6-2.1,0.8-2.3,1.1s1.8,0.1,3.4-0.8c1-0.6,1.3-1,1.3-1s-0.4,0.4-1.6,1.1c-1.1,0.7-2.1,0.7-2.1,1c0,0.3,1.9,0,3-0.7
				c1.1-0.7,1.5-1.1,1.5-1.1s-0.4,0.8-1.2,1.4c-0.8,0.6-2.4,0.6-2,0.7c0.3,0.1,2.3,0.2,3.9-1.4c1.1-1.1,3.4-4.3,3.8-4.9
				C103.3,330.5,102.9,330.2,101.6,330.2z"/>
			<path class="st5" d="M100,332.1l1.6,0.7c0,0,9.9-9,10.5-11.4c0.4-1.8-3.8-10.1-6.2-14.5c0,0,0,0,0,0l-0.7-1.4
				c-0.1-0.1-0.1-0.2-0.2-0.3c-0.3-0.6-0.5-1-0.5-1l-2.9,2c0,0,0.2,0.6,0.5,1.7c0.7,2.4,1.8,6.8,1.8,9.6c0.1,2.9-2.1,9.6-3.2,12.9v0
				C100.3,331.4,100,332.1,100,332.1z"/>
			<polygon class="st9" points="105.7,301.3 101.4,305.7 102.1,307.8 107.2,303.2 			"/>
			<path class="st5" d="M112.7,270.3c0,2.7-9.6,14.3-15.3,14.2c-2.3,0-5.9-0.2-9.7-0.5h0c0,0-0.1,0-0.1,0c0,0-0.1,0-0.1,0
				c-5.7-0.4-11.6-1.2-13.8-2.1c-3.7-1.7-7.5-9-11.4-18.8c-1.9-4.8-2.1-12.4,0.6-19.2c2.4-5.9,7-11.3,14.7-13.8
				c0.4-0.1,0.8-0.2,1.1-0.4l0,0c1.4-0.4,2.8-0.7,4.4-0.9c2.7-0.4,5.1-0.5,7.3-0.4c16.6,0.5,21.2,11.7,21.4,15.7
				c0.3,4.8-1.6,15.1-1.6,17C110.2,262.9,112.7,267.6,112.7,270.3z"/>
			<path class="st11" d="M111.8,244.1c0,0-6.8-8.6-24.2-4.7c-17.4,3.9-16.8,32.5-13.1,38.1c3.4,5.1,11.4,6.4,12.8,6.6
				c-5.7-0.4-11.6-1.2-13.8-2.1c-3.7-1.7-7.5-9-11.4-18.8c-1.9-4.8-2.1-12.4,0.6-19.2L77.5,230l0.3-0.3l0.9-0.1l0,0l11.7-1.3
				C107,228.9,111.5,240,111.8,244.1z"/>
			<g>
				<path class="st12" d="M95.8,257.2c0.4,4.9-1.9,9-5.2,9.1c-3.2,0.1-6.2-3.8-6.6-8.7c-0.4-4.9,1.9-9,5.2-9.1
					C92.4,248.4,95.4,252.3,95.8,257.2z"/>
				<path class="st12" d="M95.8,257.2c0.4,4.7-1.8,8.5-4.9,8.7c-3.1,0.1-5.9-3.6-6.3-8.3c-0.4-4.7,1.8-8.5,4.9-8.7
					C92.6,248.8,95.4,252.5,95.8,257.2z"/>
				
					<linearGradient id="SVGID_14_" gradientUnits="userSpaceOnUse" x1="-343.7999" y1="236.0679" x2="-335.5536" y2="236.0679" gradientTransform="matrix(0.8953 -3.190000e-002 7.850000e-002 0.9931 377.3879 12.1134)">
					<stop  offset="0" style="stop-color:#A43113"/>
					<stop  offset="1" style="stop-color:#6F160D"/>
				</linearGradient>
				<path class="st46" d="M95.5,257.3c0.2,3.1-1.2,5.6-3.3,5.7s-3.9-2.4-4.1-5.4c-0.2-3.1,1.2-5.6,3.3-5.7
					C93.4,251.7,95.3,254.2,95.5,257.3z"/>
				<path class="st14" d="M94.5,257.4c0.2,2.2-0.9,4-2.3,4.1c-1.5,0.1-2.8-1.7-3-3.9c-0.2-2.2,0.9-4,2.3-4.1
					C93,253.4,94.3,255.2,94.5,257.4z"/>
				<path class="st12" d="M91.1,257.7c-0.3,0.2-1.8,0.4-3.3,0.4c-1.5,0-2.5-0.3-2.2-0.5c0.3-0.2,1.8-0.4,3.3-0.4
					C90.4,257.2,91.4,257.4,91.1,257.7z"/>
				<path class="st11" d="M89.2,248.5c2.1-0.1,4.1,1.5,5.3,4c-1.2-1.6-2.8-2.6-4.4-2.5c-3.2,0.1-5.6,4.2-5.2,9.1
					c0.1,1.7,0.6,3.3,1.3,4.7c-1.2-1.6-2-3.7-2.2-6.2C83.6,252.7,85.9,248.6,89.2,248.5z"/>
			</g>
			<g>
				<path class="st12" d="M110.3,257.6c-0.1,4.5-2.1,7.9-4.5,7.5c-2.4-0.4-4.2-4.4-4-8.9c0.1-4.5,2.1-7.9,4.5-7.5
					C108.7,249,110.5,253,110.3,257.6z"/>
				<path class="st12" d="M110.3,257.6c-0.1,4.3-2,7.5-4.3,7.1s-4-4.2-3.9-8.5c0.1-4.3,2-7.5,4.3-7.1S110.5,253.3,110.3,257.6z"/>
				
					<linearGradient id="SVGID_15_" gradientUnits="userSpaceOnUse" x1="-494.8056" y1="296.2933" x2="-486.7874" y2="296.2933" gradientTransform="matrix(0.6706 0.1157 -2.680000e-002 0.9428 444.4082 34.0422)">
					<stop  offset="0" style="stop-color:#A43113"/>
					<stop  offset="1" style="stop-color:#6F160D"/>
				</linearGradient>
				<path class="st47" d="M110,257.1c-0.1,2.8-1.3,4.9-2.8,4.7c-1.5-0.3-2.6-2.8-2.5-5.6c0.1-2.8,1.3-4.9,2.8-4.7
					C109,251.7,110.1,254.2,110,257.1z"/>
				<path class="st14" d="M109.3,257c-0.1,2-1,3.5-2,3.4c-1.1-0.2-1.9-2-1.8-4c0.1-2,1-3.5,2-3.4C108.5,253.2,109.3,255,109.3,257z"
					/>
				<path class="st12" d="M105.5,256.4c1.2,0.1,1.9,0.3,1.7,0.5c-0.2,0.3-1.4,0.4-2.5,0.4c-1.2-0.1-1.9-0.3-1.7-0.5
					C103.2,256.6,104.3,256.4,105.5,256.4z"/>
				<path class="st11" d="M106.7,249.6c-2.4-0.4-4.4,2.9-4.5,7.5c-0.1,2,0.3,4,0.9,5.5c-0.9-1.7-1.4-4-1.3-6.5
					c0.1-4.5,2.1-7.9,4.5-7.5c1.3,0.2,2.4,1.5,3.2,3.4C108.8,250.7,107.8,249.8,106.7,249.6z"/>
			</g>
			<path class="st14" d="M110.5,270.8c0,0-1.5,3.8-4.2,6.8c0,0,0,0-0.1,0.1c-1.9,2.1-4.2,3.8-7,3.4c-3-0.4-5.4-1.5-7.4-2.6
				c0,0,0,0,0,0c-3.3-2-4.3-4.5-4.3-4.5s9.6-2.2,13-2.5C107.2,270.8,110.5,270.8,110.5,270.8z"/>
			<path class="st36" d="M106.4,277.6c0,0,0,0-0.1,0.1c-1.9,2.1-4.2,3.8-7,3.4c-3-0.4-5.4-1.5-7.4-2.6c0,0,0,0,0,0s4.3-1,8.5-1.1
				S106.4,277.6,106.4,277.6z"/>
			<path class="st12" d="M94.7,273l0.4,1.8l5.7-0.7v-1.9l0.7,1.9l3.6-0.6l0.6-2.1C105.7,271.4,100,271.5,94.7,273z"/>
			<path class="st12" d="M103.5,279.9l-0.2-0.7l-2.9,0.3v1l-0.3-0.9l-1.8,0.3l-0.2,0.8C98,280.6,101.4,281.6,103.5,279.9z"/>
			
				<linearGradient id="SVGID_16_" gradientUnits="userSpaceOnUse" x1="259.6321" y1="210.9554" x2="280.6264" y2="258.1096" gradientTransform="matrix(1 0 0 1 -185.7496 0)">
				<stop  offset="0" style="stop-color:#A43113"/>
				<stop  offset="1" style="stop-color:#6F160D"/>
			</linearGradient>
			<path class="st48" d="M107.8,235.5c0,0,8.7-5.1,11.6-9.2c2.8-4.2,0.4-8.8,0.4-8.8s2.7-10-3-12.8c-5.7-2.8-16.1,5.7-16.1,5.7
				s-9.8-7.8-15.5-4.4c-5.7,3.4-6.6,8.6-6.6,8.6s-7.6-2.6-11.6-0.4c-4,2.2-1,8.6-1,8.6s-9.9-1.1-12.4,2.7c-2.5,3.7,2,13.5,2,13.5
				s-11.4-1.4-11.8,3.1c-0.4,4.5,7.6,11.4,7.6,11.4s-4.5-2.1-4.9,1c-0.5,4.5,15.1,14.8,15.1,14.8l6.9,0.7c0,0-0.9-22.3,4.5-28.6
				C82.7,229.9,107.8,235.5,107.8,235.5z"/>
			<path class="st11" d="M62.9,279.3c-6.4,0.8-10.6-5.7-10.5-9.7c0-0.8,0.3-1.4,0.9-1.8c3.1-1.9,10.8,0.4,13.1,1.2
				c0.1,0,0.2,0.1,0.2,0.1c0.3,0.1,0,0,0,0l4.4,5.8C70.9,274.8,70.5,278.3,62.9,279.3z"/>
			<path class="st5" d="M67.1,270c0,0-1.4-0.6-6.9-0.9c-5-0.3-7.6,0.4-7.9,0.5c0-0.8,0.3-1.4,0.9-1.8c3.1-1.9,10.8,0.4,13.1,1.2
				c0.1,0,0.2,0.1,0.2,0.1L67.1,270z"/>
			<path class="st11" d="M96.3,268.4c0,0,1.8,0.4,4.6,0.1c2.8-0.3,4.1-1.1,4.1-1.1s-1.5,2.6-4,2.6S96.3,268.4,96.3,268.4z"/>
			<path class="st14" d="M78.6,247.9c0,0,1.2-3.4,5.5-6.1c3.3-2.1,6.5-1.6,6.5-1.6s0.5,1.6-2.6,2.7
				C84.9,244.1,83.6,242.8,78.6,247.9z"/>
			<path class="st14" d="M104.6,240.7c0,0,2.7,0.2,4.9,1.9c2.3,1.7,1.9,6.1,1.9,6.1s0.1-2-1.2-3.5
				C108.9,243.8,104.6,243.5,104.6,240.7z"/>
			<path class="st19" d="M110.6,231.9c0,0,4.2-2.1,6.5-4.9c2.3-2.8,2.4-7.5,2.4-7.5l-1.8,2c0,0,1.1-2.6,1.5-6.1
				c0.4-3.5-1.1-8.5-1.1-8.5s0,7.7-3.1,13.9c-3.1,6.2-7.5,9.8-7.5,9.8l4.6-1.1L110.6,231.9z"/>
			<path class="st19" d="M91.5,206.9c0,0,3.4,3,4.1,9.6c0.7,6.5-2,12.6-2,12.6s4.7-7.9,5-14S91.5,206.9,91.5,206.9z"/>
			
				<linearGradient id="SVGID_17_" gradientUnits="userSpaceOnUse" x1="747.9346" y1="264.5047" x2="749.7564" y2="268.5965" gradientTransform="matrix(-1 0 0 1 811.5016 0)">
				<stop  offset="0" style="stop-color:#A43113"/>
				<stop  offset="1" style="stop-color:#6F160D"/>
			</linearGradient>
			<polygon class="st49" points="68.4,269.9 67.1,270 58.9,267.3 56,265.2 68.3,266.6 			"/>
			<path class="st24" d="M105.3,394l0-0.1c0.1-7,0.4-17.6,0.7-25.4c0.2-4,0.2-7.5,0.2-10.4c-1.5,2.4-4,6.8-4.3,9.2
				C101.7,370.7,105.3,394,105.3,394z"/>
			<path class="st24" d="M72.2,391.8C72.2,391.8,72.2,391.8,72.2,391.8c4-4.4,9.1-10.1,10.9-13.5c2.3-4.3,5.4-12.2,7-16.5
				c0,0,0-0.1,0-0.1s-6.8,1-9.1,4.4c-2.3,3.4-2.9,10.7-4.4,14.8C75.1,384.8,72.3,391.4,72.2,391.8z"/>
			<path class="st11" d="M65.1,327.2c2.5,2.4,19.3-0.2,23.8-0.9l0.1,0c0,0-15.6,1.3-19.5,0.1c-3.9-1.2-2.4-8.5-0.5-11.3
				c1.9-2.8,7.8-3.1,7.8-3.1l0.9-1.5l-6.6-4.7l0,0l0,0C70.7,306.7,61.4,323.6,65.1,327.2z"/>
			<path class="st11" d="M100.7,330.3c0.3-0.4,5.4-10.1,5.6-11.2c0.2-1.1-0.1-2.8-1.1-5.4c-0.8-2.3,0.6-6.6,0.7-6.8c0,0,0,0,0,0
				l-0.7-1.4l-0.2-0.3h0l-3,2.7c0.7,2.4,1.8,6.8,1.8,9.6C104,320.4,101.8,327.1,100.7,330.3z"/>
		</g>
		<g>
			<polygon class="st5" points="315.1,361.7 314.5,370.2 317.8,371.2 319.4,363 			"/>
			
				<linearGradient id="SVGID_18_" gradientUnits="userSpaceOnUse" x1="479.4278" y1="378.252" x2="499.562" y2="378.252" gradientTransform="matrix(-1 0 0 1 811.5016 0)">
				<stop  offset="0" style="stop-color:#590800"/>
				<stop  offset="1" style="stop-color:#6F160D"/>
			</linearGradient>
			<path class="st50" d="M312,377c0.4,0.9,6.1,7,11.3,8.7c5.2,1.7,8.4-0.1,8.4-0.1s0.8-1.2,0.2-2.1c-0.1-0.1-0.3-0.3-0.6-0.5
				c-1.6-1-5.8-2.4-7.5-3.8c-1.1-1-2.8-3.3-4.1-5.2c-1-1.5-1.8-2.7-1.8-2.7l-3.4-1C314.5,370.2,311.6,376.1,312,377z"/>
			<path class="st19" d="M316.1,373.5c0,0,2.5,5.9,6.1,7.7c3.6,1.9,9.1,1.7,9.1,1.7c-1.6-1-5.8-2.4-7.5-3.8c-1.1-1-2.8-3.3-4.1-5.2
				L316.1,373.5z"/>
			<path class="st51" d="M345.7,240.9c0,0,2.3,54.2,1.5,61.3c-0.8,7.1-26.5,67-26.5,67l-7.5-3.3l11.5-98.3l-22.6-38.9L345.7,240.9z"
				/>
			<polygon class="st5" points="328,369.2 330.2,378.8 334.3,378.8 333.1,369.2 			"/>
			<path class="st5" d="M334.3,378.8c0,0,4.4,3.8,7.5,6.1c3,2.3,12.5,3.1,12.3,4.3c-0.2,1.2-5.6,4.2-11.4,2.7
				c-5.9-1.5-11.2-4.3-11.5-5.6s0.3-7.6,0.3-7.6H334.3z"/>
			<path class="st36" d="M299.3,261.8c0,6,12,41,16,58.2c4,17.2,11.9,54.7,11.9,54.7l3.8-0.2h0l5-0.3c0,0-0.4-45.2-1.5-64.8
				c-0.8-14.1-2.1-28.5-3-38.2c-0.7-7.1-1.2-11.6-1.2-11.6s-4.3-8.3-12-16c-7.7-7.7-16.1-15-16.1-15S299.3,256.9,299.3,261.8z"/>
			
				<linearGradient id="SVGID_19_" gradientUnits="userSpaceOnUse" x1="456.857" y1="385.9208" x2="482.0264" y2="385.9208" gradientTransform="matrix(-1 0 0 1 811.5016 0)">
				<stop  offset="0" style="stop-color:#A43113"/>
				<stop  offset="1" style="stop-color:#6F160D"/>
			</linearGradient>
			<path class="st52" d="M329.7,387.3c0.8,0.9,9.2,5.7,15.5,5.8c6.4,0.1,9.3-3,9.3-3s0.5-1.6-0.5-2.4c-0.1-0.1-0.5-0.2-0.8-0.3
				c-2.1-0.5-7.3-0.6-9.6-1.7c-1.6-0.7-4.3-2.7-6.4-4.4c-1.7-1.3-2.9-2.4-2.9-2.4h-4.1C330.2,378.8,329,386.4,329.7,387.3z"/>
			<path class="st19" d="M333.1,382c0,0,4.8,5.7,9.4,6.5c4.6,0.8,10.6-1.2,10.6-1.2c-2.1-0.5-7.3-0.6-9.6-1.7
				c-1.6-0.7-4.3-2.7-6.4-4.4L333.1,382z"/>
			<path class="st53" d="M331,374.5L331,374.5l5-0.3c0,0-0.4-45.2-1.5-64.8c-0.8-14.1-2.1-28.5-3-38.2c-0.2,0.9-4.8,19.8-5.7,33.7
				C324.8,319.2,331,374.5,331,374.5z"/>
			<polygon class="st19" points="334.1,241 330.8,262.5 331.4,240.8 			"/>
			<path class="st19" d="M304,230c0,0-1.6,29,0,37.8c1.6,8.8,10.1,34.2,13.1,46.1c3,11.9,12,60.6,12,60.6l0.8,0.1
				c0,0-9-50.8-11.2-60.9s-13-38.2-13.8-49.3c-0.9-11.1-0.1-33.7-0.1-33.7L304,230z"/>
			<path class="st5" d="M345.7,175c0,0,0.5,30.8,2.4,40.2c1.8,9.2,6.1,31.8,6.4,33.2c0,0.1,0,0.1,0,0.1l4.4,0.8
				c0,0,2.3-23.7,2.5-38.4c0.1-8.9-0.9-29.5-0.9-29.5c-0.3-5.4-0.6-9.1-0.6-9.1l-3.6-2l-0.8-0.4l-4.5,2.2L345.7,175z"/>
			<path class="st5" d="M355.4,246.8c0,1.4-4.7,5.4-5.1,7.4c-0.3,2-0.4,7.3-0.4,7.3s1.2-0.1,1.7-2.3c0.5-2.1,1.5-4,1.5-4
				s0.6,2.8,0.6,5.4c0,2.6-0.1,4.3,0.2,5c0.3,0.7,1.8-2.8,1.8-4.6c0-1.8,0.1-2.5,0.1-2.5s0.1,1.7-0.2,3.9c-0.3,2.2-1.3,4.1-1,4.7
				c0.3,0.6,2.2-2.5,2.8-5.7c0.3-2.1,0.1-3.2,0.1-3.2s0.1,1.1-0.2,3.6c-0.3,2.5-1.3,3.8-1,4.3c0.4,0.5,2.6-2.7,2.9-5.2
				c0.3-2.4,0-3.4,0-3.4s0.5,1.7,0.3,3.6c-0.1,1.9-1.9,4.1-1.3,3.8c0.6-0.3,3.5-3,3-7.3c-0.3-3-2.9-10.1-3.3-11.5
				C357.8,244.8,355.4,245.3,355.4,246.8z"/>
			<path class="st11" d="M345.7,175c0,0,0.5,30.8,2.4,40.2c1.8,9.2,6.1,31.8,6.4,33.2c-0.2-1.7-2.9-32.4-1.8-43.1
				c1.1-11,7.9-23.8,7.9-23.8v0c-0.3-5.4-0.6-9.1-0.6-9.1l-3.6-2l-5.2,1.8L345.7,175z"/>
			<path class="st5" d="M290.5,90.4C290.5,90.4,290.5,90.4,290.5,90.4C290.5,90.4,290.5,90.4,290.5,90.4
				C290.5,90.4,290.5,90.4,290.5,90.4z"/>
			<path class="st11" d="M326.6,126.5l0.2,8.6c0,0-1,1.8-3.7,2.1s-7.7-2-7.7-2L317,123C317,123,322.9,126.4,326.6,126.5z"/>
			
				<linearGradient id="SVGID_20_" gradientUnits="userSpaceOnUse" x1="489.5621" y1="241.1461" x2="489.5621" y2="127.425" gradientTransform="matrix(-1 0 0 1 811.5016 0)">
				<stop  offset="0" style="stop-color:#29AFEA"/>
				<stop  offset="1" style="stop-color:#76BFDE"/>
			</linearGradient>
			<path class="st54" d="M303.5,210.3c0.7,6.7-3.7,16.3-3.7,16.3s1.3,1.3,4.1,3.4l0.1,0c2.9,2,7.4,4.7,13.8,7.4
				c5.7,2.4,12.2,3.3,17.7,3.6c7,0.3,12.3-0.4,12.3-0.4s-1-8,0.2-24.3c1.2-16.3,4.2-40.9,4.2-40.9l12.9-5.3c0,0-2.6-12.4-10-21.6
				c-7.4-9.3-21-11.4-21-11.4l-7.4-7.4l-2.8,5.8l-7.5-8.3l-4.1,8c0,0-9.4,0.3-17.8,7.2c-8.4,6.9-15.6,28.6-15.6,28.6s11,2,14,2.9
				c3,0.9,8.4,3.8,8.4,3.8S302.8,203.7,303.5,210.3z"/>
			<polygon class="st55" points="326.7,129.9 334.1,137.3 329.9,148.8 323.9,135.7 			"/>
			<polygon class="st55" points="365.1,170.3 365.6,172.8 351.9,178.3 352.2,175.5 			"/>
			<path class="st56" d="M299.8,226.7l4.1,3.4l0.1,0c2.9,2,7.4,4.7,13.8,7.4c5.7,2.4,12.2,3.3,17.7,3.6c-6-4.1-18.8-14.3-21.4-26.4
				c-3.4-15.9-7.1-28.8-5.7-35.2c1.3-6,4.2-10.4,4.6-10.9l-6.1,6.9l5.3-11.5c0,0-4.4,2.5-7.3,6.8c-2.8,4.2-3.7,7.2-3.7,7.2
				s1.6,25.7,2.2,32.3C304.2,217,299.8,226.7,299.8,226.7z"/>
			<path class="st56" d="M351.9,178.3c0,0,0-6.6-0.8-10.6c-0.8-4-2.7-8.5-2.7-8.5s3.6,5.1,4.8,11.1c1.2,5.9,1.3,7,1.3,7L351.9,178.3
				z"/>
			<path class="st56" d="M294.4,142.7c0,0,5.1-0.6,13,0.7c7.9,1.3,13.7,5.7,13.7,5.7l2-4.7l6.9,4.5l-6-13.1l-11.7-0.3
				C312.2,135.5,302.8,135.8,294.4,142.7z"/>
			<polygon class="st55" points="323.9,135.7 321.1,149 312.2,135.5 316.3,127.4 			"/>
			<g>
				<path class="st5" d="M299.4,108.1c4.6,9.3,17,20.7,29.5,19.9c2.3-0.1,4.5-0.6,6.6-1.3c0,0,0.1,0,0.1,0c8.7-3,14.2-10.2,14.5-13
					c0.4-3.5-3.5-13.4-3-22.7c0.4-9.2-5-20.9-19.5-22.6C293.2,64.3,294.8,98.9,299.4,108.1z"/>
				<path class="st11" d="M337.9,101.7c0,0,4.1,4.7,7.7,2.5c1.2-0.8,1.5-1.8,1.5-2.9c-0.1-3.3-2.8-6.6-2.8-6.6s2.4,6.1,0.3,7.5
					C342.5,103.5,337.9,101.7,337.9,101.7z"/>
				<path class="st11" d="M324.2,100.9c0,0-2.5,1.9-6.5,1.8c-4.1-0.1-4.7-1.3-4.8-3.1c-0.1-1.9,1.1-6.1,2.9-7.1c1.8-1,5,3.4,5,3.4
					L324.2,100.9z"/>
				<path class="st11" d="M299.4,108.1c4.6,9.3,17,20.7,29.5,19.9c2.3-0.1,4.5-0.6,6.6-1.3l0.1,0c-0.2,0.1-4.1,1.4-11.9-0.1
					c-8.1-1.6-17.1-16.5-18.5-26.2c-1.4-9.7,12.5-18.3,23.5-19.3c11-1,18.5,9.9,18.5,9.9c0.4-9.2-5-20.9-19.5-22.6
					C293.2,64.3,294.8,98.9,299.4,108.1z"/>
				<path class="st12" d="M324.2,100.9c0,0,0-8.5-5.7-9c-5.7-0.5-4.8,8-3.9,9C315.6,101.9,319.6,103,324.2,100.9z"/>
				<path class="st12" d="M337.9,101.7c0,0-1.4-7.2,2.4-8.4c3.8-1.2,6.8,4.9,5.9,8.1C345.2,104.5,339.3,103.5,337.9,101.7z"/>
				
					<linearGradient id="SVGID_21_" gradientUnits="userSpaceOnUse" x1="490.0376" y1="104.5938" x2="495.3125" y2="104.5938" gradientTransform="matrix(-0.9957 9.280000e-002 9.280000e-002 0.9957 801.4154 -52.2729)">
					<stop  offset="0" style="stop-color:#A43113"/>
					<stop  offset="1" style="stop-color:#6F160D"/>
				</linearGradient>
				<path class="st57" d="M317.9,97.8c0.2,2.2,1.5,3.8,3,3.7s2.5-2,2.3-4.2c-0.2-2.2-1.5-3.8-3-3.7
					C318.7,93.8,317.7,95.7,317.9,97.8z"/>
				
					<ellipse transform="matrix(-0.9957 9.278466e-002 -9.278466e-002 -0.9957 648.8024 165.0183)" class="st14" cx="320.6" cy="97.6" rx="2.1" ry="3.1"/>
				
					<linearGradient id="SVGID_22_" gradientUnits="userSpaceOnUse" x1="522.2704" y1="20.2141" x2="526.9666" y2="20.2141" gradientTransform="matrix(-0.997 7.700000e-002 7.700000e-002 0.997 864.8303 38.2106)">
					<stop  offset="0" style="stop-color:#A43113"/>
					<stop  offset="1" style="stop-color:#6F160D"/>
				</linearGradient>
				<path class="st58" d="M341,98.9c0.1,1.9,1.3,3.4,2.6,3.3c1.3-0.1,2.2-1.7,2.1-3.7c-0.1-1.9-1.3-3.4-2.6-3.3
					C341.8,95.4,340.9,97,341,98.9z"/>
				
					<ellipse transform="matrix(-0.997 7.702211e-002 -7.702211e-002 -0.997 693.2711 170.781)" class="st14" cx="343.3" cy="98.8" rx="1.8" ry="2.7"/>
				
					<ellipse transform="matrix(-0.9709 0.2396 -0.2396 -0.9709 696.4183 113.5626)" class="st12" cx="341.3" cy="99.1" rx="3.1" ry="0.4"/>
				
					<ellipse transform="matrix(-0.9709 0.2395 -0.2395 -0.9709 650.0107 116.6989)" class="st12" cx="317.9" cy="97.9" rx="2.9" ry="0.5"/>
				<path class="st14" d="M336.6,119.1c0,0-3.2,3.6-8.9,3.4c-6.8-0.2-10.2-9.1-10.2-9.1S325.7,118.8,336.6,119.1z"/>
				<path class="st12" d="M333.8,119.3c0,0-2.6,2.7-6.8,2.7c-4.2,0-9.1-8.1-9.1-8.1S326,119.5,333.8,119.3z"/>
				<path class="st14" d="M318.9,116.1c0,0,1.7,1.5,3.5,2.4c1.8,0.8,4,1.7,4,1.7s-2.5-0.5-4.3-1.3c-1.8-0.8-2.4-1.4-2.4-1.4
					L318.9,116.1z"/>
				<path class="st14" d="M329.9,110.3c4.1,0.4,10.9,9.4,10.9,9.4l-7.5-1.5l-2.8-4.5l1,4.1c0,0-3.7-1.1-8.7-2.7
					c-5-1.5-7.2-3.2-7.2-3.2S321,109.5,329.9,110.3z"/>
				<path class="st16" d="M335.4,106.3c0.5-1.3-5.7-1.9-7.6-0.8C325.8,106.6,335,107.3,335.4,106.3z"/>
				<path class="st14" d="M333.5,103.4c0,0,5.8,4.1,4.9,5.9c-0.5,0.9-4.3,2.5-8.2,1.2c-3.1-1.1-5.1-2.9-5.1-2.9s2.8,1.4,5.7,1.9
					c2.9,0.5,5.7-0.6,6-1.3C337.3,107.1,333.5,103.4,333.5,103.4z"/>
				<path class="st14" d="M322.3,84.7c0,0-3.5,0.6-7.8,2.6c-4.2,2-5.9,4.2-5.9,4.2s-1.5-1.8-1.5-3.1c0-1.3,7.4-6,10-7.1
					c2.6-1.1,2.6-1.1,2.6-1.1l1,2.5l2.2-1.6L322.3,84.7z"/>
				<path class="st14" d="M346.1,90.7c0,0-1.6-2.3-4.3-4.2c-2.7-1.9-5.4-2.8-5.4-2.8l-0.6-4.3l1.4,2.2l1.1-2.4c0,0,3.7,2,6.5,4.8
					C347,86.3,346.1,90.7,346.1,90.7z"/>
				<path class="st11" d="M295.2,115.2c3.4,0.6,6.9-2.6,6.9-2.6l-3.2-8.2c0,0,0,0,0,0c-0.5-0.4-9.1-7.3-11.9-4.8
					c-0.3,0.3-0.6,0.7-0.7,1.1c0,0,0,0,0,0c0,0.1,0,0.1,0,0.2c0,0,0,0,0,0c0,0,0,0,0,0C285.2,105.1,291.6,114.5,295.2,115.2z"/>
				<path class="st5" d="M286.2,100.6c0,0.1,0,0.1,0,0.1c0.2-0.2,0.8-0.6,3.6,0.3c3.7,1.1,9.4,5.2,9.4,5.2l1.3-0.7
					c0,0-1.6-1.3-1.6-1.3c-0.5-0.4-9.1-7.3-11.9-4.8C286.6,99.8,286.4,100.2,286.2,100.6C286.2,100.6,286.2,100.6,286.2,100.6z"/>
				<path class="st14" d="M297.6,103.4l2.9,2.2c0,0,0.9-24.3,5.8-27.9c4.9-3.5,34.8-1.4,38.6,4.2c2.1,3,2.5,15,2.5,15.7
					c0.2-0.8,6.3-21.4,4.8-25c-1.6-3.6-19.7-18.7-40.1-14.8c-7.4,1.4-12.4,3.1-15.9,5l0,0c-6.2,3.3-7.6,6.9-8.5,9.2
					C286.3,75.5,297.6,103.4,297.6,103.4z"/>
				<path class="st19" d="M313.5,72.3l-5.8-7c0,0,7.2,5.3,19.4,7.1c12.2,1.8,25,0.1,25,0.1c-1.6-3.6-19.7-18.7-40.1-14.8
					c-7.4,1.4-12.4,3.1-15.9,5l0,0L313.5,72.3z"/>
			</g>
			<path class="st5" d="M334.1,198.6L334.1,198.6c-1.2,0.4-44.2,13.9-50,10.4c-5.8-3.5-2.3-35.1-2.3-35.1c7.7,0.2,18,6.3,18,6.3
				s-0.3,1.6-0.6,3.7c-0.5,3.9-0.6,8.6,0.6,9.7c1.8,1.7,32.7,0.4,32.7,0.4L334.1,198.6z"/>
			<polygon class="st8" points="338.8,191.4 339.6,183.6 349.2,184.6 346.5,201.2 338.2,201.2 			"/>
			<polygon points="345.2,184.2 343.3,201.2 345.7,201.2 348.4,184.5 			"/>
			<path class="st5" d="M330.2,195.9c1.4-0.5,4.2-5.8,6-7.1c0.6-0.5,2.9-0.8,2.9-0.8l-0.2,2.3l-1,0.8c0,0,2.9-0.3,5.6-1.1
				c2.6-0.8,4.3-1.5,5.1-1.4c0.8,0.1-2.2,2.7-4,3.3c-1.8,0.6-2.4,0.9-2.4,0.9s1.7-0.4,3.9-1.4c2.1-1,3.7-2.6,4.3-2.4
				c0.7,0.1-1.8,3-4.8,4.5c-2,1-3.1,1.1-3.1,1.1s1.1-0.2,3.5-1.3c2.4-1.1,3.4-2.5,4-2.3c0.6,0.2-1.9,3.5-4.2,4.6
				c-2.3,1.1-3.4,1.1-3.4,1.1s1.8-0.1,3.7-0.8c1.8-0.7,3.5-3.2,3.3-2.5c-0.2,0.7-1.9,4.5-6.3,5.3c-3.1,0.6-11,0.3-12.5,0.3
				C329,198.9,328.8,196.4,330.2,195.9z"/>
			<path class="st11" d="M334.1,198.6c-1.2,0.4-44.2,13.9-50,10.4c-5.8-3.5-2.3-35.1-2.3-35.1c7.7,0.2,18,6.3,18,6.3
				s-0.3,1.6-0.6,3.7c0,0-10.6,8.9-13.1,15.9s10.6,5.9,19.5,4.6C314.3,203.2,333.2,198.8,334.1,198.6z"/>
			<path class="st55" d="M301.3,178l-0.5,2.7c0,0-4.1-2.4-11-4.6s-11.6-3-11.6-3l1-3c0,0,5,1.2,12.5,3.5
				C299.2,175.9,301.3,178,301.3,178z"/>
		</g>
	</g>
	<g>
		<g>
			<path class="st1" d="M531,201.9c0,8.6,7.5,15.6,16.7,15.6c5.2,0,9.9-2.3,12.9-5.8c0,0,0,0,0,0c2.3-2.7,3.7-6.1,3.7-9.8
				c0-8.6-7.5-15.6-16.7-15.6c-5.5,0-10.4,2.5-13.4,6.4l0,0l-0.8,1.1l0,0C531.8,196.2,531,199,531,201.9z"/>
			<path class="st2" d="M531,201.9c0,8.6,7.5,15.6,16.7,15.6c5.2,0,9.9-2.3,12.9-5.8c-0.5,0.1-11.3,2.2-19.5-3.1
				c-8.3-5.4-6.9-16-6.9-16l0,0l-0.8,1.1l0,0C531.8,196.2,531,199,531,201.9z"/>
			<path class="st59" d="M540.9,216.2c0,0,2.5-2.6,0-4.8c-2.5-2.3-2.9-1.9-2.7-3s6.3-2.1,5.3-3.3c-1-1.2-4.6-1.5-5.3-2.3
				c-0.7-0.9,1.2-3.8,0-5.6c-1.2-1.8-1.4-1.2-2.4-1.8c-1-0.6-3.3-2.7-4.2-2.7c-0.9,0-3.6,6.2-2.2,12.8
				C530.8,212.1,540.9,216.2,540.9,216.2z"/>
			<path class="st59" d="M545.3,217.4c0,0,2.5-3.1,5.2-3.9s11.2-3.1,11.2-5.2s-3.4-7.1-1.5-8.7s3.7-1.4,3.7-1.4s3.6,4.8,0,12.1
				C558.6,220.8,545.3,217.4,545.3,217.4z"/>
		</g>
		<g>
			<path class="st60" d="M565.3,204.4l8.9,7.1l3.9-1.9c0,0-9.6-14-11.1-15.2c-1.5-1.2-9.2-3.2-11.8-0.2c-2.2,2.7-2.2,7.1,0.8,9.8
				S565.3,204.4,565.3,204.4z"/>
			<polygon class="st5" points="610.4,353.5 609.1,361.5 606.8,361 606.2,352.4 			"/>
			<path class="st5" d="M606.8,361c0,0-4.2,2.6-7,4.1c-2.8,1.5-10.6,0.8-10.6,1.8c0,1,3.9,4.4,8.9,4.1c5-0.3,9.7-1.9,10.1-3
				c0.4-1,0.8-6.5,0.8-6.5L606.8,361z"/>
			<path class="st61" d="M608.9,364.5c0,0-6.5,4.2-9.7,4.3c-3.2,0.1-5-2.6-5-2.6s-4.9-0.4-4.9,0.7c0,1.2,2.5,4.1,7.5,4.6
				c5,0.4,10.7-2.1,11.5-3.1C609.1,367.3,608.9,364.5,608.9,364.5z"/>
			<path class="st62" d="M651.6,354.4l-6.7,1.3l-0.2,0.1c0,0-2.5-6.8-5.5-15.6c-3.6-10.5-7.9-23.7-9.6-31.3
				c-1.6-7.6-4-20.4-5.7-30.6c-1.5-8.7-2.7-15.5-2.7-15.5s-6.2,47.3-5.7,58.3c0.5,11-4.6,34.7-4.6,34.7h-7c0,0-2-11.5-3.8-25.5
				c0,0,0,0,0,0c-1.1-9.1-2.2-19.3-2.4-28.1c-0.3-11.2-0.9-28-1.3-42c-0.3-9.9-0.6-18.4-0.7-22.5c0-0.1,0-0.1,0-0.2l0-0.2
				c0-1.5-0.1-2.3-0.1-2.3h0l51.3-4.7c0,0,1.5,9.4,1.9,16.1c0.5,6.7-1.9,54.8-0.2,64.2C650.3,319.7,651.6,354.4,651.6,354.4z"/>
			<polygon class="st5" points="650.4,354.6 651.5,362.5 649.2,362.5 646.4,355.4 			"/>
			<path class="st5" d="M649.2,362.5c0,0-3.7,3.3-6.2,5.3c-2.5,2-10.3,2.7-10.1,3.7c0.2,1,4.6,3.6,9.4,2.4c4.8-1.3,9.2-3.7,9.4-4.8
				c0.2-1.1-0.3-6.6-0.3-6.6H649.2z"/>
			<path class="st61" d="M651.8,365.5c0,0-5.7,5.3-8.8,6c-3.1,0.7-5.4-1.6-5.4-1.6s-4.9,0.5-4.7,1.6c0.2,1.1,3.2,3.6,8.1,3.1
				c5-0.5,10.2-4.1,10.8-5.2C652.4,368.2,651.8,365.5,651.8,365.5z"/>
			<path class="st63" d="M648.4,352.5c0.1-2.6-5.1-38.6-4.9-57.2c0.2-18.7,1-42.7-2.5-47.5c-3.5-4.8-44.5-10.1-45.4-10.2
				c0,0,0,0,0,0v-0.2l0-0.2l0-2.3l51.3-4.7c0,0,1.5,9.4,1.9,16.1c0.5,6.7-1.9,54.8-0.2,64.2c1.7,9.3,3,44,3,44l-6.7,1.3
				C645.7,355.5,648.3,354.6,648.4,352.5z"/>
			<path class="st63" d="M615.4,321.1c0.5,11-4.6,34.7-4.6,34.7h-5.3c0,0,3.3-7,4.9-15.2c1.6-8.2,2.7-18,2.1-36.2
				c-0.6-18.2,3.6-45.2,3.6-45.2l5,3.5C621.1,262.7,614.9,310.1,615.4,321.1z"/>
			<path class="st19" d="M600,330.2c-1.1-9.1-2.2-19.3-2.4-28.1c-0.3-11.2-0.9-28-1.3-42c1.8,1.9,6,7.1,7,13.8
				C604.6,282.5,600.1,329.3,600,330.2z"/>
			<path class="st19" d="M639.1,340.2c-3.6-10.5-7.9-23.7-9.6-31.3c-1.6-7.6-4-20.4-5.7-30.6c3.5,6.3,9.4,17.6,11.3,24.5
				C637.8,312.7,639.1,340.2,639.1,340.2z"/>
			<path class="st5" d="M613.5,158.3c0,0-1.6,6.8-4.3,14.3c-3.3,9-8.1,19-13.6,18.9c-9.6-0.2-47.4-11.7-49.7-12.4l-0.1,0l0,0
				c0,0,0,0,0,0l0.4-2.3c0,0,38.8,3.2,45.1,0.4c1.6-0.7,3.8-3.2,6.1-6.2c2.2-2.9,4.4-6.3,6.2-9.1c2-3.3,3.4-5.7,3.4-5.7
				C609.6,158,613.5,158.3,613.5,158.3z"/>
			<path class="st11" d="M613.5,167.6c-3.3,9-12.5,24-17.9,23.9c-9.6-0.2-47.4-11.7-49.7-12.4l-0.1,0c1.7,0.3,38.3,7.3,43.7,5.8
				c5.6-1.5,7.8-14,7.8-14c2.2-2.9,8.2-13.5,10-16.3l1.6,12.4L613.5,167.6z"/>
			<path class="st61" d="M632.1,137.2l-11.2,9.6l-12.5,10.7l-0.9-0.8l-4.6-4.1c0,0,5.4-4.6,12.3-8.4l2-1.1
				C624.6,139.4,631.7,137.3,632.1,137.2z"/>
			<path class="st61" d="M654.7,225L654.7,225c-0.5,0.4-11.1,16.4-49.3,15.1c-16-0.5-11.5-3.9-11.5-3.9s7.1-17.5,12.5-39.7
				c2.3-9.6,1.8-19.4,2-20c0.1-0.5-0.4-1.6-1.1-3c-1.4-2.9-3.8-6.9-4-8.8c0-0.1,0-0.2,0-0.4c0.1-1.7,1.6-4.3,4.3-7.7
				c1.6-2,3.5-4.2,5.8-6.6c1.4-1.5,3.2-3,5-4.4c6.1-4.6,13.3-8.3,13.8-8.5c0,0,0,0,0,0s0.5,1.3,2.7,0.6c1.1-0.3,2-0.7,2.6-0.9
				c0.6-0.2,0.9-0.4,0.9-0.4s0,0.2,0,0.6c0,0.2,0,0.4,0,0.8c0.1,2,0.2,6.3,0.4,11.6c0.2,5.8,0.6,12.8,1,19.9c0.2,3,0.4,6,0.7,8.9
				c0.8,9.2,1.8,17.4,3.1,21.5C647.7,212.1,654.7,225,654.7,225z"/>
			<path class="st30" d="M645.5,68.1c0,0,15.7-8.1,19.6-7.9s12.4,7.7,15.5,15.7c3.1,8,3.4,32.5,3.4,32.5l-4.1-10.6
				c0,0-7,9.8-7.5,25.7c-0.5,15.9,5.8,24,5.8,24l-7.3-4.2l3.3,4.2c0,0-18.8-6.4-20.3-14.5s6.8-42.9,5.1-51.2
				c-1.6-8.3-8.4-10.3-8.4-10.3L645.5,68.1z"/>
			<path class="st30" d="M598.2,88.3c0,0-0.7,4.2,0.6,9.2s9,14.7,9,14.7l1.5-25.3L598.2,88.3z"/>
			<path class="st11" d="M638.2,126.2c0,0-0.6,4.4-0.3,6.9c0.2,2.5,1,5.1,1,5.1s-1.1,1.2-3.9,1c-2.7-0.2-2.8-1.4-2.8-1.4
				s0.6-1.1,1.1-4c0.5-2.9,0.1-5.1,0.1-5.1L638.2,126.2z"/>
			<path class="st5" d="M652.8,112.3c-4,7-14,15.4-20.5,17.1c-0.5,0.1-1,0.2-1.6,0.3c-7,0.8-17.1-3.1-19.4-6.1
				c-2.5-3.2-2-5.8-3.8-14.8c-0.6-3.1-1.5-7.6-2.1-12.3c-0.2-1.7-0.3-3.4-0.3-5.1c0-1.5,0.2-3,0.5-4.5l0,0c1.3-5.8,5.3-11,15.3-13.3
				C656.8,65,656.8,105.3,652.8,112.3z"/>
			<g>
				<path class="st12" d="M644.5,104.8c0,0-0.5,2.1-4.4,2.8c-3.8,0.6-12.2-0.2-12.2-0.2s0.3-7.5,4.9-9
					C637.6,96.9,644.5,104.8,644.5,104.8z"/>
				
					<linearGradient id="SVGID_23_" gradientUnits="userSpaceOnUse" x1="2946.7173" y1="94.485" x2="2953.9341" y2="94.485" gradientTransform="matrix(-0.997 7.770000e-002 7.770000e-002 0.997 3567.2571 -220.795)">
					<stop  offset="0" style="stop-color:#A43113"/>
					<stop  offset="1" style="stop-color:#6F160D"/>
				</linearGradient>
				<path class="st64" d="M629.5,102.9c0.2,2.6,2,4.6,4,4.5c2-0.2,3.4-2.4,3.2-5c-0.2-2.6-2-4.6-4-4.5
					C630.8,98,629.3,100.3,629.5,102.9z"/>
				
					<ellipse transform="matrix(-0.997 7.764728e-002 -7.764728e-002 -0.997 1272.3066 155.8234)" class="st29" cx="633.1" cy="102.6" rx="2.3" ry="3.1"/>
				<path class="st29" d="M628,107.2c0,0,0.5-9.8,5.3-10.8c3.8-0.9,12.2,2.8,12.2,2.8l-1,5.7c0,0-6.3-6.5-10.3-5.8
					C628.7,99.9,628,107.2,628,107.2z"/>
			</g>
			<g>
				<path class="st12" d="M620.5,108c0,0-6.8,2.3-9.6,1.9c-2.8-0.3-3-1.8-3-1.8s-0.7-5.3,2.5-6.6C613.5,100.2,620.5,108,620.5,108z"
					/>
				
					<linearGradient id="SVGID_24_" gradientUnits="userSpaceOnUse" x1="2969.938" y1="95.0362" x2="2975.4067" y2="95.0362" gradientTransform="matrix(-0.997 7.770000e-002 7.770000e-002 0.997 3567.2571 -220.795)">
					<stop  offset="0" style="stop-color:#A43113"/>
					<stop  offset="1" style="stop-color:#6F160D"/>
				</linearGradient>
				<path class="st65" d="M608.2,105.1c0.2,2.5,1.6,4.4,3.1,4.2c1.5-0.1,2.6-2.2,2.4-4.7c-0.2-2.5-1.6-4.4-3.1-4.2
					C609,100.6,608,102.7,608.2,105.1z"/>
				
					<ellipse transform="matrix(-0.997 7.768466e-002 -7.768466e-002 -0.997 1228.0797 162.0917)" class="st29" cx="610.9" cy="104.9" rx="1.7" ry="2.9"/>
				<path class="st29" d="M620.5,108c0,0-2.5-6-8.4-8.3c-3.3-1.3-6.7,4-6.7,4l2.4,3.6c0,0,0.1-5.6,3.4-5.4
					C614.5,102.1,620.5,108,620.5,108z"/>
			</g>
			<ellipse class="st12" cx="637.1" cy="103.2" rx="3.3" ry="0.5"/>
			<ellipse class="st12" cx="613.6" cy="105.3" rx="2.3" ry="0.3"/>
			<path class="st11" d="M629.1,113.8c0,0-2.3,3.4-5.6,3.3c-3.2,0-5.3-1.7-5.3-1.7s1.2,0.5,5,0C626.8,115.1,629.1,113.8,629.1,113.8
				z"/>
			<path class="st9" d="M619.8,123.5c0,0,2.6-1.6,6.5-3c3.9-1.4,9.3-1.9,9.3-1.9s-4.9,2.9-9.3,4.2
				C621.8,124,619.8,123.5,619.8,123.5z"/>
			<path class="st66" d="M619.5,123.7c0,0,5.3,4.3,9.4,3.8c4.7-0.6,6.7-8.9,6.7-8.9s-4.8,3.2-9.3,4.2
				C621.8,123.7,619.5,123.7,619.5,123.7z"/>
			<path class="st29" d="M637.9,117.4c0,0-8.1,4.2-10.9,4.9c-2.7,0.7-8.4,1.4-8.4,1.4s6.2,1.7,8.8,0.8
				C633.5,122.6,637.9,117.4,637.9,117.4z"/>
			<path class="st11" d="M652.8,112.3c-3.7,6.8-13.8,15.1-20.5,17.1c-0.5,0.1-1,0.2-1.6,0.3c2.1-1,15.4-7.7,18-18.7
				c2.8-12-3.1-19-9.1-23.1c-6-4.1-19-3-24.9-0.5c-4.2,1.8-7.6,6.5-9.3,9.1c-0.2-1.7-0.3-3.4-0.3-5.1l0.5-4.5l0,0
				c1.3-5.8,5.3-11,15.3-13.3C656.8,65,656.7,105.2,652.8,112.3z"/>
			<path class="st29" d="M628.3,88.5c0,0,6.1-1.8,10.9,0.2c4.8,2.1,6.6,6,6.6,6s-3-3.8-6.9-4.4C634.9,89.8,629.9,91.7,628.3,88.5z"
				/>
			<path class="st29" d="M614.1,89.6c0,0-3.2,0.8-5.6,3.6c-2.4,2.8-2.1,7.1-2.1,7.1s0.8-4.2,2.8-5.4
				C611.2,93.8,614.7,91.7,614.1,89.6z"/>
			<path class="st11" d="M652.2,108c0,0,7-5.2,12.4-4.2s-5.2,16.7-10,15.7c-4.8-1-5.3-2.2-5.3-2.2L652.2,108z"/>
			<path class="st5" d="M651.9,108.9c0,0,1-2.7,6.6-5.1c6.3-2.8,7.4,1.2,7.4,1.2s-0.6-1.7-7.4,1.4c-6.8,3-8,6.8-8,6.8L651.9,108.9z"
				/>
			<path class="st30" d="M637,75.9c0,0-13.3,9.5-23.4,12.2c-10.1,2.7-21.8,0-21.8,0s12.5-1.7,20.4-7.7s12.6-10.9,18.6-12.1
				S637,75.9,637,75.9z"/>
			<path class="st29" d="M657.8,104.1c0,0-0.3,0.1-2.1,1.1c-1.8,1-3.5,3.2-3.5,3.2s0-11.4-2.8-19.1c-2.9-7.7-12.3-13.4-12.3-13.4
				s-0.5-6.5-5.8-6.1c-0.5,0-1,0.1-1.6,0.3c-4.7,1.3-10.5,6.8-19.2,11.9c-0.4,0.2-0.8,0.5-1.2,0.7c-10.4,5.9-17.5,5.5-17.5,5.5
				s4-0.8,7.9-4.6c0.2-0.2,0.4-0.4,0.6-0.6c4.1-4.6,11.6-17.8,17.9-21.6c2-1.2,3.8-2,5.6-2.5c13.9-4.3,21.7,9.4,21.7,9.4
				s5.1,1.1,10.3,2.9c4.2,1.5,8.5,3.5,10.1,5.9c0.1,0.1,0.1,0.2,0.2,0.3C669.2,82.8,657.8,104.1,657.8,104.1z"/>
			<path class="st30" d="M635.5,75.4c0,0-10.9,11.3-21.9,15.9c-11,4.5-13.2,4.9-13.2,4.9l1.4,1.6c0,0,3.7,0.6,17.1-6.5
				c13.4-7.2,18.5-15.1,18.5-15.1L635.5,75.4z"/>
			<path class="st35" d="M629.7,70.1C629.7,70.1,629.7,70.1,629.7,70.1c-4.8,1.3-10.5,6.8-19.2,11.9c-5.3,0.8-10.2,0.9-10.2,0.9
				c4.1-4.6,11.6-17.8,17.9-21.6c2-1.2,3.8-2,5.6-2.5c0.3,1.6,1,5,3.1,7.7C629.7,70.1,629.7,70.1,629.7,70.1z"/>
			<path class="st35" d="M665.9,77c-0.6,0.9-1.6,2.2-3.4,4c-3.6,3.7-12.3,5.9-12.3,5.9l-8.1-8.7c0,0,5.8-0.8,9.7-2.4
				c2.9-1.3,3.8-3.7,4-4.8C660,72.6,664.3,74.6,665.9,77z"/>
			<path class="st30" d="M636.7,75.4c0,0,11.5,4.8,15.2,12.9s1.6,18.6,1.6,18.6l-1.3,1.5c0,0,0.1-10.8-3.8-18.5
				s-11.7-13.2-11.7-13.2V75.4z"/>
			<path class="st67" d="M654.7,225L654.7,225l-11.4,6.2c-6.8,2.9-16.3,5.8-27.8,6c-3.7,0.1-7,0-10-0.1c0.6-0.2,18.4-6.9,22.9-24
				c4.5-17.4-0.4-33.9-3.6-35.9c-2.5-1.6-13-3.1-17.6-3.7c-1.4-2.9-3.8-6.9-4-8.8c0-0.1,0-0.2,0-0.4c0,0,8.2,4.4,20,5.1
				c11.7,0.8,14.5-0.9,14.5-0.9l2.9,9.6c0.8,9.2,1.8,17.4,3.1,21.5C647.7,212.1,654.7,225,654.7,225z"/>
			<path class="st8" d="M633.9,172.3c0,0,2.9,0.2,9.2-1.4c7.5-1.9,13.1-6.4,13.1-6.4s-8.2-3.1-13.5-0.7
				C637.6,166.1,633.9,172.3,633.9,172.3z"/>
			<path class="st61" d="M656.3,164.5c0,0-5.8,0.3-12.9,3.3c-1.3,0.6-2.5,1.1-3.5,1.5c-4.4,2-6,3-6,3s-0.2-12.5,1.1-22.8
				c0.7-5,1.7-9.4,3.4-11.7c0,0,0-0.1,0.1-0.1c0,0,7.4,3.9,10.8,8c0.5,0.5,0.9,1.3,1.4,2.1C653.7,153.5,656.3,164.5,656.3,164.5z"/>
			<path class="st67" d="M650.7,147.8c-3,0.7-7.3,1.4-11.8,1.7c-1.2,0.1-2.5,0.1-3.8,0.1c-0.7,0-1.4-0.1-2.1-0.1
				c-4.7-0.4-8.9-1.6-12-2.7c-1-0.4-1.9-0.7-2.6-1.1c-2-0.9-3.1-1.5-3.1-1.5l2-1.1c7.4-3.8,14.5-5.8,14.9-6c0,0,0,0,0,0
				s0.1,2.8,2.3,2.1c1.1-0.3,2.4,0.2,3,0l0.8-1.2c0,0.2,0.2-0.6,0.2-0.3c0,0,0-0.1,0.1-0.1c0,0,7.4,3.9,10.8,8
				C649.8,146.3,650.2,147,650.7,147.8z"/>
			
				<linearGradient id="SVGID_25_" gradientUnits="userSpaceOnUse" x1="21.9502" y1="136.9396" x2="21.9502" y2="141.4073" gradientTransform="matrix(1 0 0 1 612.5089 0)">
				<stop  offset="0" style="stop-color:#FFF594"/>
				<stop  offset="1" style="stop-color:#FAB945"/>
			</linearGradient>
			<path class="st68" d="M628.9,138.2l3.5-1.3c0,0,0.1,1,2.1,1.3c2,0.3,3.9-1.3,3.9-1.3l1.5,1.7c0,0-3.1,3.6-7.2,2.6
				C628.9,140.2,628.9,138.2,628.9,138.2z"/>
			<path class="st5" d="M582,201.8c-1.3,0.3-6.4-2.1-8.3-2.4c-2.1-0.3-2.9-0.1-2.9-0.1l1.3,1.9l1.5,0.6c0,0-2.1,1.6-4.5,2.1
				c-2.4,0.6-4.2,0.4-4.7,0.8c-0.5,0.4,3.1,1,4.8,0.6c1.7-0.4,2.3-0.4,2.3-0.4s-1.5,0.5-3.7,0.7c-2.2,0.2-4.1-0.2-4.6,0.2
				c-0.4,0.4,3,1.4,6.1,1.2c2-0.2,2.9-0.6,2.9-0.6s-1,0.3-3.4,0.6c-2.4,0.3-3.9-0.3-4.2,0.1c-0.3,0.4,3.2,1.4,5.5,1.1
				c2.3-0.3,3.2-0.6,3.2-0.6s-1.3,0.6-3,0.9c-1.7,0.3-4.3-0.3-3.8,0.1c0.5,0.4,3.6,1.9,7.4,0.5c2.6-1,8.6-4.3,9.7-4.9
				S583.4,201.5,582,201.8z"/>
			<path class="st5" d="M545.9,176.7c-1.4-0.2-5.3-4-7.2-4.5c-1.9-0.5-7.1-1.3-7.1-1.3s0.1,1,2.2,1.6c2.1,0.6,3.9,1.6,3.9,1.6
				s-2.7,0.7-5.2,0.4c-2.6-0.2-4.3-0.9-5-0.7c-0.7,0.2,2.6,1.8,4.4,1.9c1.8,0.2,2.4,0.3,2.4,0.3s-1.7,0-3.9-0.5
				c-2.2-0.5-3.9-1.4-4.5-1.2c-0.6,0.2,2.4,2.1,5.5,2.8c2,0.5,3.1,0.4,3.1,0.4s-1.1,0-3.5-0.5c-2.4-0.5-3.7-1.5-4.2-1.2
				c-0.5,0.3,2.5,2.1,4.9,2.6c2.4,0.5,3.3,0.4,3.3,0.4s-1.6,0.5-3.4,0.2c-1.8-0.3-4-2-3.7-1.5c0.3,0.5,2.8,2.7,7,2.7
				c2.9,0,10.1-1,11.4-1.2C547.7,178.9,547.3,176.9,545.9,176.7z"/>
			<g>
				<path class="st5" d="M545.4,176.6c0.2,0.1,0.3,0.1,0.5,0.1L545.4,176.6z"/>
				<path class="st5" d="M538.7,172.3c-1.9-0.5-7.1-1.3-7.1-1.3s0.1,1,2.2,1.6c2.1,0.6,3.9,1.6,3.9,1.6l7.7,2.4
					C543.7,175.9,540.4,172.7,538.7,172.3z"/>
			</g>
			<path class="st69" d="M630.7,183c3.7,31.9,10.7,92.1-1.8,98.4c-16.6,8.3-38.3,2.6-38.3,2.6s-0.5-39.6,3.6-54.7
				c4.1-15.1,13.9-40.7,13.4-46.6c-0.2-2.4-1-4.6-2-6.8c-1.1-2.7-2.3-5.4-2.5-8.8c-0.1-0.8-0.1-1.7,0-2.6c0.2-4.3,7.8-12,14.5-17.9
				c5.3-4.7,10.1-8.4,10.1-8.4l3.9-0.9c-0.3,0.3-6.1,5.3-11,9.5c-3.6,3.2-6.6,6-6.7,6.3c0,0.8,11.8,0.9,13.8-0.1
				c0.6-0.3,2-1.8,3.6-3.7c3.6-4.3,8.4-10.7,8.4-10.7l1.6,0.9c0,0-3.1,5-6.3,10.6c-2.9,5.1-5.8,10.8-6.4,13.6
				c-0.1,0.4-0.1,1.1,0,2.2C629.1,169.1,629.8,175.2,630.7,183z"/>
			<path class="st70" d="M631.7,137.2c0,0-6,5.1-11,9.6l-3-0.3c5.3-4.7,10.1-8.4,10.1-8.4L631.7,137.2z"/>
			<path class="st70" d="M641.6,139.6c0,0-3.1,5-6.3,10.6l-3.7-0.9c3.6-4.3,8.4-10.7,8.4-10.7L641.6,139.6z"/>
			<path class="st70" d="M630.9,183c0,0-0.1,0-0.2,0c-1.3,0.1-10.1,0.3-18.2-1.9c-3.2-0.9-5.3-3-6.8-5.3c-1.1-2.7-2.3-5.4-2.5-8.8
				c1.4,0.2,8.1,1.1,14.5,0.7c6.9-0.4,11-1.6,11.2-1.7c0,0,0,0,0,0L630.9,183z"/>
			<path class="st5" d="M651.2,165.3c0,0-0.1,0.2-0.2,0.6c-1.3,4.8-9.7,32.8-17.1,37.5c-5,3.1-53,1.9-53,1.9l-1-3.6
				c0,0,41.3-6.3,46-11.1c4.8-4.8,6.1-10.5,7.5-15.4v0c0.2-0.8,0.4-1.5,0.7-2.2c0.3-0.9,0.5-1.5,0.6-1.8c0-0.1,0-0.1,0-0.1
				C639.5,166.9,651.2,165.3,651.2,165.3z"/>
			<g>
				<polygon class="st36" points="619.1,163.1 633,162.4 631.6,172.2 620.1,171.5 				"/>
				<polygon class="st12" points="620,163.6 632.2,163 631.2,171.2 620.8,170.9 				"/>
			</g>
			<path class="st11" d="M651.2,165.3c0,0-0.1,0.2-0.2,0.6c-1.3,4.8-9.7,32.8-17.1,37.5c-5,3.1-53,1.9-53,1.9s22.6-0.6,36.1-1.7
				c13.5-1.2,18.9-9.3,19.5-16c0.6-6.7-3-12.4-3-12.4v0c0.2-0.8,0.4-1.5,0.7-2.2c0.3-0.9,0.5-1.5,0.6-1.8c0-0.1,0-0.1,0-0.1
				C639.5,166.9,651.2,165.3,651.2,165.3z"/>
			
				<linearGradient id="SVGID_26_" gradientUnits="userSpaceOnUse" x1="21.4387" y1="167.2883" x2="43.7787" y2="167.2883" gradientTransform="matrix(1 0 0 1 612.5089 0)">
				<stop  offset="0" style="stop-color:#FFF594"/>
				<stop  offset="1" style="stop-color:#FAB945"/>
			</linearGradient>
			<path class="st71" d="M633.9,172.3v-1.9c0,0,6-4.1,13.4-6.3c7.8-2.3,8.4-1.9,8.4-1.9l0.6,2.3c0,0-1.2,0.1-9.6,2.8
				C638.7,169.9,633.9,172.3,633.9,172.3z"/>
		</g>
		<g>
			<g>
				<path class="st72" d="M379.4,197.2c0,0-6.2-5.8-5.1-6.7c1.1-1,2.4,0.8,2.4,0.8s0.3-5.3,2.9-5.8c2.6-0.6,3.6,2,3.6,2
					s2.7-3.2,4.9-3.2c2.2,0,1.4,4.1,1.4,4.1s0.6-3.1,2.2-2.9c1.7,0.2,2.2,4.7,2.2,4.7l-3.1,5.6l-4.2,2L379.4,197.2z"/>
				<g>
					<path class="st1" d="M403.9,197l22.3,0c0,0-1.2-3.6-4.6-6l0,0c-1.9-1.4-4.5-2.4-8-2.3c-5.2,0.2-7.7,3.6-8.9,6l0,0
						C404.1,196,403.9,197,403.9,197z"/>
					<path class="st2" d="M403.9,197l22.3,0c0,0-1.2-3.6-4.6-6l0,0c0,0-3.3,3.1-8.3,3.9c-5,0.8-8.5-0.2-8.5-0.2l0,0
						C404.1,196,403.9,197,403.9,197z"/>
					<path class="st3" d="M411.2,196.9c0,0,2.7-3.2,3.7-4.3c1-1.2-0.1-1.3-0.3-1.9c-0.2-0.6,0.8-1.4,0.5-1.6
						c-0.4-0.1-2.7,0.9-3.3,0.6c-0.5-0.4-0.7-1.1-1.3-1c-0.6,0.1-3.1,0.8-4.1,1.9c-1,1.1-1.4,3.7-1.4,3.7l5.2,2.7L411.2,196.9z"/>
					<path class="st3" d="M422.9,192.1c0,0-1.9-0.2-3.3,0.8c-1.4,0.9-1,2.4-1.7,2.7c-0.7,0.3-1.6,1.3-1.6,1.3l9.9,0.1
						C426.2,197,424.9,193.7,422.9,192.1z"/>
				</g>
				<polygon class="st4" points="424,197.4 427.8,173.4 392.2,173.5 394.8,198.3 395.6,198.3 394.9,175.4 424,175.8 423.3,197.4 
									"/>
				<g>
					<polygon class="st25" points="438.6,197.2 413.8,196.9 414.6,221.5 437.2,219.5 					"/>
					<polygon class="st26" points="413.8,196.9 372.8,197.2 377.2,218.1 414.6,221.5 					"/>
					<polygon class="st27" points="439.4,197.2 439.1,199.3 413.9,200.1 372.9,200.3 372.8,197.2 413.8,196.9 					"/>
					<polygon class="st26" points="438.4,199.3 438.4,200.2 414,201.6 413.9,200.1 					"/>
				</g>
				<path class="st73" d="M393.7,197.1c0,0-16-10.8-17.4-10.6c-1.4,0.2,10.7,10.9,10.7,10.9L393.7,197.1z"/>
				<path class="st73" d="M397.3,197c0,0,1.3-12.4-0.4-13.1s-5.3,11.7-5.3,11.7l2.2,1.5L397.3,197z"/>
				<path class="st73" d="M381.3,197.2c0,0-2.6-4.3-2.9-5.2c-0.3-0.9,8.7,5.3,8.7,5.3L381.3,197.2z"/>
				<path class="st74" d="M413.2,196.9c0,0,1.1-3.1-0.7-3.8c-1.8-0.7-1.8,0.6-1.8,0.6s1.2-6-1.3-6.2c-2.5-0.2-2.9,4.6-2.9,4.6
					s-3.2-4.6-5.8-3.9c-2.5,0.7-0.6,5.8-0.6,5.8s-1-2.6-3-2.7s-1.5,4.1-1.5,4.1s-2.2-3.4-5.2-3.5c-3-0.1-3.2,5.3-3.2,5.3
					L413.2,196.9z"/>
			</g>
			<polygon class="st4" points="436.4,202.7 417,203.3 417,204.6 436.1,204 			"/>
			<polygon class="st4" points="435.9,207.7 417.2,208.6 417.2,210.4 435.7,208.5 			"/>
			<polygon class="st4" points="435.3,212.4 417.3,212.9 417.4,214.9 435.3,213.3 			"/>
		</g>
		<g>
			<g>
				<polygon class="st75" points="695.8,221.5 699.1,171.7 667.1,167.4 669.3,219.7 				"/>
				<polygon class="st60" points="667.1,167.4 661.2,169.7 663,216.1 669.3,219.7 				"/>
				<polygon class="st45" points="692,218.3 694.8,180.3 672.7,178.8 673.8,215.9 				"/>
			</g>
			<g>
				<path class="st8" d="M698,206.4c9.8-0.3,10.3,8.5,0.8,8.6C690.6,215.2,686.8,206.7,698,206.4z"/>
				<polygon class="st72" points="701.7,206.8 703.4,205.3 699.3,206.3 697.8,204.1 698,206.4 692.9,206.3 697.1,207.1 696.5,209 
					699,207.4 701.8,208.2 				"/>
			</g>
			<g>
				<path class="st8" d="M710.4,206.4c9.8-0.3,10.3,8.5,0.8,8.6C703,215.2,699.2,206.7,710.4,206.4z"/>
				<polygon class="st72" points="714.1,206.8 715.8,205.4 711.6,206.4 710.2,204.2 710.4,206.4 705.3,206.4 709.5,207.2 
					708.9,209.1 711.4,207.5 714.2,208.2 				"/>
			</g>
			<g>
				<polygon class="st37" points="727.7,215.6 733.3,179 726.8,169.6 719.5,169.6 712.8,178.1 716,215.1 				"/>
				<polygon class="st56" points="726.8,169.6 727.5,167.2 719.1,167.8 719.5,169.6 				"/>
				<polygon class="st76" points="723.1,169.6 719.1,178.5 731.9,179.4 724.7,215.3 716,215.1 712.8,178.1 719.5,169.6 				"/>
				<polygon class="st45" points="732.1,187.1 721.9,187.1 721.4,196.9 730.9,195.6 				"/>
			</g>
		</g>
		<g>
			<polygon class="st77" points="384.1,363.8 370.4,219.4 703.2,217.7 691,364 			"/>
			<polygon class="st36" points="706.1,228 706.1,214 366.1,218 368.4,225 			"/>
			<polygon class="st36" points="683.1,364 683.1,378.6 390.1,376.4 390.1,363.7 			"/>
			<polygon class="st78" points="371.2,228.8 675.8,254.2 628.1,364.2 691,364 702.3,228 370.9,225.1 			"/>
			<polygon class="st36" points="468.2,209.1 545.9,210.4 550,150.9 462.9,152 			"/>
			<polygon class="st36" points="493.1,216.6 495.1,208.1 504.6,208.5 505.3,217.7 			"/>
			<polygon class="st51" points="550,150.9 551.8,152.7 550.9,210.4 545.9,210.4 			"/>
			<polygon class="st51" points="509.1,209.8 510,216.3 505.2,216.3 504.7,209 			"/>
			<polygon class="st51" points="706.1,214 743.8,216.3 740.1,229.5 733.5,229.5 710.5,364 691,364 702.3,228 706.1,228 			"/>
			<polygon class="st51" points="683.1,378.6 702.3,376.9 706.1,363.7 683.1,364 			"/>
		</g>
		<path class="st12" d="M621.5,123.4l0.9,0.4c0,0,2.1,0.4,5.4-0.4c2.5-0.6,5.8-3.9,5.8-3.9S628.8,122.8,621.5,123.4z"/>
	</g>
</g>
</svg>
