<?xml version="1.0" encoding="utf-8"?>
<!-- Generator: Adobe Illustrator 19.0.0, SVG Export Plug-In . SVG Version: 6.00 Build 0)  -->
<svg version="1.1" id="Layer_1_copy_11" xmlns="http://www.w3.org/2000/svg" xmlns:xlink="http://www.w3.org/1999/xlink" x="0px"
	 y="0px" viewBox="0 0 168 136" style="enable-background:new 0 0 168 136;" xml:space="preserve">
<style type="text/css">
	.st0{fill:#FFFFFF;stroke:#E31E24;stroke-width:4;stroke-miterlimit:10;}
	.st1{fill:#E31E24;}
</style>
<path id="XMLID_348_" class="st0" d="M99.3,44.3l-7.4-7.4c-0.6-0.6-1.3-0.9-2.1-0.9H75.3c-0.9,0-1.7,0.4-2.2,1l-6.8,7.6
	C59.7,51.9,56,61.5,56,71.3V124c0,6.6,5.4,12,12,12h31c6.6,0,12-5.4,12-12V72.6C111,62,106.8,51.8,99.3,44.3z"/>
<path id="XMLID_350_" class="st0" d="M119,20L119,20c0-5.5-4.5-10-10-10H73"/>
<line id="XMLID_358_" class="st0" x1="83" y1="26" x2="83" y2="10"/>
<rect id="XMLID_357_" x="76" y="26" class="st1" width="13" height="9"/>
<rect id="XMLID_368_" x="56" y="82" class="st1" width="55" height="19"/>
</svg>
