<?xml version="1.0" encoding="utf-8"?>
<!-- Generator: Adobe Illustrator 19.0.0, SVG Export Plug-In . SVG Version: 6.00 Build 0)  -->
<svg version="1.1" id="Layer_2" xmlns="http://www.w3.org/2000/svg" xmlns:xlink="http://www.w3.org/1999/xlink" x="0px" y="0px"
	 viewBox="0 0 296 230" style="enable-background:new 0 0 296 230;" xml:space="preserve">
<style type="text/css">
	.st0{fill:#FFFFFF;stroke:#E31E24;stroke-width:4;stroke-miterlimit:10;}
	.st1{fill:#E31E24;}
	.st2{fill:#FFFFFF;}
	.st3{fill:#E31E24;}
</style>
<g id="XMLID_13_">
	<path id="XMLID_2_" class="st0" d="M207,155H69c-3.3,0-6-2.7-6-6V51c0-3.3,2.7-6,6-6h138c3.3,0,6,2.7,6,6v98
		C213,152.3,210.3,155,207,155z"/>
	<path id="XMLID_3_" class="st1" d="M205.5,154h-135c-3.3,0-6-2.7-6-6v-12h147v12C211.5,151.3,208.8,154,205.5,154z"/>
	<rect id="XMLID_4_" x="122" y="154" class="st1" width="36" height="24"/>
	<path id="XMLID_6_" class="st1" d="M174,178h-68c-1.1,0-2-0.9-2-2l0,0c0-1.1,0.9-2,2-2h68c1.1,0,2,0.9,2,2l0,0
		C176,177.1,175.1,178,174,178z"/>
</g>
<g id="XMLID_14_">
	<g id="XMLID_8_">
		<path id="XMLID_67_" class="st2" d="M226,174v-50c0-2.2,1.8-4,4-4h78c2.2,0,4,1.8,4,4v50H226z"/>
		<path id="XMLID_64_" class="st1" d="M308,122c1.1,0,2,0.9,2,2v48h-82v-48c0-1.1,0.9-2,2-2H308 M308,118h-78c-3.3,0-6,2.7-6,6v52
			h90v-52C314,120.7,311.3,118,308,118L308,118z"/>
	</g>
	<path id="XMLID_5_" class="st1" d="M319,178H217c-1.7,0-3-1.3-3-3l0,0c0-1.7,1.3-3,3-3h102c1.7,0,3,1.3,3,3l0,0
		C322,176.7,320.7,178,319,178z"/>
</g>
<g id="XMLID_17_">
	<g id="XMLID_7_">
		<path id="XMLID_62_" class="st2" d="M9,175c-2.2,0-4-1.8-4-4v-70c0-2.2,1.8-4,4-4h36c2.2,0,4,1.8,4,4v70c0,2.2-1.8,4-4,4H9z"/>
		<path id="XMLID_59_" class="st1" d="M45,99c1.1,0,2,0.9,2,2v70c0,1.1-0.9,2-2,2H9c-1.1,0-2-0.9-2-2v-70c0-1.1,0.9-2,2-2H45 M45,95
			H9c-3.3,0-6,2.7-6,6v70c0,3.3,2.7,6,6,6h36c3.3,0,6-2.7,6-6v-70C51,97.7,48.3,95,45,95L45,95z"/>
	</g>
	<rect id="XMLID_11_" x="6" y="166" class="st1" width="41" height="7"/>
	<circle id="XMLID_10_" class="st2" cx="27" cy="171" r="2"/>
</g>
<g id="XMLID_16_">
	<g id="XMLID_9_">
		<path id="XMLID_57_" class="st2" d="M-24,176c-0.6,0-1-0.4-1-1v-37c0-0.6,0.4-1,1-1h19c0.6,0,1,0.4,1,1v37c0,0.6-0.4,1-1,1H-24z"
			/>
		<path id="XMLID_54_" class="st1" d="M-6,139v35h-17v-35H-6 M-5,135h-19c-1.7,0-3,1.3-3,3v37c0,1.7,1.3,3,3,3h19c1.7,0,3-1.3,3-3
			v-37C-2,136.3-3.3,135-5,135L-5,135z"/>
	</g>
	<rect id="XMLID_12_" x="-24" y="170" class="st1" width="19" height="4.5"/>
	<circle id="XMLID_15_" class="st2" cx="-15" cy="174" r="1.5"/>
</g>
<g id="XMLID_20_">
	<path id="XMLID_19_" class="st3" d="M126.7,114.8c0.9-6.1,1.9-12.2,2.8-18.4c0,0,0-0.1,0-0.2c-2.8,0-5.6,0-8.5,0
		c1.8-9.4,3.5-18.8,5.3-28.2c5.1,0,10.2,0,15.4,0c-3,6.9-6,13.7-9,20.6c2.4,0,4.7,0,7.2,0C135.5,97.5,131.1,106.2,126.7,114.8
		C126.7,114.9,126.7,114.8,126.7,114.8z"/>
	<path id="XMLID_18_" class="st3" d="M138,96.2c1.2-2.5,2.5-4.9,3.7-7.4c2.1,0.3,4,1,5.7,2.2c8.2,5.7,7.3,18.2-1.6,22.7
		c-1.8,0.9-3.7,1.4-5.7,1.4c-3.6,0-7.2,0-10.8,0c-0.2,0-0.3,0-0.6,0c0.3-0.6,0.5-1.1,0.8-1.6c0.6-1.2,1.2-2.4,1.8-3.6
		c0.1-0.3,0.3-0.4,0.6-0.4c2.4,0,4.9,0,7.3,0c3.3-0.1,6-2.7,6.3-6.1c0.3-3.3-2-6.3-5.3-6.9C139.5,96.3,138.7,96.3,138,96.2z"/>
</g>
<g id="XMLID_25_">
	<path id="XMLID_30_" class="st3" d="M20.6,148c0.6-3.8,1.2-7.6,1.8-11.5c0,0,0-0.1,0-0.1c-1.7,0-3.5,0-5.3,0
		c1.1-5.9,2.2-11.8,3.3-17.6c3.2,0,6.4,0,9.6,0c-1.9,4.3-3.8,8.6-5.6,12.9c1.5,0,3,0,4.5,0C26,137.2,23.3,142.6,20.6,148
		C20.6,148.1,20.6,148.1,20.6,148z"/>
	<path id="XMLID_29_" class="st3" d="M27.6,136.4c0.8-1.5,1.5-3.1,2.3-4.6c1.3,0.2,2.5,0.6,3.6,1.4c5.2,3.6,4.6,11.4-1,14.2
		c-1.1,0.6-2.3,0.8-3.6,0.8c-2.3,0-4.5,0-6.8,0c-0.1,0-0.2,0-0.4,0c0.2-0.4,0.3-0.7,0.5-1c0.4-0.8,0.8-1.5,1.1-2.3
		c0.1-0.2,0.2-0.2,0.4-0.2c1.5,0,3,0,4.6,0c2.1,0,3.8-1.7,4-3.8c0.2-2-1.3-4-3.3-4.3C28.5,136.4,28.1,136.4,27.6,136.4z"/>
</g>
<g id="XMLID_32_">
	<path id="XMLID_45_" class="st3" d="M261.6,161.2c0.6-3.8,1.2-7.6,1.8-11.5c0,0,0-0.1,0-0.1c-1.7,0-3.5,0-5.3,0
		c1.1-5.9,2.2-11.8,3.3-17.6c3.2,0,6.4,0,9.6,0c-1.9,4.3-3.8,8.6-5.6,12.9c1.5,0,3,0,4.5,0C267,150.4,264.3,155.8,261.6,161.2
		C261.6,161.2,261.6,161.2,261.6,161.2z"/>
	<path id="XMLID_44_" class="st3" d="M268.6,149.6c0.8-1.5,1.5-3.1,2.3-4.6c1.3,0.2,2.5,0.6,3.6,1.4c5.2,3.6,4.6,11.4-1,14.2
		c-1.1,0.6-2.3,0.8-3.6,0.8c-2.3,0-4.5,0-6.8,0c-0.1,0-0.2,0-0.4,0c0.2-0.4,0.3-0.7,0.5-1c0.4-0.8,0.8-1.5,1.1-2.3
		c0.1-0.2,0.2-0.2,0.4-0.2c1.5,0,3,0,4.6,0c2.1,0,3.8-1.7,4-3.8c0.2-2-1.3-4-3.3-4.3C269.5,149.6,269.1,149.6,268.6,149.6z"/>
</g>
<g id="XMLID_22_">
	<path id="XMLID_24_" class="st3" d="M-17.9,162.9c0.3-2.2,0.7-4.4,1-6.6c0,0,0,0,0-0.1c-1,0-2,0-3.1,0c0.6-3.4,1.3-6.8,1.9-10.2
		c1.9,0,3.7,0,5.6,0c-1.1,2.5-2.2,5-3.3,7.5c0.9,0,1.7,0,2.6,0C-14.8,156.6-16.3,159.8-17.9,162.9
		C-17.9,162.9-17.9,162.9-17.9,162.9z"/>
	<path id="XMLID_23_" class="st3" d="M-13.9,156.2c0.4-0.9,0.9-1.8,1.3-2.7c0.8,0.1,1.4,0.4,2.1,0.8c3,2.1,2.7,6.6-0.6,8.2
		c-0.7,0.3-1.3,0.5-2.1,0.5c-1.3,0-2.6,0-3.9,0c-0.1,0-0.1,0-0.2,0c0.1-0.2,0.2-0.4,0.3-0.6c0.2-0.4,0.4-0.9,0.7-1.3
		c0.1-0.1,0.1-0.1,0.2-0.1c0.9,0,1.8,0,2.6,0c1.2,0,2.2-1,2.3-2.2c0.1-1.2-0.7-2.3-1.9-2.5C-13.3,156.2-13.6,156.2-13.9,156.2z"/>
</g>
</svg>
