<?xml version="1.0" encoding="utf-8"?>
<!-- Generator: Adobe Illustrator 19.0.0, SVG Export Plug-In . SVG Version: 6.00 Build 0)  -->
<svg version="1.1" id="Layer_6_copy_2" xmlns="http://www.w3.org/2000/svg" xmlns:xlink="http://www.w3.org/1999/xlink" x="0px"
	 y="0px" viewBox="0 0 210 138" style="enable-background:new 0 0 210 138;" xml:space="preserve">
<style type="text/css">
	.st0{fill:#FFFFFF;}
	.st1{fill:#E31E24;}
	.st2{fill:#FFFFFF;stroke:#E31E24;stroke-width:4;stroke-miterlimit:10;}
	.st3{fill:none;stroke:#E31E24;stroke-width:4;stroke-miterlimit:10;}
</style>
<g id="XMLID_1395_">
	<path id="XMLID_54_" class="st0" d="M39.9,26c-0.6,0-1-0.4-1-1V3c0-0.6,0.4-1,1-1H101c0.6,0,1,0.4,1,1v22c0,0.6-0.4,1-1,1H39.9z"/>
	<g id="XMLID_50_">
		<path id="XMLID_51_" class="st1" d="M100,4v20H40.9V4H100 M101,0H39.9c-1.7,0-3,1.3-3,3v22c0,1.7,1.3,3,3,3H101c1.7,0,3-1.3,3-3V3
			C104,1.3,102.7,0,101,0L101,0z"/>
	</g>
</g>
<g id="XMLID_1383_">
	<path id="XMLID_38_" class="st0" d="M106.9,81c-0.6,0-1-0.4-1-1V58c0-0.6,0.4-1,1-1H168c0.6,0,1,0.4,1,1v22c0,0.6-0.4,1-1,1H106.9z
		"/>
	<path id="XMLID_35_" class="st1" d="M167,59v20h-59.1V59H167 M168,55h-61.1c-1.7,0-3,1.3-3,3v22c0,1.7,1.3,3,3,3H168
		c1.7,0,3-1.3,3-3V58C171,56.3,169.7,55,168,55L168,55z"/>
</g>
<g id="XMLID_1374_">
	<g id="XMLID_40_">
		<path id="XMLID_41_" class="st1" d="M100,32v47H40.9V32H100 M101,28H39.9c-1.7,0-3,1.3-3,3v49c0,1.7,1.3,3,3,3H101
			c1.7,0,3-1.3,3-3V31C104,29.3,102.7,28,101,28L101,28z"/>
	</g>
</g>
<g id="XMLID_1369_">
	<path id="XMLID_26_" class="st1" d="M100,87v47H40.9V87H100 M101,83H39.9c-1.7,0-3,1.3-3,3v49c0,1.7,1.3,3,3,3H101c1.7,0,3-1.3,3-3
		V86C104,84.3,102.7,83,101,83L101,83z"/>
</g>
<g id="XMLID_1363_">
	<g id="XMLID_31_">
		<path id="XMLID_32_" class="st1" d="M167,87v47h-59.1V87H167 M168,83h-61.1c-1.7,0-3,1.3-3,3v49c0,1.7,1.3,3,3,3H168
			c1.7,0,3-1.3,3-3V86C171,84.3,169.7,83,168,83L168,83z"/>
	</g>
</g>
<polyline id="XMLID_1362_" class="st2" points="72.8,32.3 72.8,58 81.6,49.2 89.8,57.4 89.8,32.3 "/>
<polyline id="XMLID_1361_" class="st2" points="139.8,87.3 139.8,113 148.6,104.2 156.8,112.4 156.8,87.3 "/>
<line id="XMLID_1360_" class="st2" x1="50.7" y1="11.7" x2="76.5" y2="11.7"/>
<line id="XMLID_1359_" class="st2" x1="81.7" y1="11.7" x2="90.5" y2="11.7"/>
<line id="XMLID_1358_" class="st3" x1="50.7" y1="96.7" x2="76.5" y2="96.7"/>
<line id="XMLID_1321_" class="st3" x1="81.7" y1="96.7" x2="90.5" y2="96.7"/>
<line id="XMLID_1320_" class="st3" x1="50.7" y1="106.7" x2="90.5" y2="106.7"/>
<line id="XMLID_1319_" class="st3" x1="117.7" y1="66.7" x2="157.5" y2="66.7"/>
</svg>
