<?xml version="1.0" encoding="utf-8"?>
<!-- Generator: Adobe Illustrator 19.0.0, SVG Export Plug-In . SVG Version: 6.00 Build 0)  -->
<svg version="1.1" id="Layer_1_copy_10" xmlns="http://www.w3.org/2000/svg" xmlns:xlink="http://www.w3.org/1999/xlink" x="0px"
	 y="0px" viewBox="0 0 168 136" style="enable-background:new 0 0 168 136;" xml:space="preserve">
<style type="text/css">
	.st0{fill:#FFFFFF;}
	.st1{fill:#E31E24;}
</style>
<g id="XMLID_345_">
	<path id="XMLID_35_" class="st0" d="M31,134c-5.5,0-10-4.5-10-10V55c0-5.5,4.5-10,10-10h106c5.5,0,10,4.5,10,10v69
		c0,5.5-4.5,10-10,10H31z"/>
	<path id="XMLID_32_" class="st1" d="M137,47c4.4,0,8,3.6,8,8v69c0,4.4-3.6,8-8,8H31c-4.4,0-8-3.6-8-8V55c0-4.4,3.6-8,8-8H137
		 M137,43H31c-6.6,0-12,5.4-12,12v69c0,6.6,5.4,12,12,12h106c6.6,0,12-5.4,12-12V55C149,48.4,143.6,43,137,43L137,43z"/>
</g>
<g id="XMLID_346_">
	<path id="XMLID_28_" class="st1" d="M91,25c4.4,0,8,3.6,8,8v10H69V33c0-4.4,3.6-8,8-8H91 M91,21H77c-6.6,0-12,5.4-12,12v14h38V33
		C103,26.4,97.6,21,91,21L91,21z"/>
</g>
<g id="XMLID_403_">
	<path id="XMLID_27_" class="st1" d="M106,85.5c0,3-0.7,5.9-2,8.6c-1.3,2.7-3.2,5-5.6,7L84,112.4L69.6,101c-2.4-1.9-4.3-4.3-5.6-7
		c-1.3-2.7-2-5.6-2-8.6c0-3.2,1.3-6,3.5-8.1S70.7,74,74,74c4.2,0,7.8,2,10,5.1C86.2,76,89.8,74,94,74c3.3,0,6.3,1.3,8.5,3.4
		S106,82.3,106,85.5z"/>
</g>
</svg>
