<?xml version="1.0" encoding="utf-8"?>
<!-- Generator: Adobe Illustrator 19.0.0, SVG Export Plug-In . SVG Version: 6.00 Build 0)  -->
<svg version="1.1" id="Layer_4_copy_2" xmlns="http://www.w3.org/2000/svg" xmlns:xlink="http://www.w3.org/1999/xlink" x="0px"
	 y="0px" viewBox="0 0 210 138" style="enable-background:new 0 0 210 138;" xml:space="preserve">
<style type="text/css">
	.st0{fill:#E31E24;}
	.st1{fill:none;stroke:#E31E24;stroke-width:4;stroke-miterlimit:10;}
	.st2{fill:#FFFFFF;}
	.st3{font-family:'Poppins-Medium';}
	.st4{font-size:30px;}
</style>
<g id="XMLID_1255_">
	<path id="XMLID_26_" class="st0" d="M141,4c2.8,0,5,2.2,5,5v120c0,2.8-2.2,5-5,5H69c-2.8,0-5-2.2-5-5V9c0-2.8,2.2-5,5-5H141 M141,0
		H69c-5,0-9,4-9,9v120c0,5,4,9,9,9h72c5,0,9-4,9-9V9C150,4,146,0,141,0L141,0z"/>
</g>
<line id="XMLID_1254_" class="st1" x1="60" y1="112.9" x2="150" y2="112.9"/>
<circle id="XMLID_1253_" class="st0" cx="105" cy="124.6" r="3.2"/>
<g id="XMLID_1248_">
	<line id="XMLID_1252_" class="st1" x1="75.2" y1="19" x2="114.8" y2="19"/>
	<line id="XMLID_1249_" class="st1" x1="122.2" y1="19" x2="134.8" y2="19"/>
</g>
<g id="XMLID_1198_">
	<path id="XMLID_37_" class="st2" d="M105,99c-11.6,0-21-9.4-21-21s9.4-21,21-21c11.6,0,21,9.4,21,21S116.6,99,105,99z"/>
	<g id="XMLID_32_">
		<path id="XMLID_34_" class="st0" d="M105,59c10.5,0,19,8.5,19,19s-8.5,19-19,19s-19-8.5-19-19S94.5,59,105,59 M105,55
			c-12.7,0-23,10.3-23,23s10.3,23,23,23s23-10.3,23-23S117.7,55,105,55L105,55z"/>
	</g>
</g>
<text id="XMLID_1197_" transform="matrix(1 0 0 1 95.6701 89.3802)" class="st0 st3 st4">₹</text>
<g id="XMLID_1182_">
	<polygon id="XMLID_33_" class="st0" points="90.6,46.7 105,32.3 119.5,46.7 	"/>
</g>
<line id="XMLID_1181_" class="st1" x1="105" y1="55.5" x2="105" y2="38.9"/>
</svg>
