<?xml version="1.0" encoding="utf-8"?>
<!-- Generator: Adobe Illustrator 19.0.0, SVG Export Plug-In . SVG Version: 6.00 Build 0)  -->
<svg version="1.1" id="Layer_1_copy_4" xmlns="http://www.w3.org/2000/svg" xmlns:xlink="http://www.w3.org/1999/xlink" x="0px"
	 y="0px" viewBox="0 0 168 136" style="enable-background:new 0 0 168 136;" xml:space="preserve">
<style type="text/css">
	.st0{fill:#FFFFFF;stroke:#E31E24;stroke-width:4;stroke-miterlimit:10;}
	.st1{fill:#E31E24;}
	.st2{fill:#FFFFFF;}
	.st3{fill:none;stroke:#E31E24;stroke-width:4;stroke-miterlimit:10;}
</style>
<g id="XMLID_210_">
	<path id="XMLID_146_" class="st0" d="M77,64h38c18.8,0,34,15.2,34,34v0H43v0C43,79.2,58.2,64,77,64z"/>
	<g id="XMLID_149_">
		<path id="XMLID_44_" class="st1" d="M42,106c-2.2,0-4-1.8-4-4s1.8-4,4-4h108c2.2,0,4,1.8,4,4s-1.8,4-4,4H42z"/>
		<path id="XMLID_41_" class="st1" d="M150,100c1.1,0,2,0.9,2,2s-0.9,2-2,2H42c-1.1,0-2-0.9-2-2s0.9-2,2-2H150 M150,96H42
			c-3.3,0-6,2.7-6,6s2.7,6,6,6h108c3.3,0,6-2.7,6-6S153.3,96,150,96L150,96z"/>
	</g>
	<g id="XMLID_206_">
		<path id="XMLID_39_" class="st2" d="M64,134c-9.9,0-18-8.1-18-18v-10h100v10c0,9.9-8.1,18-18,18H64z"/>
		<path id="XMLID_36_" class="st1" d="M144,108v8c0,8.8-7.2,16-16,16H64c-8.8,0-16-7.2-16-16v-8H144 M148,104H44v12c0,11,9,20,20,20
			h64c11,0,20-9,20-20V104L148,104z"/>
	</g>
	<circle id="XMLID_207_" class="st1" cx="67" cy="78" r="2"/>
	<circle id="XMLID_211_" class="st1" cx="87" cy="78" r="2"/>
	<circle id="XMLID_222_" class="st1" cx="107" cy="78" r="2"/>
	<circle id="XMLID_223_" class="st1" cx="127" cy="78" r="2"/>
	<circle id="XMLID_238_" class="st1" cx="57" cy="89" r="2"/>
	<circle id="XMLID_235_" class="st1" cx="77" cy="89" r="2"/>
	<circle id="XMLID_230_" class="st1" cx="97" cy="89" r="2"/>
	<circle id="XMLID_228_" class="st1" cx="117" cy="89" r="2"/>
	<circle id="XMLID_239_" class="st1" cx="137" cy="89" r="2"/>
</g>
<g id="XMLID_148_">
	<path id="XMLID_144_" class="st3" d="M73,3h-9c-4.4,0-8,3.6-8,8v26"/>
	<g id="XMLID_51_">
		<polygon id="XMLID_34_" class="st2" points="28.9,134 23,46.2 28.5,26 83.5,26 89,46.2 83.1,134 		"/>
		<path id="XMLID_31_" class="st1" d="M81.9,28l5,18.4L81.3,132H30.7L25,46.4l5-18.4H81.9 M85,24H27l-6,22l6,90h58l6-90L85,24L85,24
			z"/>
	</g>
	<g id="XMLID_128_">
		<rect id="XMLID_29_" x="18" y="38" class="st2" width="76" height="12"/>
		<path id="XMLID_26_" class="st1" d="M92,40v8H20v-8H92 M96,36H16v16h80V36L96,36z"/>
	</g>
	<polygon id="XMLID_143_" class="st1" points="26,79 27,107 85,107 87,79 	"/>
</g>
</svg>
