<?xml version="1.0" encoding="utf-8"?>
<!-- Generator: Adobe Illustrator 19.0.0, SVG Export Plug-In . SVG Version: 6.00 Build 0)  -->
<svg version="1.1" id="Layer_1_copy_2" xmlns="http://www.w3.org/2000/svg" xmlns:xlink="http://www.w3.org/1999/xlink" x="0px"
	 y="0px" viewBox="0 0 168 136" style="enable-background:new 0 0 168 136;" xml:space="preserve">
<style type="text/css">
	.st0{fill:#E31E24;}
	.st1{fill:#FFFFFF;}
	.st2{fill:none;stroke:#E31E24;stroke-width:4;stroke-miterlimit:10;}
	.st3{fill:#FFFFFF;stroke:#E31E24;stroke-width:4;stroke-miterlimit:10;}
</style>
<path id="XMLID_57_" class="st0" d="M73.2,101c-4.8,7.9-13.6,12-23.7,12s-18.9-4.1-23.7-12H73.2z"/>
<g id="XMLID_18_">
	<path id="XMLID_33_" class="st1" d="M90,134c-2.2,0-4-1.8-4-4V61.8c0-7.6,3.2-15,8.6-20.2l4.8-4.6c2.7-2.6,4.3-6.3,4.3-10.1V6
		c0-2.2,1.8-4,4-4h7c2.2,0,4,1.8,4,4v21c0,3.7,1.5,7.3,4.2,10l4.7,4.7c5.3,5.2,8.3,12.5,8.3,19.9V130c0,2.2-1.8,4-4,4H90z"/>
	<path id="XMLID_30_" class="st0" d="M114.8,4c1.1,0,2,0.9,2,2v21c0,4.2,1.7,8.4,4.7,11.4l4.7,4.7c4.9,4.9,7.7,11.6,7.7,18.5V130
		c0,1.1-0.9,2-2,2H90c-1.1,0-2-0.9-2-2V61.8c0-7.1,2.9-13.9,8-18.8l4.8-4.6c3.1-3,4.9-7.2,4.9-11.6V6c0-1.1,0.9-2,2-2H114.8
		 M114.8,0h-7c-3.3,0-6,2.7-6,6v20.9c0,3.3-1.3,6.4-3.7,8.7l-4.8,4.6C87.3,45.8,84,53.6,84,61.8V130c0,3.3,2.7,6,6,6h42
		c3.3,0,6-2.7,6-6V61.5c0-8-3.2-15.7-8.9-21.3l-4.7-4.7c-2.3-2.3-3.6-5.3-3.6-8.5V6C120.8,2.7,118.1,0,114.8,0L114.8,0z"/>
</g>
<line id="XMLID_21_" class="st2" x1="119" y1="28" x2="104" y2="28"/>
<rect id="XMLID_22_" x="86" y="89" class="st0" width="50" height="15"/>
<path id="XMLID_60_" class="st3" d="M77,86c0,17.7-12.3,27-27.5,27S22,103.7,22,86c0-0.9,0.1-1.9,0.2-3c0.8-7.1,4.2-17.6,6.8-22h41
	c2.6,4.4,6,14.9,6.8,22C76.9,84.1,77,85.1,77,86z"/>
<line id="XMLID_38_" class="st2" x1="50" y1="113" x2="50" y2="126"/>
<g id="XMLID_17_">
	<polygon id="XMLID_40_" class="st1" points="43.3,134 50,126.1 56.7,134 	"/>
	<g id="XMLID_35_">
		<path id="XMLID_36_" class="st0" d="M50,129.2l2.4,2.8h-4.8L50,129.2 M50,123l-11,13h22L50,123L50,123z"/>
	</g>
</g>
<path id="XMLID_55_" class="st0" d="M73.2,101c-4.8,7.9-13.6,12-23.7,12s-18.9-4.1-23.7-12H73.2z"/>
</svg>
