<?xml version="1.0" encoding="utf-8"?>
<!-- Generator: Adobe Illustrator 19.0.0, SVG Export Plug-In . SVG Version: 6.00 Build 0)  -->
<svg version="1.1" id="Layer_5_copy_2" xmlns="http://www.w3.org/2000/svg" xmlns:xlink="http://www.w3.org/1999/xlink" x="0px"
	 y="0px" viewBox="0 0 210 138" style="enable-background:new 0 0 210 138;" xml:space="preserve">
<style type="text/css">
	.st0{fill:#E31E24;}
	.st1{fill:#FFFFFF;}
	.st2{fill:none;stroke:#E31E24;stroke-width:4;stroke-miterlimit:10;}
</style>
<g id="XMLID_1314_">
	<path id="XMLID_26_" class="st0" d="M108.9,14.3c1.7,0,3.4,0.1,5,0.2c23,2.1,42.4,18.5,48,41l0.6,2.3l2.3,0.6
		C179.7,62,190,75.3,190,90.6c0,18.3-14.9,33.2-33.2,33.2h-2.6H52.4c-18.3,0-33.2-14.9-33.2-33.2c0-18.2,14.8-33.1,33-33.2l3,0
		l0.8-2.9C62.6,30.8,84.3,14.3,108.9,14.3 M108.9,10.3c-27,0-49.8,18.3-56.6,43.1c-20.5,0.1-37,16.7-37,37.2
		c0,20.5,16.6,37.2,37.2,37.2h101.9c0,0,1.7,0,2.6,0c20.5,0,37.2-16.6,37.2-37.2c0-17.4-12-32.1-28.2-36.1
		c-6-23.7-26.5-41.7-51.6-44C112.5,10.3,110.7,10.3,108.9,10.3L108.9,10.3z"/>
</g>
<g id="XMLID_1307_">
	<path id="XMLID_40_" class="st1" d="M82,109.7c-2.2,0-4-1.8-4-4v-36c0-2.2,1.8-4,4-4h48c2.2,0,4,1.8,4,4v36c0,2.2-1.8,4-4,4H82z"/>
	<g id="XMLID_36_">
		<path id="XMLID_37_" class="st0" d="M130,67.7c1.1,0,2,0.9,2,2v36c0,1.1-0.9,2-2,2H82c-1.1,0-2-0.9-2-2v-36c0-1.1,0.9-2,2-2H130
			 M130,63.7H82c-3.3,0-6,2.7-6,6v36c0,3.3,2.7,6,6,6h48c3.3,0,6-2.7,6-6v-36C136,66.4,133.3,63.7,130,63.7L130,63.7z"/>
	</g>
</g>
<g id="XMLID_1301_">
	<g id="XMLID_31_">
		<path id="XMLID_32_" class="st0" d="M106,46.4c6.1,0,11,4.9,11,11v6H95v-6C95,51.3,99.9,46.4,106,46.4 M106,42.4L106,42.4
			c-8.3,0-15,6.7-15,15v10h30v-10C121,49.1,114.3,42.4,106,42.4L106,42.4z"/>
	</g>
</g>
<g id="XMLID_1261_">
	<line id="XMLID_1300_" class="st2" x1="98" y1="84.5" x2="98" y2="101.3"/>
	<line id="XMLID_1263_" class="st2" x1="106" y1="84.5" x2="106" y2="101.3"/>
	<line id="XMLID_1262_" class="st2" x1="114" y1="84.5" x2="114" y2="101.3"/>
</g>
</svg>
