<?xml version="1.0" encoding="utf-8"?>
<!-- Generator: Adobe Illustrator 19.0.0, SVG Export Plug-In . SVG Version: 6.00 Build 0)  -->
<svg version="1.1" id="Layer_5_copy_2" xmlns="http://www.w3.org/2000/svg" xmlns:xlink="http://www.w3.org/1999/xlink" x="0px"
	 y="0px" viewBox="0 0 168 136" style="enable-background:new 0 0 168 136;" xml:space="preserve">
<style type="text/css">
	.st0{fill:#FFFFFF;}
	.st1{fill:#E31E24;}
</style>
<g id="XMLID_111_">
	<path id="XMLID_49_" class="st0" d="M102,133c-14.9,0-27-12.1-27-27s12.1-27,27-27s27,12.1,27,27S116.9,133,102,133z"/>
	<path id="XMLID_46_" class="st1" d="M102,81c13.8,0,25,11.2,25,25s-11.2,25-25,25s-25-11.2-25-25S88.2,81,102,81 M102,77
		c-16,0-29,13-29,29s13,29,29,29s29-13,29-29S118,77,102,77L102,77z"/>
</g>
<g id="XMLID_117_">
	<g id="XMLID_112_">
		<path id="XMLID_163_" class="st1" d="M102,101.3c0,0,0,0-0.1-0.1c-0.1-0.1-0.2-0.2-0.3-0.4c-0.2-0.3-0.5-0.8-0.8-1.3
			c-0.5-1.1-0.8-2.5-0.8-4c0-1.4,0.3-2.9,0.8-4c0.3-0.5,0.5-1,0.8-1.3c0.1-0.2,0.2-0.3,0.3-0.4c0.1-0.1,0.1-0.1,0.1-0.1s0,0,0.1,0.1
			c0.1,0.1,0.2,0.2,0.3,0.4c0.2,0.3,0.5,0.8,0.8,1.3c0.5,1.1,0.8,2.5,0.8,4c0,1.5-0.3,2.9-0.8,4c-0.3,0.5-0.5,1-0.8,1.3
			c-0.1,0.2-0.2,0.3-0.3,0.4C102,101.2,102,101.3,102,101.3z"/>
	</g>
	<g id="XMLID_118_">
		<path id="XMLID_161_" class="st1" d="M98.6,102.6c0,0-0.1,0-0.2,0c-0.1,0-0.3,0-0.5-0.1c-0.4-0.1-0.9-0.2-1.5-0.4
			c-1.1-0.4-2.4-1.2-3.4-2.2c-1-1-1.8-2.3-2.2-3.4c-0.2-0.6-0.3-1.1-0.4-1.5c0-0.2,0-0.4-0.1-0.5c0-0.1,0-0.2,0-0.2s0.1,0,0.2,0
			c0.1,0,0.3,0,0.5,0.1c0.4,0.1,0.9,0.2,1.5,0.4c1.1,0.4,2.4,1.2,3.4,2.2c1,1,1.8,2.3,2.2,3.4c0.2,0.6,0.3,1.1,0.4,1.5
			c0,0.2,0,0.4,0.1,0.5C98.6,102.6,98.6,102.6,98.6,102.6z"/>
	</g>
	<g id="XMLID_119_">
		<path id="XMLID_159_" class="st1" d="M97.3,106c0,0,0,0-0.1,0.1c-0.1,0.1-0.2,0.2-0.4,0.3c-0.3,0.2-0.8,0.5-1.3,0.8
			c-1.1,0.5-2.5,0.8-4,0.8c-1.4,0-2.9-0.3-4-0.8c-0.5-0.3-1-0.5-1.3-0.8c-0.2-0.1-0.3-0.2-0.4-0.3c-0.1-0.1-0.1-0.1-0.1-0.1
			s0,0,0.1-0.1c0.1-0.1,0.2-0.2,0.4-0.3c0.3-0.2,0.8-0.5,1.3-0.8c1.1-0.5,2.5-0.8,4-0.8c1.5,0,2.9,0.3,4,0.8c0.5,0.3,1,0.5,1.3,0.8
			c0.2,0.1,0.3,0.2,0.4,0.3C97.2,106,97.3,106,97.3,106z"/>
	</g>
	<g id="XMLID_122_">
		<path id="XMLID_157_" class="st1" d="M98.6,109.4c0,0,0,0.1,0,0.2c0,0.1,0,0.3-0.1,0.5c-0.1,0.4-0.2,0.9-0.4,1.5
			c-0.4,1.1-1.2,2.4-2.2,3.4c-1,1-2.3,1.8-3.4,2.2c-0.6,0.2-1.1,0.3-1.5,0.4c-0.2,0-0.4,0-0.5,0.1c-0.1,0-0.2,0-0.2,0s0-0.1,0-0.2
			c0-0.1,0-0.3,0.1-0.5c0.1-0.4,0.2-0.9,0.4-1.5c0.4-1.1,1.2-2.4,2.2-3.4c1-1,2.3-1.8,3.4-2.2c0.6-0.2,1.1-0.3,1.5-0.4
			c0.2,0,0.4,0,0.5-0.1C98.6,109.4,98.6,109.4,98.6,109.4z"/>
	</g>
	<g id="XMLID_123_">
		<path id="XMLID_155_" class="st1" d="M102,110.7c0,0,0,0,0.1,0.1c0.1,0.1,0.2,0.2,0.3,0.4c0.2,0.3,0.5,0.8,0.8,1.3
			c0.5,1.1,0.8,2.5,0.8,4c0,1.4-0.3,2.9-0.8,4c-0.3,0.5-0.5,1-0.8,1.3c-0.1,0.2-0.2,0.3-0.3,0.4c-0.1,0.1-0.1,0.1-0.1,0.1
			s0,0-0.1-0.1c-0.1-0.1-0.2-0.2-0.3-0.4c-0.2-0.3-0.5-0.8-0.8-1.3c-0.5-1.1-0.8-2.5-0.8-4c0-1.5,0.3-2.9,0.8-4
			c0.3-0.5,0.5-1,0.8-1.3c0.1-0.2,0.2-0.3,0.3-0.4C102,110.8,102,110.7,102,110.7z"/>
	</g>
	<g id="XMLID_125_">
		<path id="XMLID_152_" class="st1" d="M105.4,109.4c0,0,0.1,0,0.2,0c0.1,0,0.3,0,0.5,0.1c0.4,0.1,0.9,0.2,1.5,0.4
			c1.1,0.4,2.4,1.2,3.4,2.2c1,1,1.8,2.3,2.2,3.4c0.2,0.6,0.3,1.1,0.4,1.5c0,0.2,0,0.4,0.1,0.5c0,0.1,0,0.2,0,0.2s-0.1,0-0.2,0
			c-0.1,0-0.3,0-0.5-0.1c-0.4-0.1-0.9-0.2-1.5-0.4c-1.1-0.4-2.4-1.2-3.4-2.2c-1-1-1.8-2.3-2.2-3.4c-0.2-0.6-0.3-1.1-0.4-1.5
			c0-0.2,0-0.4-0.1-0.5C105.4,109.4,105.4,109.4,105.4,109.4z"/>
	</g>
	<g id="XMLID_141_">
		<path id="XMLID_165_" class="st1" d="M106.7,106c0,0,0,0,0.1-0.1c0.1-0.1,0.2-0.2,0.4-0.3c0.3-0.2,0.8-0.5,1.3-0.8
			c1.1-0.5,2.5-0.8,4-0.8c1.4,0,2.9,0.3,4,0.8c0.5,0.3,1,0.5,1.3,0.8c0.2,0.1,0.3,0.2,0.4,0.3c0.1,0.1,0.1,0.1,0.1,0.1s0,0-0.1,0.1
			c-0.1,0.1-0.2,0.2-0.4,0.3c-0.3,0.2-0.8,0.5-1.3,0.8c-1.1,0.5-2.5,0.8-4,0.8c-1.5,0-2.9-0.3-4-0.8c-0.5-0.3-1-0.5-1.3-0.8
			c-0.2-0.1-0.3-0.2-0.4-0.3C106.8,106,106.7,106,106.7,106z"/>
	</g>
	<g id="XMLID_142_">
		<path id="XMLID_172_" class="st1" d="M105.4,102.6c0,0,0-0.1,0-0.2c0-0.1,0-0.3,0.1-0.5c0.1-0.4,0.2-0.9,0.4-1.5
			c0.4-1.1,1.2-2.4,2.2-3.4c1-1,2.3-1.8,3.4-2.2c0.6-0.2,1.1-0.3,1.5-0.4c0.2,0,0.4,0,0.5-0.1c0.1,0,0.2,0,0.2,0s0,0.1,0,0.2
			c0,0.1,0,0.3-0.1,0.5c-0.1,0.4-0.2,0.9-0.4,1.5c-0.4,1.1-1.2,2.4-2.2,3.4c-1,1-2.3,1.8-3.4,2.2c-0.6,0.2-1.1,0.3-1.5,0.4
			c-0.2,0-0.4,0-0.5,0.1C105.4,102.6,105.4,102.6,105.4,102.6z"/>
	</g>
</g>
<g id="XMLID_205_">
	<path id="XMLID_44_" class="st0" d="M122,134c-14.9,0-27-12.1-27-27s12.1-27,27-27s27,12.1,27,27S136.9,134,122,134z"/>
	<path id="XMLID_41_" class="st1" d="M122,82c13.8,0,25,11.2,25,25s-11.2,25-25,25s-25-11.2-25-25S108.2,82,122,82 M122,78
		c-16,0-29,13-29,29s13,29,29,29s29-13,29-29S138,78,122,78L122,78z"/>
</g>
<g id="XMLID_129_">
	<g id="XMLID_202_">
		<path id="XMLID_204_" class="st1" d="M122,102.3c0,0,0,0-0.1-0.1c-0.1-0.1-0.2-0.2-0.3-0.4c-0.2-0.3-0.5-0.8-0.8-1.3
			c-0.5-1.1-0.8-2.5-0.8-4c0-1.4,0.3-2.9,0.8-4c0.3-0.5,0.5-1,0.8-1.3c0.1-0.2,0.2-0.3,0.3-0.4c0.1-0.1,0.1-0.1,0.1-0.1s0,0,0.1,0.1
			c0.1,0.1,0.2,0.2,0.3,0.4c0.2,0.3,0.5,0.8,0.8,1.3c0.5,1.1,0.8,2.5,0.8,4c0,1.5-0.3,2.9-0.8,4c-0.3,0.5-0.5,1-0.8,1.3
			c-0.1,0.2-0.2,0.3-0.3,0.4C122,102.2,122,102.3,122,102.3z"/>
	</g>
	<g id="XMLID_199_">
		<path id="XMLID_201_" class="st1" d="M118.6,103.6c0,0-0.1,0-0.2,0c-0.1,0-0.3,0-0.5-0.1c-0.4-0.1-0.9-0.2-1.5-0.4
			c-1.1-0.4-2.4-1.2-3.4-2.2c-1-1-1.8-2.3-2.2-3.4c-0.2-0.6-0.3-1.1-0.4-1.5c0-0.2,0-0.4-0.1-0.5c0-0.1,0-0.2,0-0.2s0.1,0,0.2,0
			c0.1,0,0.3,0,0.5,0.1c0.4,0.1,0.9,0.2,1.5,0.4c1.1,0.4,2.4,1.2,3.4,2.2c1,1,1.8,2.3,2.2,3.4c0.2,0.6,0.3,1.1,0.4,1.5
			c0,0.2,0,0.4,0.1,0.5C118.6,103.6,118.6,103.6,118.6,103.6z"/>
	</g>
	<g id="XMLID_196_">
		<path id="XMLID_198_" class="st1" d="M117.3,107c0,0,0,0-0.1,0.1c-0.1,0.1-0.2,0.2-0.4,0.3c-0.3,0.2-0.8,0.5-1.3,0.8
			c-1.1,0.5-2.5,0.8-4,0.8c-1.4,0-2.9-0.3-4-0.8c-0.5-0.3-1-0.5-1.3-0.8c-0.2-0.1-0.3-0.2-0.4-0.3c-0.1-0.1-0.1-0.1-0.1-0.1
			s0,0,0.1-0.1c0.1-0.1,0.2-0.2,0.4-0.3c0.3-0.2,0.8-0.5,1.3-0.8c1.1-0.5,2.5-0.8,4-0.8c1.5,0,2.9,0.3,4,0.8c0.5,0.3,1,0.5,1.3,0.8
			c0.2,0.1,0.3,0.2,0.4,0.3C117.2,107,117.3,107,117.3,107z"/>
	</g>
	<g id="XMLID_193_">
		<path id="XMLID_195_" class="st1" d="M118.6,110.4c0,0,0,0.1,0,0.2c0,0.1,0,0.3-0.1,0.5c-0.1,0.4-0.2,0.9-0.4,1.5
			c-0.4,1.1-1.2,2.4-2.2,3.4c-1,1-2.3,1.8-3.4,2.2c-0.6,0.2-1.1,0.3-1.5,0.4c-0.2,0-0.4,0-0.5,0.1c-0.1,0-0.2,0-0.2,0s0-0.1,0-0.2
			c0-0.1,0-0.3,0.1-0.5c0.1-0.4,0.2-0.9,0.4-1.5c0.4-1.1,1.2-2.4,2.2-3.4c1-1,2.3-1.8,3.4-2.2c0.6-0.2,1.1-0.3,1.5-0.4
			c0.2,0,0.4,0,0.5-0.1C118.6,110.4,118.6,110.4,118.6,110.4z"/>
	</g>
	<g id="XMLID_190_">
		<path id="XMLID_192_" class="st1" d="M122,111.7c0,0,0,0,0.1,0.1c0.1,0.1,0.2,0.2,0.3,0.4c0.2,0.3,0.5,0.8,0.8,1.3
			c0.5,1.1,0.8,2.5,0.8,4c0,1.4-0.3,2.9-0.8,4c-0.3,0.5-0.5,1-0.8,1.3c-0.1,0.2-0.2,0.3-0.3,0.4c-0.1,0.1-0.1,0.1-0.1,0.1
			s0,0-0.1-0.1c-0.1-0.1-0.2-0.2-0.3-0.4c-0.2-0.3-0.5-0.8-0.8-1.3c-0.5-1.1-0.8-2.5-0.8-4c0-1.5,0.3-2.9,0.8-4
			c0.3-0.5,0.5-1,0.8-1.3c0.1-0.2,0.2-0.3,0.3-0.4C122,111.8,122,111.7,122,111.7z"/>
	</g>
	<g id="XMLID_171_">
		<path id="XMLID_177_" class="st1" d="M125.4,110.4c0,0,0.1,0,0.2,0c0.1,0,0.3,0,0.5,0.1c0.4,0.1,0.9,0.2,1.5,0.4
			c1.1,0.4,2.4,1.2,3.4,2.2c1,1,1.8,2.3,2.2,3.4c0.2,0.6,0.3,1.1,0.4,1.5c0,0.2,0,0.4,0.1,0.5c0,0.1,0,0.2,0,0.2s-0.1,0-0.2,0
			c-0.1,0-0.3,0-0.5-0.1c-0.4-0.1-0.9-0.2-1.5-0.4c-1.1-0.4-2.4-1.2-3.4-2.2c-1-1-1.8-2.3-2.2-3.4c-0.2-0.6-0.3-1.1-0.4-1.5
			c0-0.2,0-0.4-0.1-0.5C125.4,110.4,125.4,110.4,125.4,110.4z"/>
	</g>
	<g id="XMLID_145_">
		<path id="XMLID_175_" class="st1" d="M126.7,107c0,0,0,0,0.1-0.1c0.1-0.1,0.2-0.2,0.4-0.3c0.3-0.2,0.8-0.5,1.3-0.8
			c1.1-0.5,2.5-0.8,4-0.8c1.4,0,2.9,0.3,4,0.8c0.5,0.3,1,0.5,1.3,0.8c0.2,0.1,0.3,0.2,0.4,0.3c0.1,0.1,0.1,0.1,0.1,0.1s0,0-0.1,0.1
			c-0.1,0.1-0.2,0.2-0.4,0.3c-0.3,0.2-0.8,0.5-1.3,0.8c-1.1,0.5-2.5,0.8-4,0.8c-1.4,0-2.9-0.3-4-0.8c-0.5-0.3-1-0.5-1.3-0.8
			c-0.2-0.1-0.3-0.2-0.4-0.3C126.8,107,126.7,107,126.7,107z"/>
	</g>
	<g id="XMLID_136_">
		<path id="XMLID_173_" class="st1" d="M125.4,103.6c0,0,0-0.1,0-0.2c0-0.1,0-0.3,0.1-0.5c0.1-0.4,0.2-0.9,0.4-1.5
			c0.4-1.1,1.2-2.4,2.2-3.4c1-1,2.3-1.8,3.4-2.2c0.6-0.2,1.1-0.3,1.5-0.4c0.2,0,0.4,0,0.5-0.1c0.1,0,0.2,0,0.2,0s0,0.1,0,0.2
			c0,0.1,0,0.3-0.1,0.5c-0.1,0.4-0.2,0.9-0.4,1.5c-0.4,1.1-1.2,2.4-2.2,3.4c-1,1-2.3,1.8-3.4,2.2c-0.6,0.2-1.1,0.3-1.5,0.4
			c-0.2,0-0.4,0-0.5,0.1C125.4,103.6,125.4,103.6,125.4,103.6z"/>
	</g>
</g>
<g id="XMLID_147_">
	<path id="XMLID_39_" class="st0" d="M41,134c-2.2,0-4-1.8-4-4V80h32v50c0,2.2-1.8,4-4,4H41z"/>
	<path id="XMLID_36_" class="st1" d="M67,82v48c0,1.1-0.9,2-2,2H41c-1.1,0-2-0.9-2-2V82H67 M71,78H35v52c0,3.3,2.7,6,6,6h24
		c3.3,0,6-2.7,6-6V78L71,78z"/>
</g>
<g id="XMLID_151_">
	<rect id="XMLID_34_" x="39" y="70" class="st0" width="28" height="10"/>
	<path id="XMLID_31_" class="st1" d="M65,72v6H41v-6H65 M69,68H37v14h32V68L69,68z"/>
</g>
<g id="XMLID_154_">
	<polygon id="XMLID_29_" class="st0" points="45,70 45,24.2 61,32.2 61,70 	"/>
	<path id="XMLID_26_" class="st1" d="M47,27.5l12,6V68H47V27.5 M43,21v51h20V31L43,21L43,21z"/>
</g>
</svg>
