<?xml version="1.0" encoding="utf-8"?>
<!-- Generator: Adobe Illustrator 19.0.0, SVG Export Plug-In . SVG Version: 6.00 Build 0)  -->
<svg version="1.1" id="Layer_1" xmlns="http://www.w3.org/2000/svg" xmlns:xlink="http://www.w3.org/1999/xlink" x="0px" y="0px"
	 viewBox="0 0 168 136" style="enable-background:new 0 0 168 136;" xml:space="preserve">
<style type="text/css">
	.st0{fill:none;stroke:#E31E24;stroke-width:4;stroke-miterlimit:10;}
	.st1{fill:#FFFFFF;}
	.st2{fill:#E31E24;}
	.st3{fill:#FFFFFF;stroke:#E31E24;stroke-width:4;stroke-miterlimit:10;}
</style>
<path id="XMLID_8_" class="st0" d="M86,66V25.6C86,14.8,95,6,106,6h0c11,0,20,8.8,20,19.6V66"/>
<g id="XMLID_2_">
	<polygon id="XMLID_48_" class="st1" points="36.2,134 45.7,36 126.3,36 135.8,134 	"/>
	<path id="XMLID_45_" class="st2" d="M124.5,38l9.1,94H38.4l9.1-94H124.5 M128.2,34H43.8L34,136h104L128.2,34L128.2,34z"/>
</g>
<g id="XMLID_4_">
	<path id="XMLID_43_" class="st1" d="M136.9,134l-9.6-96.8c2.5,0.9,5.1,1.4,7.7,1.4c2.8,0,5.6-0.5,8.2-1.5l9.6,97H136.9z"/>
	<path id="XMLID_40_" class="st2" d="M141.5,39.7l9.1,92.3h-11.9l-9.1-92c1.8,0.4,3.6,0.6,5.4,0.6C137.2,40.6,139.4,40.3,141.5,39.7
		 M144.9,34L144.9,34c-3.1,1.7-6.5,2.6-9.9,2.6c-2.8,0-5.7-0.6-8.3-1.8L125,34l10.1,102H155L144.9,34L144.9,34z"/>
</g>
<path id="XMLID_5_" class="st0" d="M66,62V21.6C66,10.8,75,2,86,2h0c11,0,20,8.8,20,19.6V62"/>
<g id="XMLID_3_">
	<rect id="XMLID_38_" x="19" y="96" class="st1" width="62" height="38"/>
	<path id="XMLID_35_" class="st2" d="M79,98v34H21V98H79 M83,94H17v42h66V94L83,94z"/>
</g>
<line id="XMLID_7_" class="st3" x1="17" y1="106" x2="83" y2="106"/>
<line id="XMLID_9_" class="st0" x1="42" y1="119" x2="51" y2="119"/>
<line id="XMLID_10_" class="st0" x1="54" y1="119" x2="63" y2="119"/>
<line id="XMLID_11_" class="st0" x1="66" y1="119" x2="75" y2="119"/>
</svg>
