<?xml version="1.0" encoding="utf-8"?>
<!-- Generator: Adobe Illustrator 19.0.0, SVG Export Plug-In . SVG Version: 6.00 Build 0)  -->
<svg version="1.1" id="Layer_1_copy_7" xmlns="http://www.w3.org/2000/svg" xmlns:xlink="http://www.w3.org/1999/xlink" x="0px"
	 y="0px" viewBox="0 0 168 136" style="enable-background:new 0 0 168 136;" xml:space="preserve">
<style type="text/css">
	.st0{fill:#FFFFFF;}
	.st1{fill:#E31E24;}
	.st2{fill:none;stroke:#E31E24;stroke-width:4;stroke-miterlimit:10;}
</style>
<g id="XMLID_260_">
	<path id="XMLID_31_" class="st0" d="M67.1,102c-4.5,0-8.1-3.6-8.1-8.1V33C59,19.2,70.2,8,84,8s25,11.2,25,25v60.9
		c0,4.5-3.6,8.1-8.1,8.1H67.1z"/>
	<path id="XMLID_28_" class="st1" d="M84,10c12.7,0,23,10.3,23,23v60.9c0,3.4-2.7,6.1-6.1,6.1H67.1c-3.4,0-6.1-2.7-6.1-6.1V33
		C61,20.3,71.3,10,84,10 M84,6L84,6C69.1,6,57,18.1,57,33v60.9c0,5.6,4.5,10.1,10.1,10.1h33.8c5.6,0,10.1-4.5,10.1-10.1V33
		C111,18.1,98.9,6,84,6L84,6z"/>
</g>
<g id="XMLID_288_">
	<path id="XMLID_27_" class="st1" d="M90,100H78v30c0,3.3,2.7,6,6,6h0c3.3,0,6-2.7,6-6V100z"/>
</g>
<line id="XMLID_289_" class="st2" x1="76" y1="34" x2="76" y2="83"/>
<line id="XMLID_291_" class="st2" x1="92" y1="34" x2="92" y2="83"/>
</svg>
