<?xml version="1.0" standalone="no"?>
<!DOCTYPE svg PUBLIC "-//W3C//DTD SVG 20010904//EN"
 "http://www.w3.org/TR/2001/REC-SVG-20010904/DTD/svg10.dtd">
<svg version="1.0" xmlns="http://www.w3.org/2000/svg"
 width="150.000000pt" height="150.000000pt" viewBox="0 0 150.000000 150.000000"
 preserveAspectRatio="xMidYMid meet">
<metadata>
Created by potrace 1.15, written by Peter Selinger 2001-2017
</metadata>
<g transform="translate(0.000000,150.000000) scale(0.100000,-0.100000)"
fill="#E31E24" stroke="none">
<path d="M641 1335 c-36 -31 -55 -84 -47 -130 l7 -34 -108 -55 -108 -54 -48
-200 c-42 -177 -51 -229 -67 -434 -24 -289 -25 -337 -5 -344 10 -4 15 -20 15
-45 l0 -39 70 0 70 0 0 43 c-1 48 94 512 98 482 1 -11 -1 -87 -5 -168 -8 -147
-8 -149 19 -220 16 -39 28 -86 28 -104 l0 -33 280 0 280 0 0 33 c0 18 12 65
28 104 27 71 27 73 19 220 -4 81 -6 157 -5 168 4 30 99 -434 98 -482 l0 -43
70 0 70 0 0 39 c0 25 5 41 15 45 20 7 19 55 -5 344 -17 205 -25 257 -67 434
l-48 200 -108 54 -108 55 7 34 c8 46 -11 99 -47 130 -30 25 -33 25 -199 25
-166 0 -169 0 -199 -25z m319 -60 c40 -36 14 -90 -64 -131 l-56 -29 -56 29
c-75 39 -104 95 -66 128 25 23 48 27 139 24 63 -2 87 -7 103 -21z m-200 -190
l55 -12 3 -91 c2 -73 6 -92 17 -92 12 0 15 18 15 89 0 99 -4 94 75 106 22 3
58 16 80 29 l40 23 106 -55 106 -55 46 -196 c42 -175 49 -223 67 -451 19 -253
19 -254 0 -275 -11 -12 -20 -31 -20 -43 0 -15 -6 -22 -20 -22 -13 0 -20 7 -20
18 0 10 -27 145 -60 300 -33 155 -60 285 -60 287 0 10 -69 5 -75 -5 -3 -5 -1
-101 5 -213 l11 -203 -25 -68 c-14 -38 -26 -79 -26 -92 l0 -24 -240 0 -240 0
0 24 c0 13 -12 54 -26 92 l-25 68 11 203 c6 112 8 208 5 213 -6 10 -75 15 -75
5 0 -2 -27 -132 -60 -287 -33 -155 -60 -290 -60 -300 0 -11 -7 -18 -20 -18
-14 0 -20 7 -20 22 0 12 -9 31 -20 43 -19 21 -19 22 0 275 18 228 25 276 67
451 l46 196 105 56 105 55 35 -21 c20 -12 61 -26 92 -32z"/>
</g>
</svg>
