<?xml version="1.0" standalone="no"?>
<!DOCTYPE svg PUBLIC "-//W3C//DTD SVG 20010904//EN"
 "http://www.w3.org/TR/2001/REC-SVG-20010904/DTD/svg10.dtd">
<svg version="1.0" xmlns="http://www.w3.org/2000/svg"
 width="150.000000pt" height="150.000000pt" viewBox="0 0 150.000000 150.000000"
 preserveAspectRatio="xMidYMid meet">
<metadata>
Created by potrace 1.15, written by Peter Selinger 2001-2017
</metadata>
<g transform="translate(0.000000,150.000000) scale(0.100000,-0.100000)"
fill="#FF0000" stroke="none">
<path d="M210 680 l0 -680 630 0 630 0 0 440 0 440 -290 0 -290 0 0 240 0 240
-340 0 -340 0 0 -680z m640 430 l0 -210 -300 0 -300 0 0 210 0 210 300 0 300
0 0 -210z m-140 -660 l0 -410 -230 0 -230 0 0 410 0 410 230 0 230 0 0 -410z
m270 350 l0 -40 -115 0 -115 0 0 40 0 40 115 0 115 0 0 -40z m450 0 l0 -40
-205 0 -205 0 0 40 0 40 205 0 205 0 0 -40z m0 -420 l0 -340 -340 0 -340 0 0
340 0 340 340 0 340 0 0 -340z"/>
<path d="M1001 633 c-88 -31 -161 -136 -161 -233 0 -132 118 -250 250 -250 60
0 130 30 175 75 188 188 -12 497 -264 408z m167 -39 c174 -72 174 -316 0 -388
-133 -56 -287 47 -288 192 -1 147 154 253 288 196z"/>
<path d="M1010 558 c-132 -67 -132 -249 0 -316 56 -28 104 -28 160 0 132 67
132 249 0 316 -24 12 -60 22 -80 22 -20 0 -56 -10 -80 -22z m148 -38 c18 -11
41 -34 52 -52 71 -117 -71 -259 -188 -188 -18 11 -41 34 -52 52 -71 117 71
259 188 188z"/>
</g>
</svg>
