<?xml version="1.0" standalone="no"?>
<!DOCTYPE svg PUBLIC "-//W3C//DTD SVG 20010904//EN"
 "http://www.w3.org/TR/2001/REC-SVG-20010904/DTD/svg10.dtd">
<svg version="1.0" xmlns="http://www.w3.org/2000/svg"
 width="150.000000pt" height="150.000000pt" viewBox="0 0 150.000000 150.000000"
 preserveAspectRatio="xMidYMid meet">
<metadata>
Created by potrace 1.15, written by Peter Selinger 2001-2017
</metadata>
<g transform="translate(0.000000,150.000000) scale(0.100000,-0.100000)"
fill="#E31E24" stroke="none">
<path d="M417 1250 c-24 -142 -23 -150 13 -150 l30 0 0 -260 c0 -167 -4 -260
-10 -260 -5 0 -10 -18 -10 -40 0 -33 -3 -40 -20 -40 -19 0 -20 -7 -20 -214 l0
-214 31 -31 c26 -27 38 -31 84 -31 46 0 58 4 84 31 l31 31 0 214 0 214 -24 0
c-21 0 -24 5 -30 61 -3 34 -6 169 -6 300 l0 239 25 0 c30 0 30 2 8 143 l-17
107 -76 0 -77 0 -16 -100z m142 -9 c15 -92 15 -91 -14 -91 l-25 0 0 -285 c0
-183 -4 -285 -10 -285 -6 0 -10 102 -10 285 l0 285 -25 0 c-29 0 -29 -1 -14
91 l12 69 37 0 37 0 12 -69z m31 -961 c0 -179 0 -181 -25 -205 -31 -32 -69
-32 -100 0 -25 24 -25 26 -25 205 l0 180 75 0 75 0 0 -180z"/>
<path d="M876 1317 c-35 -46 -47 -83 -47 -149 -1 -73 28 -135 82 -181 l39 -34
0 -273 0 -273 -39 -34 c-54 -46 -83 -108 -82 -181 0 -66 12 -103 47 -149 21
-27 32 -33 63 -33 21 0 43 6 48 13 6 6 13 42 16 80 5 76 18 97 57 97 38 0 47
-15 53 -93 6 -84 17 -99 71 -95 35 3 44 9 71 46 28 41 30 50 30 132 0 82 -2
91 -30 132 -17 23 -45 52 -63 63 l-31 20 0 275 0 275 31 20 c18 11 46 40 63
63 28 41 30 50 30 132 0 82 -2 91 -30 132 -27 37 -36 43 -71 46 -54 4 -65 -11
-71 -95 -6 -78 -15 -93 -53 -93 -39 0 -52 21 -57 97 -3 38 -10 74 -16 81 -5 6
-27 12 -48 12 -31 0 -42 -6 -63 -33z m84 -78 c7 -88 39 -129 100 -129 63 0
100 50 100 134 0 59 11 76 37 54 45 -37 65 -139 40 -201 -14 -32 -88 -107
-107 -107 -6 0 -10 -111 -10 -310 0 -199 4 -310 10 -310 19 0 93 -75 107 -107
25 -62 5 -164 -40 -201 -26 -22 -37 -5 -37 53 0 66 -15 102 -51 121 -45 23
-78 17 -115 -20 -31 -31 -34 -39 -34 -94 0 -65 -11 -82 -37 -60 -45 37 -65
139 -40 201 14 32 88 107 107 107 6 0 10 111 10 310 0 199 -4 310 -10 310 -19
0 -93 75 -107 107 -25 60 -10 147 34 195 26 29 38 16 43 -53z"/>
</g>
</svg>
