<?xml version="1.0" standalone="no"?>
<!DOCTYPE svg PUBLIC "-//W3C//DTD SVG 20010904//EN"
 "http://www.w3.org/TR/2001/REC-SVG-20010904/DTD/svg10.dtd">
<svg version="1.0" xmlns="http://www.w3.org/2000/svg"
 width="150.000000pt" height="150.000000pt" viewBox="0 0 150.000000 150.000000"
 preserveAspectRatio="xMidYMid meet">
<metadata>
Created by potrace 1.15, written by Peter Selinger 2001-2017
</metadata>
<g transform="translate(0.000000,150.000000) scale(0.100000,-0.100000)"
fill="#E31E24" stroke="none">
<path d="M340 1025 l0 -235 -30 0 c-29 0 -30 -1 -30 -50 0 -27 -4 -50 -10 -50
-6 0 -10 -99 -10 -278 0 -258 1 -280 18 -295 16 -14 43 -17 164 -17 128 0 147
2 161 18 15 16 17 52 17 295 0 178 -4 277 -10 277 -5 0 -10 23 -10 50 0 49 -1
50 -30 50 l-30 0 0 188 0 188 -67 33 c-38 19 -83 40 -100 47 l-33 14 0 -235z
m160 -70 l0 -175 -60 0 -60 0 0 205 0 205 60 -30 60 -30 0 -175z m80 -559 c0
-213 -2 -245 -16 -250 -20 -8 -228 -8 -248 0 -14 5 -16 37 -16 250 l0 244 140
0 140 0 0 -244z"/>
<path d="M837 686 c-92 -34 -166 -109 -188 -190 -6 -23 -9 -75 -7 -117 7 -114
54 -185 162 -242 33 -17 63 -22 151 -26 223 -8 257 -7 301 16 61 32 101 69
132 122 25 42 27 55 27 146 0 91 -2 104 -27 146 -31 53 -71 89 -132 122 -32
17 -61 22 -136 24 -52 1 -129 5 -170 8 -52 4 -87 1 -113 -9z m131 -36 c10 0 1
-13 -24 -34 -22 -19 -49 -50 -59 -70 -16 -30 -24 -36 -42 -31 -27 6 -30 -10
-8 -42 21 -29 9 -51 -28 -55 -42 -4 -41 -22 2 -26 35 -4 37 -12 15 -81 -6 -20
-4 -22 13 -17 15 5 23 -1 35 -28 9 -18 31 -50 48 -69 17 -19 27 -38 23 -40
-12 -8 -99 10 -130 27 -74 38 -133 137 -133 221 0 85 59 183 133 222 33 17
106 33 125 27 8 -2 21 -4 30 -4z m251 -22 c48 -15 110 -75 137 -133 31 -66 31
-134 0 -200 -45 -95 -125 -147 -226 -147 -101 0 -181 52 -226 147 -43 91 -24
197 49 273 70 73 158 93 266 60z"/>
</g>
</svg>
