<?xml version="1.0" standalone="no"?>
<!DOCTYPE svg PUBLIC "-//W3C//DTD SVG 20010904//EN"
 "http://www.w3.org/TR/2001/REC-SVG-20010904/DTD/svg10.dtd">
<svg version="1.0" xmlns="http://www.w3.org/2000/svg"
 width="150.000000pt" height="150.000000pt" viewBox="0 0 150.000000 150.000000"
 preserveAspectRatio="xMidYMid meet">
<metadata>
Created by potrace 1.15, written by Peter Selinger 2001-2017
</metadata>
<g transform="translate(0.000000,150.000000) scale(0.100000,-0.100000)"
fill="#FF0000" stroke="none">
<path d="M729 1337 c-24 -13 -57 -43 -74 -66 -28 -40 -30 -50 -33 -147 l-4
-104 -104 0 c-57 0 -104 -3 -104 -7 0 -5 -12 -140 -27 -300 l-27 -293 -103 0
-103 0 0 -210 0 -210 690 0 c650 0 690 1 690 18 1 9 -21 239 -47 510 l-48 493
-25 -6 c-61 -14 -108 -17 -129 -6 -18 10 -21 20 -21 85 0 90 -27 147 -89 191
-35 25 -54 30 -114 33 -43 2 -88 11 -113 23 -59 28 -158 26 -215 -4z m174 -35
c16 -7 15 -10 -11 -29 -47 -35 -72 -98 -72 -181 l0 -72 -81 0 -82 0 6 84 c8
112 39 167 107 195 29 11 107 13 133 3z m204 -43 c66 -25 99 -77 109 -173 l7
-66 -82 0 -81 0 0 90 c0 57 -5 104 -14 125 -15 34 -14 35 9 35 13 0 36 -5 52
-11z m-111 -40 c8 -17 18 -68 21 -115 l6 -84 -83 0 -83 0 7 66 c8 77 23 112
66 148 36 29 44 28 66 -15z m-376 -359 c0 -113 1 -120 20 -120 19 0 20 7 20
120 l0 120 180 0 180 0 0 -120 c0 -113 1 -120 20 -120 19 0 20 7 20 120 l0
120 85 0 c81 0 85 -1 85 -22 0 -24 77 -836 84 -886 l5 -32 -255 0 -254 0 0
190 0 190 -206 0 -206 0 5 43 c4 23 16 149 28 280 l23 237 83 0 83 0 0 -120z
m819 -342 c23 -244 45 -451 48 -461 4 -16 -2 -18 -58 -15 l-63 3 -43 425 c-23
234 -42 440 -43 458 l0 32 58 0 58 0 43 -442z m-669 -168 l0 -30 -290 0 -290
0 0 30 0 30 290 0 290 0 0 -30z m0 -190 l0 -120 -290 0 -290 0 0 120 0 120
290 0 290 0 0 -120z"/>
</g>
</svg>
