<?xml version="1.0" standalone="no"?>
<!DOCTYPE svg PUBLIC "-//W3C//DTD SVG 20010904//EN"
 "http://www.w3.org/TR/2001/REC-SVG-20010904/DTD/svg10.dtd">
<svg version="1.0" xmlns="http://www.w3.org/2000/svg"
 width="150.000000pt" height="150.000000pt" viewBox="0 0 150.000000 150.000000"
 preserveAspectRatio="xMidYMid meet">
<metadata>
Created by potrace 1.15, written by Peter Selinger 2001-2017
</metadata>
<g transform="translate(0.000000,150.000000) scale(0.100000,-0.100000)"
fill="#FF0000" stroke="none">
<path d="M1047 1274 c-11 -12 -8 -119 4 -131 25 -25 5 -63 -48 -94 l-53 -29 0
68 c0 102 -1 102 -197 102 -200 0 -193 5 -193 -138 0 -79 -3 -102 -13 -102 -8
0 -24 -9 -37 -20 -29 -25 -33 -25 -55 0 -23 26 -57 26 -80 0 -10 -11 -23 -20
-30 -20 -7 0 -20 9 -30 20 -10 11 -22 20 -27 20 -4 0 -8 -192 -8 -428 0 -468
-2 -455 60 -487 24 -13 102 -15 501 -15 506 1 507 1 543 52 22 31 22 224 1
252 -11 14 -15 47 -15 116 0 69 4 102 15 116 11 15 14 58 15 210 0 223 1 220
-106 280 -54 30 -64 40 -64 63 0 15 5 32 11 38 5 5 9 37 7 69 l-3 59 -95 3
c-53 1 -99 0 -103 -4z m-207 -229 l0 -105 -25 0 c-14 0 -25 -4 -25 -10 0 -5
-9 -14 -21 -21 -17 -9 -25 -7 -43 10 -28 26 -51 27 -83 1 -14 -11 -29 -17 -34
-14 -15 9 -11 231 4 237 6 3 60 6 120 6 l107 1 0 -105z m350 40 c0 -32 5 -37
66 -71 107 -60 104 -52 104 -241 0 -145 -2 -168 -20 -203 l-20 -40 -175 0
-175 0 -20 40 c-18 35 -20 58 -20 203 0 189 -3 181 104 241 61 34 66 39 66 71
0 35 0 35 45 35 45 0 45 0 45 -35z m-706 -215 c16 0 38 7 48 17 17 15 19 15
36 0 23 -21 71 -22 99 -2 18 13 22 13 33 0 17 -20 79 -19 102 2 17 15 19 15
36 0 10 -10 26 -17 35 -17 15 0 17 -16 17 -135 0 -116 3 -142 20 -175 11 -22
20 -55 20 -75 l0 -35 -305 0 -305 0 0 210 0 210 28 0 c16 0 37 6 47 14 17 12
22 12 39 0 11 -8 34 -14 50 -14z m854 -555 c17 -34 22 -64 22 -120 0 -64 -3
-78 -24 -102 l-24 -28 -167 0 -167 0 -24 28 c-21 24 -24 38 -24 102 0 56 5 86
22 120 l22 45 171 0 171 0 22 -45z m-445 -112 c2 -54 7 -108 12 -121 l8 -23
-273 3 -272 3 -24 28 c-21 25 -24 37 -24 118 l0 89 284 0 285 0 4 -97z"/>
</g>
</svg>
