<?xml version="1.0" standalone="no"?>
<!DOCTYPE svg PUBLIC "-//W3C//DTD SVG 20010904//EN"
 "http://www.w3.org/TR/2001/REC-SVG-20010904/DTD/svg10.dtd">
<svg version="1.0" xmlns="http://www.w3.org/2000/svg"
 width="150.000000pt" height="150.000000pt" viewBox="0 0 150.000000 150.000000"
 preserveAspectRatio="xMidYMid meet">
<metadata>
Created by potrace 1.15, written by Peter Selinger 2001-2017
</metadata>
<g transform="translate(0.000000,150.000000) scale(0.100000,-0.100000)"
fill="#FF0000" stroke="none">
<path d="M690 1275 c0 -22 4 -25 40 -25 l40 0 0 -65 c0 -63 -1 -65 -25 -65
-22 0 -25 -4 -25 -40 0 -32 -4 -40 -18 -40 -10 0 -44 -32 -77 -70 -119 -140
-125 -167 -125 -558 0 -430 -13 -412 300 -412 313 0 300 -18 300 407 0 326 -6
375 -57 463 -35 60 -142 170 -165 170 -14 0 -18 8 -18 40 0 33 -3 40 -20 40
-18 0 -20 7 -20 70 l0 70 129 0 c115 0 131 -2 155 -21 14 -11 26 -29 26 -40 0
-14 7 -19 25 -19 29 0 32 17 10 60 -30 58 -40 60 -267 60 l-208 0 0 -25z m242
-343 c35 -37 74 -89 86 -114 23 -49 42 -146 42 -215 l0 -43 -260 0 -260 0 0
48 c0 139 37 240 121 335 l51 57 78 0 78 0 64 -68z m128 -677 c0 -126 -12
-171 -51 -199 -35 -24 -383 -24 -418 0 -39 28 -51 73 -51 199 l0 115 260 0
260 0 0 -115z"/>
</g>
</svg>
