<?xml version="1.0" standalone="no"?>
<!DOCTYPE svg PUBLIC "-//W3C//DTD SVG 20010904//EN"
 "http://www.w3.org/TR/2001/REC-SVG-20010904/DTD/svg10.dtd">
<svg version="1.0" xmlns="http://www.w3.org/2000/svg"
 width="150.000000pt" height="150.000000pt" viewBox="0 0 150.000000 150.000000"
 preserveAspectRatio="xMidYMid meet">
<metadata>
Created by potrace 1.15, written by Peter Selinger 2001-2017
</metadata>
<g transform="translate(0.000000,150.000000) scale(0.100000,-0.100000)"
fill="#E31E24" stroke="none">
<path d="M703 1190 c-44 -27 -53 -48 -53 -129 l0 -71 -185 0 c-146 0 -192 -3
-215 -15 -61 -32 -60 -22 -60 -455 0 -433 -1 -423 60 -455 43 -22 1137 -22
1180 0 61 32 60 22 60 455 0 433 1 423 -60 455 -23 12 -69 15 -215 15 l-185 0
0 73 c0 122 -33 147 -192 147 -84 0 -109 -4 -135 -20z m252 -53 c22 -18 27
-34 32 -85 l6 -62 -147 0 -146 0 0 64 c0 58 3 67 26 85 22 18 41 21 115 21 77
0 91 -3 114 -23z m471 -220 l24 -28 0 -369 0 -369 -24 -28 -24 -28 -562 0
-562 0 -24 28 -24 28 0 367 c0 396 1 402 53 421 11 4 268 7 570 7 l549 -1 24
-28z"/>
<path d="M672 654 c-12 -8 -29 -28 -37 -44 -38 -73 1 -157 114 -247 43 -35 84
-63 91 -63 7 0 48 28 91 63 113 90 152 174 114 247 -22 42 -53 60 -106 60 -32
0 -55 -7 -73 -21 l-26 -20 -26 20 c-33 26 -109 28 -142 5z"/>
</g>
</svg>
