<?xml version="1.0" standalone="no"?>
<!DOCTYPE svg PUBLIC "-//W3C//DTD SVG 20010904//EN"
 "http://www.w3.org/TR/2001/REC-SVG-20010904/DTD/svg10.dtd">
<svg version="1.0" xmlns="http://www.w3.org/2000/svg"
 width="175.000000pt" height="175.000000pt" viewBox="0 0 175.000000 175.000000"
 preserveAspectRatio="xMidYMid meet">
<metadata>
Created by potrace 1.15, written by Peter Selinger 2001-2017
</metadata>
<g transform="translate(0.000000,175.000000) scale(0.100000,-0.100000)"
fill="#FF0000" stroke="none">
<path d="M1060 795 l0 -305 -70 0 -70 0 0 190 c0 183 -1 190 -20 190 -19 0
-20 7 -20 90 l0 90 -125 0 c-77 0 -125 4 -125 10 0 6 -72 10 -195 10 l-195 0
0 -145 0 -145 -40 0 -40 0 0 -145 0 -145 -60 0 -60 0 0 -118 c0 -78 4 -122 12
-130 7 -7 34 -12 60 -12 45 0 48 -1 48 -27 0 -42 46 -110 94 -138 60 -35 152
-35 212 0 48 28 94 96 94 138 l0 27 275 0 275 0 0 -27 c0 -42 46 -110 94 -138
60 -35 152 -35 212 0 48 28 94 96 94 138 0 26 2 27 53 27 29 0 58 5 65 12 16
16 16 220 0 236 -7 7 -22 12 -35 12 -23 0 -23 1 -23 138 -1 89 -5 144 -13 158
-7 12 -61 87 -122 168 l-109 146 -133 0 -133 0 0 -305z m220 125 l0 -140 -90
0 -90 0 0 140 0 140 90 0 90 0 0 -140z m-690 5 l0 -105 -155 0 -155 0 0 105 0
105 155 0 155 0 0 -105z m828 -27 c45 -58 82 -109 82 -112 0 -3 -40 -6 -90 -6
l-90 0 0 122 c0 67 4 118 8 113 5 -6 45 -58 90 -117z m-538 -218 l0 -150 -105
0 -105 0 0 150 0 150 105 0 105 0 0 -150z m640 -65 l0 -125 -210 0 -210 0 0
125 0 125 210 0 210 0 0 -125z m75 -255 l0 -85 -44 0 c-40 0 -45 3 -54 30 -44
136 -224 178 -327 75 -20 -20 -40 -51 -46 -70 l-10 -35 -279 0 -279 0 -10 35
c-6 19 -26 50 -46 70 -103 103 -283 61 -327 -75 -9 -27 -14 -30 -49 -30 l-39
0 -3 88 -3 87 758 -2 758 -3 0 -85z m-1188 -72 c29 -27 29 -65 1 -95 -27 -29
-65 -29 -95 -1 -29 27 -29 65 -1 95 27 29 65 29 95 1z m950 0 c29 -27 29 -65
1 -95 -27 -29 -65 -29 -95 -1 -29 27 -29 65 -1 95 27 29 65 29 95 1z"/>
</g>
</svg>
