<?xml version="1.0" standalone="no"?>
<!DOCTYPE svg PUBLIC "-//W3C//DTD SVG 20010904//EN"
 "http://www.w3.org/TR/2001/REC-SVG-20010904/DTD/svg10.dtd">
<svg version="1.0" xmlns="http://www.w3.org/2000/svg"
 width="150.000000pt" height="150.000000pt" viewBox="0 0 150.000000 150.000000"
 preserveAspectRatio="xMidYMid meet">
<metadata>
Created by potrace 1.15, written by Peter Selinger 2001-2017
</metadata>
<g transform="translate(0.000000,150.000000) scale(0.100000,-0.100000)"
fill="#FF0000" stroke="none">
<path d="M800 1328 c-39 -64 -12 -188 40 -188 30 0 60 56 60 110 0 54 -30 110
-60 110 -12 0 -28 -13 -40 -32z"/>
<path d="M750 905 l0 -185 -191 0 -191 0 -34 -34 -34 -34 0 -326 0 -326 540 0
540 0 0 326 0 326 -34 34 -34 34 -191 0 -191 0 0 185 0 185 -90 0 -90 0 0
-185z m140 -20 l0 -165 -50 0 -50 0 0 165 0 165 50 0 50 0 0 -165z m425 -230
c35 -34 33 -72 -2 -79 -16 -4 -48 -22 -72 -41 -53 -43 -85 -44 -131 -7 -85 70
-128 70 -208 1 -43 -38 -81 -38 -124 0 -80 69 -123 69 -208 -1 -46 -37 -78
-36 -131 7 -24 19 -56 37 -71 41 -36 7 -38 45 -3 79 l24 25 451 0 451 0 24
-25z m-913 -144 c80 -69 123 -69 208 1 46 38 77 36 135 -9 40 -32 56 -38 95
-38 39 0 55 6 95 38 58 45 89 47 135 9 85 -70 128 -70 208 -1 53 47 62 40 62
-45 0 -73 -1 -75 -27 -80 -16 -4 -48 -22 -72 -41 -53 -43 -85 -44 -131 -7 -85
70 -128 70 -208 1 -20 -18 -44 -29 -62 -29 -18 0 -42 11 -62 29 -80 69 -123
69 -208 -1 -46 -37 -78 -36 -131 7 -24 19 -56 37 -71 41 -27 5 -28 7 -28 80 0
85 9 92 62 45z m0 -190 c80 -69 123 -69 208 1 46 38 77 36 135 -9 40 -32 56
-38 95 -38 39 0 55 6 95 38 58 45 89 47 135 9 85 -70 128 -70 208 -1 53 47 62
40 62 -45 0 -70 -1 -74 -24 -80 -13 -3 -43 -22 -66 -41 -58 -48 -92 -47 -161
6 -46 35 -59 40 -92 36 -22 -3 -51 -17 -72 -36 -61 -53 -109 -53 -170 0 -21
19 -50 33 -72 36 -33 4 -46 -1 -92 -36 -69 -53 -103 -54 -161 -6 -23 19 -53
38 -66 41 -23 6 -24 10 -24 80 0 85 9 92 62 45z"/>
</g>
</svg>
