<?xml version="1.0" standalone="no"?>
<!DOCTYPE svg PUBLIC "-//W3C//DTD SVG 20010904//EN"
 "http://www.w3.org/TR/2001/REC-SVG-20010904/DTD/svg10.dtd">
<svg version="1.0" xmlns="http://www.w3.org/2000/svg"
 width="175.000000pt" height="175.000000pt" viewBox="0 0 175.000000 175.000000"
 preserveAspectRatio="xMidYMid meet">
<metadata>
Created by potrace 1.15, written by Peter Selinger 2001-2017
</metadata>
<g transform="translate(0.000000,175.000000) scale(0.100000,-0.100000)"
fill="#FF0000" stroke="none">
<path d="M17 1302 c-15 -17 -17 -60 -17 -419 0 -375 1 -401 18 -416 10 -10 28
-17 40 -17 21 0 22 -4 22 -93 0 -110 11 -127 77 -127 39 0 41 -1 46 -37 13
-81 106 -153 197 -153 91 0 184 72 197 152 l6 38 272 0 272 0 6 -38 c13 -80
106 -152 197 -152 91 0 184 72 197 153 6 37 6 37 53 37 71 0 80 15 80 137 0
84 -3 103 -18 116 -10 10 -26 17 -35 17 -15 0 -17 17 -17 164 l0 164 -123 164
-124 163 -111 3 -112 3 0 63 c0 104 47 96 -572 96 -505 0 -536 -1 -551 -18z
m1067 -28 c14 -5 16 -50 16 -395 l0 -389 -514 0 c-283 0 -521 3 -530 6 -14 5
-16 49 -16 389 0 297 3 384 13 388 18 8 1012 8 1031 1z m236 -299 l0 -145 -90
0 -90 0 0 145 0 145 90 0 90 0 0 -145z m220 -137 c0 -5 -40 -8 -90 -8 l-90 0
0 127 0 126 90 -119 c49 -65 90 -122 90 -126z m20 -193 l0 -155 -210 0 -210 0
0 155 0 155 210 0 210 0 0 -155z m64 -191 c13 -5 16 -23 16 -89 0 -89 -3 -95
-58 -95 -23 0 -31 9 -52 52 -14 29 -42 66 -63 83 -36 28 -45 30 -117 30 -72 0
-81 -2 -117 -30 -21 -17 -49 -54 -63 -83 l-25 -52 -270 0 -270 0 -25 52 c-14
29 -42 66 -63 83 -36 28 -45 30 -117 30 -72 0 -81 -2 -117 -30 -21 -17 -49
-54 -63 -83 -19 -39 -30 -52 -47 -52 -49 0 -53 7 -53 96 l0 84 743 3 c408 1
743 3 744 5 1 1 8 -1 17 -4z m-1171 -166 c22 -26 22 -60 -1 -89 -26 -31 -78
-31 -104 0 -59 74 43 161 105 89z m950 0 c22 -26 22 -60 -1 -89 -26 -31 -78
-31 -104 0 -59 74 43 161 105 89z"/>
<path d="M592 1138 c-7 -7 -12 -34 -12 -60 l0 -48 -39 0 c-36 0 -40 -3 -50
-33 -8 -24 -9 -72 -1 -168 5 -74 10 -142 10 -151 0 -16 11 -18 100 -18 89 0
100 2 100 18 0 9 5 77 10 151 8 96 7 144 -1 168 -10 30 -14 33 -50 33 l-40 0
3 43 c3 38 6 42 31 45 15 2 27 9 27 18 0 18 -70 20 -88 2z m82 -154 c8 -20 8
-82 0 -111 -6 -21 -12 -23 -74 -23 -75 0 -80 4 -80 82 0 64 5 68 80 68 53 0
69 -4 74 -16z"/>
</g>
</svg>
