<?xml version="1.0" standalone="no"?>
<!DOCTYPE svg PUBLIC "-//W3C//DTD SVG 20010904//EN"
 "http://www.w3.org/TR/2001/REC-SVG-20010904/DTD/svg10.dtd">
<svg version="1.0" xmlns="http://www.w3.org/2000/svg"
 width="150.000000pt" height="150.000000pt" viewBox="0 0 150.000000 150.000000"
 preserveAspectRatio="xMidYMid meet">
<metadata>
Created by potrace 1.15, written by Peter Selinger 2001-2017
</metadata>
<g transform="translate(0.000000,150.000000) scale(0.100000,-0.100000)"
fill="#FF0000" stroke="none">
<path d="M689 1346 c-111 -43 -199 -111 -199 -155 0 -47 12 -51 177 -51 l153
0 0 -165 0 -165 -144 0 c-173 0 -196 -6 -196 -53 0 -54 9 -57 177 -57 l153 0
0 -350 0 -350 30 0 30 0 0 350 0 350 153 0 c168 0 177 3 177 57 0 47 -23 53
-196 53 l-144 0 0 165 0 165 153 0 c165 0 177 4 177 51 0 36 -63 92 -149 133
-62 29 -74 31 -191 33 -85 2 -136 -2 -161 -11z m279 -41 c53 -16 173 -91 180
-112 3 -10 -63 -13 -308 -13 -245 0 -311 3 -308 13 7 20 126 96 176 111 63 19
196 20 260 1z"/>
<path d="M160 505 c0 -498 0 -505 20 -505 19 0 20 7 20 180 l0 180 185 0 185
0 0 -180 c0 -173 1 -180 20 -180 19 0 20 7 20 245 l0 245 -205 0 -205 0 0 260
c0 253 -1 260 -20 260 -20 0 -20 -7 -20 -505z"/>
<path d="M1480 750 l0 -260 -205 0 -205 0 0 -245 c0 -238 1 -245 20 -245 19 0
20 7 20 180 l0 180 185 0 185 0 0 -180 c0 -173 1 -180 20 -180 20 0 20 7 20
505 0 498 0 505 -20 505 -19 0 -20 -7 -20 -260z"/>
</g>
</svg>
