<?xml version="1.0" standalone="no"?>
<!DOCTYPE svg PUBLIC "-//W3C//DTD SVG 20010904//EN"
 "http://www.w3.org/TR/2001/REC-SVG-20010904/DTD/svg10.dtd">
<svg version="1.0" xmlns="http://www.w3.org/2000/svg"
 width="150.000000pt" height="150.000000pt" viewBox="0 0 150.000000 150.000000"
 preserveAspectRatio="xMidYMid meet">
<metadata>
Created by potrace 1.15, written by Peter Selinger 2001-2017
</metadata>
<g transform="translate(0.000000,150.000000) scale(0.100000,-0.100000)"
fill="#FF0000" stroke="none">
<path d="M548 1325 c-29 -29 -38 -63 -38 -146 l0 -59 -133 0 -134 0 -16 -60
c-17 -59 -18 -60 -52 -60 l-35 0 0 -80 c0 -77 1 -80 24 -80 27 0 23 36 57
-493 l23 -347 540 0 539 0 43 25 c65 38 94 94 94 183 l0 72 29 0 c38 0 53 20
49 67 -2 28 -9 41 -25 48 -16 7 -23 18 -23 37 0 101 -113 245 -223 286 -50 19
-78 22 -220 22 l-162 0 3 50 c4 45 6 50 28 50 23 0 24 2 24 79 l0 80 -37 3
c-36 3 -38 4 -51 61 l-14 57 -140 0 -140 0 4 74 c4 95 14 106 89 106 56 0 59
1 59 25 0 24 -2 25 -69 25 -60 0 -71 -3 -93 -25z m261 -276 c6 -18 11 -36 11
-40 0 -5 -126 -9 -280 -9 -154 0 -280 4 -280 9 0 4 5 22 11 40 l11 31 258 0
258 0 11 -31z m91 -129 l0 -40 -360 0 -360 0 0 40 0 40 360 0 360 0 0 -40z
m-55 -107 c-2 -16 -7 -76 -11 -135 l-6 -108 -288 0 -288 0 -6 98 c-4 53 -9
114 -11 135 l-5 37 310 0 310 0 -5 -27z m420 -143 c91 -45 162 -137 180 -233
l7 -37 -297 0 -297 0 7 143 c4 78 9 146 12 150 3 5 80 7 172 5 152 -3 170 -5
216 -28z m-460 -472 c-3 -51 -8 -108 -11 -125 l-5 -33 -249 0 -250 0 -4 23
c-3 12 -8 68 -11 125 l-6 102 271 0 271 0 -6 -92z m613 12 c-4 -74 -19 -105
-72 -144 -26 -20 -43 -21 -272 -24 l-244 -3 6 78 c3 43 7 97 10 121 l5 42 286
0 285 0 -4 -70z"/>
</g>
</svg>
