<?xml version="1.0" standalone="no"?>
<!DOCTYPE svg PUBLIC "-//W3C//DTD SVG 20010904//EN"
 "http://www.w3.org/TR/2001/REC-SVG-20010904/DTD/svg10.dtd">
<svg version="1.0" xmlns="http://www.w3.org/2000/svg"
 width="150.000000pt" height="150.000000pt" viewBox="0 0 150.000000 150.000000"
 preserveAspectRatio="xMidYMid meet">
<metadata>
Created by potrace 1.15, written by Peter Selinger 2001-2017
</metadata>
<g transform="translate(0.000000,150.000000) scale(0.100000,-0.100000)"
fill="#E31E24" stroke="none">
<path d="M1076 1338 c-13 -18 -16 -51 -16 -155 l0 -133 -69 -74 c-104 -112
-101 -98 -101 -561 0 -291 3 -394 12 -403 17 -17 499 -17 516 0 9 9 12 114 12
413 0 460 2 444 -95 546 -30 32 -59 69 -65 84 -5 14 -10 80 -10 146 0 66 -5
129 -10 140 -9 16 -22 19 -85 19 -65 0 -76 -3 -89 -22z m142 -130 l3 -108 -56
0 -55 0 0 111 0 110 53 -3 52 -3 3 -107z m12 -174 c6 -15 37 -55 69 -91 82
-89 91 -120 91 -315 l0 -158 -231 0 -231 0 4 173 c4 199 5 204 99 305 32 34
62 74 65 87 6 23 11 25 65 25 55 0 60 -2 69 -26z m158 -851 l-3 -138 -225 0
-225 0 -3 138 -3 137 231 0 231 0 -3 -137z"/>
<path d="M306 741 c-55 -105 -72 -290 -35 -371 39 -88 117 -146 210 -157 l49
-6 0 -45 c0 -39 -6 -52 -45 -98 -25 -28 -45 -55 -45 -58 0 -3 50 -6 110 -6 61
0 110 3 110 6 0 3 -20 30 -45 58 -39 46 -45 59 -45 98 l0 45 45 6 c89 13 166
71 204 157 37 81 20 266 -35 371 l-15 29 -224 0 -224 0 -15 -29z m463 -86 c31
-90 35 -223 8 -272 l-18 -33 -214 0 -214 0 -17 32 c-35 67 -25 201 23 315 l13
33 197 -2 197 -3 25 -70z"/>
</g>
</svg>
