<?xml version="1.0" standalone="no"?>
<!DOCTYPE svg PUBLIC "-//W3C//DTD SVG 20010904//EN"
 "http://www.w3.org/TR/2001/REC-SVG-20010904/DTD/svg10.dtd">
<svg version="1.0" xmlns="http://www.w3.org/2000/svg"
 width="150.000000pt" height="150.000000pt" viewBox="0 0 150.000000 150.000000"
 preserveAspectRatio="xMidYMid meet">
<metadata>
Created by potrace 1.15, written by Peter Selinger 2001-2017
</metadata>
<g transform="translate(0.000000,150.000000) scale(0.100000,-0.100000)"
fill="#E31E24" stroke="none">
<path d="M724 1311 c-52 -24 -111 -83 -135 -135 -17 -38 -19 -72 -19 -407 l0
-366 26 -27 c24 -24 34 -26 105 -26 l79 0 0 -148 c0 -102 4 -152 12 -160 16
-16 80 -16 96 0 8 8 12 58 12 160 l0 148 79 0 c71 0 81 2 105 26 l26 27 0 366
c0 411 0 411 -75 486 -56 55 -106 75 -195 75 -52 0 -88 -6 -116 -19z m190 -33
c54 -16 128 -90 144 -144 8 -29 12 -141 12 -373 0 -318 -1 -332 -20 -351 -19
-19 -33 -20 -210 -20 -177 0 -191 1 -210 20 -19 19 -20 33 -20 351 0 232 4
344 12 373 15 50 89 127 138 143 48 15 105 15 154 1z"/>
<path d="M740 805 c0 -238 1 -245 20 -245 19 0 20 7 20 245 0 238 -1 245 -20
245 -19 0 -20 -7 -20 -245z"/>
<path d="M900 805 c0 -238 1 -245 20 -245 19 0 20 7 20 245 0 238 -1 245 -20
245 -19 0 -20 -7 -20 -245z"/>
</g>
</svg>
