<?xml version="1.0" encoding="utf-8"?>
<!-- Generator: Adobe Illustrator 19.0.0, SVG Export Plug-In . SVG Version: 6.00 Build 0)  -->
<svg version="1.1" id="Layer_4_copy_3" xmlns="http://www.w3.org/2000/svg" xmlns:xlink="http://www.w3.org/1999/xlink" x="0px"
	 y="0px" viewBox="0 0 210 138" style="enable-background:new 0 0 210 138;" xml:space="preserve">
<style type="text/css">
	.st0{fill:#FFFFFF;}
	.st1{fill:#E31E24;}
</style>
<g id="XMLID_92_">
	<path id="XMLID_31_" class="st0" d="M98,135c-32.5,0-59-26.5-59-59c0-31.9,25.4-57.9,57-59v62l56.9-24.6c2.7,6.8,4.1,14.1,4.1,21.5
		C157,108.5,130.5,135,98,135z"/>
	<path id="XMLID_28_" class="st1" d="M94,19.1V76v6.1l5.6-2.4l52.2-22.5c2.1,6,3.2,12.3,3.2,18.8c0,31.4-25.6,57-57,57
		s-57-25.6-57-57C41,45.9,64.4,21.2,94,19.1 M98,15c-33.7,0-61,27.3-61,61s27.3,61,61,61s61-27.3,61-61c0-8.6-1.8-16.8-5-24.2L98,76
		V15L98,15z"/>
</g>
<g id="XMLID_86_">
	<path id="XMLID_27_" class="st1" d="M164,36.8L108,61V0C133.1,0,154.7,15.2,164,36.8z"/>
</g>
</svg>
