<?xml version="1.0" encoding="utf-8"?>
<!-- Generator: Adobe Illustrator 19.0.0, SVG Export Plug-In . SVG Version: 6.00 Build 0)  -->
<svg version="1.1" id="Layer_4_copy_6" xmlns="http://www.w3.org/2000/svg" xmlns:xlink="http://www.w3.org/1999/xlink" x="0px"
	 y="0px" viewBox="0 0 210 138" style="enable-background:new 0 0 210 138;" xml:space="preserve">
<style type="text/css">
	.st0{fill:#FFFFFF;}
	.st1{fill:#E31E24;}
	.st2{fill:none;stroke:#E31E24;stroke-width:4;stroke-miterlimit:10;}
</style>
<g id="XMLID_157_">
	<path id="XMLID_39_" class="st0" d="M57.4,136c-1.2,0-2.3-0.5-3.1-1.5c-0.8-0.9-1.1-2.2-0.8-3.4l5.3-24.5
		c1.3-5.9,5.8-10.6,11.5-12.1c4.3,6,11.2,9.5,18.6,9.5c7.6,0,14.5-3.6,18.8-9.8c6.5,1,11.9,5.9,13.3,12.4l5.3,24.6
		c0.3,1.2,0,2.4-0.8,3.4c-0.8,0.9-1.9,1.5-3.1,1.5H57.4z"/>
	<path id="XMLID_36_" class="st1" d="M108.7,96.4c5.2,1.2,9.3,5.4,10.5,10.7l5.3,24.5c0.2,0.8-0.2,1.4-0.4,1.7
		c-0.2,0.3-0.7,0.7-1.6,0.7H57.4c-0.8,0-1.3-0.5-1.6-0.7c-0.2-0.3-0.6-0.9-0.4-1.7l5.3-24.5c1-4.8,4.4-8.6,8.9-10.2
		c4.7,5.8,11.7,9.1,19.3,9.1C96.8,106,104,102.4,108.7,96.4 M106.8,92.1c-3.7,6-10.3,9.9-17.8,9.9c-7.4,0-14-3.9-17.7-9.7
		c-7.1,1.3-12.8,6.7-14.4,13.9l-5.3,24.5c-0.8,3.7,2,7.3,5.9,7.3h65.1c3.8,0,6.7-3.5,5.9-7.3l-5.3-24.5
		C121.4,98.3,114.7,92.6,106.8,92.1L106.8,92.1z"/>
</g>
<g id="XMLID_142_">
	<path id="XMLID_34_" class="st0" d="M89,94c-7.2,0-13-5.8-13-13V69c0-7.2,5.8-13,13-13s13,5.8,13,13v12C102,88.2,96.2,94,89,94z"/>
	<path id="XMLID_31_" class="st1" d="M89,58c6.1,0,11,4.9,11,11v12c0,6.1-4.9,11-11,11c-6.1,0-11-4.9-11-11V69
		C78,62.9,82.9,58,89,58 M89,54L89,54c-8.3,0-15,6.7-15,15v12c0,8.3,6.7,15,15,15h0c8.3,0,15-6.7,15-15V69C104,60.7,97.3,54,89,54
		L89,54z"/>
</g>
<g id="XMLID_149_">
	<path id="XMLID_29_" class="st0" d="M119.3,45.5H114c-3.3,0-6-2.7-6-5.9V7.9c0-3.3,2.7-5.9,6-5.9h60c3.3,0,6,2.7,6,5.9v31.7
		c0,3.3-2.7,5.9-6,5.9h-38.8l-15.8,15.7V45.5z"/>
	<path id="XMLID_26_" class="st1" d="M174,4c2.2,0,4,1.8,4,3.9v31.7c0,2.2-1.8,3.9-4,3.9h-38h-1.6l-1.2,1.2l-11.9,11.7v-8.9v-4h-4
		H114c-2.2,0-4-1.8-4-3.9V7.9c0-2.2,1.8-3.9,4-3.9H174 M174,0h-60c-4.4,0-8,3.5-8,7.9v31.7c0,4.4,3.6,7.9,8,7.9h3.3V66L136,47.5h38
		c4.4,0,8-3.5,8-7.9V7.9C182,3.5,178.4,0,174,0L174,0z"/>
</g>
<line id="XMLID_148_" class="st2" x1="168" y1="14" x2="120" y2="14"/>
<line id="XMLID_143_" class="st2" x1="142" y1="24" x2="120" y2="24"/>
<line id="XMLID_151_" class="st2" x1="168" y1="24" x2="150" y2="24"/>
<line id="XMLID_147_" class="st2" x1="168" y1="33" x2="134" y2="33"/>
</svg>
