<?xml version="1.0" encoding="utf-8"?>
<!-- Generator: Adobe Illustrator 19.0.0, SVG Export Plug-In . SVG Version: 6.00 Build 0)  -->
<svg version="1.1" id="Layer_4" xmlns="http://www.w3.org/2000/svg" xmlns:xlink="http://www.w3.org/1999/xlink" x="0px" y="0px"
	 viewBox="0 0 210 138" style="enable-background:new 0 0 210 138;" xml:space="preserve">
<style type="text/css">
	.st0{fill:#FFFFFF;}
	.st1{fill:#E31E24;}
	.st2{fill:none;stroke:#E31E24;stroke-width:4;stroke-miterlimit:10;}
	.st3{fill:#FFFFFF;stroke:#E31E24;stroke-width:4;stroke-miterlimit:10;}
</style>
<g id="XMLID_33_">
	<g id="XMLID_13_">
		<path id="XMLID_65_" class="st0" d="M70,136c-2.2,0-4-1.8-4-4V6c0-2.2,1.8-4,4-4h66c2.2,0,4,1.8,4,4v126c0,2.2-1.8,4-4,4H70z"/>
		<path id="XMLID_62_" class="st1" d="M136,4c1.1,0,2,0.9,2,2v126c0,1.1-0.9,2-2,2H70c-1.1,0-2-0.9-2-2V6c0-1.1,0.9-2,2-2H136
			 M136,0H70c-3.3,0-6,2.7-6,6v126c0,3.3,2.7,6,6,6h66c3.3,0,6-2.7,6-6V6C142,2.7,139.3,0,136,0L136,0z"/>
	</g>
	<line id="XMLID_14_" class="st2" x1="64" y1="112" x2="142" y2="112"/>
	<circle id="XMLID_15_" class="st1" cx="103" cy="123.5" r="3.5"/>
</g>
<g id="XMLID_16_">
	<path id="XMLID_60_" class="st0" d="M50.3,96c-2.2,0-4-1.8-4-4V51c0-2.2,1.8-4,4-4h67c2.2,0,4,1.8,4,4v41c0,2.2-1.8,4-4,4H50.3z"/>
	<path id="XMLID_57_" class="st1" d="M117.3,49c1.1,0,2,0.9,2,2v41c0,1.1-0.9,2-2,2h-67c-1.1,0-2-0.9-2-2V51c0-1.1,0.9-2,2-2H117.3
		 M117.3,45h-67c-3.3,0-6,2.7-6,6v41c0,3.3,2.7,6,6,6h67c3.3,0,6-2.7,6-6V51C123.3,47.7,120.6,45,117.3,45L117.3,45z"/>
</g>
<g id="XMLID_28_">
	<g id="XMLID_30_">
		<rect id="XMLID_55_" x="75" y="23" class="st0" width="84" height="46"/>
		<path id="XMLID_52_" class="st1" d="M157,25v42H77V25H157 M161,21H73v50h88V21L161,21z"/>
	</g>
	<rect id="XMLID_17_" x="86" y="39" class="st1" width="12" height="6"/>
	<rect id="XMLID_19_" x="104" y="39" class="st1" width="12" height="6"/>
	<circle id="XMLID_18_" class="st1" cx="130" cy="42" r="7"/>
	<path id="XMLID_23_" class="st0" d="M141,51c-5,0-9-4-9-9c0-5,4-9,9-9s9,4,9,9C150,47,146,51,141,51z"/>
	<circle id="XMLID_22_" class="st1" cx="141" cy="42" r="7"/>
	<line id="XMLID_21_" class="st3" x1="86" y1="57" x2="148" y2="57"/>
</g>
<g id="XMLID_31_">
	<path id="XMLID_50_" class="st0" d="M50.3,104c-2.2,0-4-1.8-4-4V55h80c2.2,0,4,1.8,4,4v41c0,2.2-1.8,4-4,4H50.3z"/>
	<path id="XMLID_47_" class="st1" d="M126.3,57c1.1,0,2,0.9,2,2v41c0,1.1-0.9,2-2,2h-76c-1.1,0-2-0.9-2-2V57H126.3 M126.3,53h-82v47
		c0,3.3,2.7,6,6,6h76c3.3,0,6-2.7,6-6V59C132.3,55.7,129.6,53,126.3,53L126.3,53z"/>
</g>
<g id="XMLID_29_">
	<path id="XMLID_45_" class="st0" d="M94.3,87c-2.2,0-4-1.8-4-4v-6c0-2.2,1.8-4,4-4h37c2.2,0,4,1.8,4,4v6c0,2.2-1.8,4-4,4H94.3z"/>
	<path id="XMLID_42_" class="st1" d="M131.3,75c1.1,0,2,0.9,2,2v6c0,1.1-0.9,2-2,2h-37c-1.1,0-2-0.9-2-2v-6c0-1.1,0.9-2,2-2H131.3
		 M131.3,71h-37c-3.3,0-6,2.7-6,6v6c0,3.3,2.7,6,6,6h37c3.3,0,6-2.7,6-6v-6C137.3,73.7,134.6,71,131.3,71L131.3,71z"/>
</g>
<circle id="XMLID_32_" class="st1" cx="97.3" cy="80" r="2"/>
</svg>
