<?xml version="1.0" encoding="utf-8"?>
<!-- Generator: Adobe Illustrator 19.0.0, SVG Export Plug-In . SVG Version: 6.00 Build 0)  -->
<svg version="1.1" id="Layer_4_copy_4" xmlns="http://www.w3.org/2000/svg" xmlns:xlink="http://www.w3.org/1999/xlink" x="0px"
	 y="0px" viewBox="0 0 210 138" style="enable-background:new 0 0 210 138;" xml:space="preserve">
<style type="text/css">
	.st0{fill:#FFFFFF;}
	.st1{fill:#E31E24;}
	.st2{fill:#FFFFFF;stroke:#E31E24;stroke-width:4;stroke-miterlimit:10;}
	.st3{fill:none;stroke:#E31E24;stroke-width:4;stroke-miterlimit:10;}
</style>
<g id="XMLID_113_">
	<path id="XMLID_39_" class="st0" d="M38,134c-2.2,0-4-1.8-4-4V97.9L43.3,75h113.3l9.3,22.9V130c0,2.2-1.8,4-4,4H38z"/>
	<path id="XMLID_36_" class="st1" d="M155.3,77l8.7,21.3V130c0,1.1-0.9,2-2,2H38c-1.1,0-2-0.9-2-2V98.3L44.7,77H155.3 M158,73H42
		L32,97.5V130c0,3.3,2.7,6,6,6h124c3.3,0,6-2.7,6-6V97.5L158,73L158,73z"/>
</g>
<line id="XMLID_87_" class="st2" x1="35" y1="97.8" x2="165.3" y2="97.8"/>
<g id="XMLID_84_">
	<path id="XMLID_34_" class="st0" d="M44,75V52.8c0-2.2,1.8-4,4-4h104c2.2,0,4,1.8,4,4V75H44z"/>
	<path id="XMLID_31_" class="st1" d="M152,50.8c1.1,0,2,0.9,2,2V73H46V52.8c0-1.1,0.9-2,2-2H152 M152,46.8H48c-3.3,0-6,2.7-6,6V77
		h116V52.8C158,49.4,155.3,46.8,152,46.8L152,46.8z"/>
</g>
<path id="XMLID_88_" class="st1" d="M89,67H55c-1.7,0-3-1.3-3-3v-4c0-1.7,1.3-3,3-3h34c1.7,0,3,1.3,3,3v4C92,65.7,90.7,67,89,67z"/>
<path id="XMLID_90_" class="st1" d="M149,121h-4c-1.7,0-3-1.3-3-3v-4c0-1.7,1.3-3,3-3h4c1.7,0,3,1.3,3,3v4
	C152,119.7,150.7,121,149,121z"/>
<rect id="XMLID_89_" x="124" y="28" class="st1" width="8" height="20"/>
<g id="XMLID_91_">
	<rect id="XMLID_29_" x="100" y="9" class="st0" width="56" height="18"/>
	<path id="XMLID_26_" class="st1" d="M154,11v14h-52V11H154 M158,7H98v22h60V7L158,7z"/>
</g>
<line id="XMLID_96_" class="st3" x1="107.7" y1="17.3" x2="133.8" y2="17.3"/>
<line id="XMLID_108_" class="st3" x1="139.7" y1="17.3" x2="147.8" y2="17.3"/>
</svg>
