<?xml version="1.0" encoding="utf-8"?>
<!-- Generator: Adobe Illustrator 19.0.0, SVG Export Plug-In . SVG Version: 6.00 Build 0)  -->
<svg version="1.1" id="Layer_4_copy_2" xmlns="http://www.w3.org/2000/svg" xmlns:xlink="http://www.w3.org/1999/xlink" x="0px"
	 y="0px" viewBox="0 0 210 138" style="enable-background:new 0 0 210 138;" xml:space="preserve">
<style type="text/css">
	.st0{fill:#FFFFFF;}
	.st1{fill:#E31E24;}
	.st2{font-family:'Poppins-Regular';}
	.st3{font-size:63px;}
</style>
<g id="XMLID_35_">
	<path id="XMLID_34_" class="st0" d="M66,136c-2.2,0-4-1.8-4-4V6c0-2.2,1.8-4,4-4h80c2.2,0,4,1.8,4,4v126c0,2.2-1.8,4-4,4H66z"/>
	<path id="XMLID_31_" class="st1" d="M146,4c1.1,0,2,0.9,2,2v126c0,1.1-0.9,2-2,2H66c-1.1,0-2-0.9-2-2V6c0-1.1,0.9-2,2-2H146 M146,0
		H66c-3.3,0-6,2.7-6,6v126c0,3.3,2.7,6,6,6h80c3.3,0,6-2.7,6-6V6C152,2.7,149.3,0,146,0L146,0z"/>
</g>
<text id="XMLID_40_" transform="matrix(1 0 0 1 84.9978 64.4004)" class="st1 st2 st3">₹</text>
<g id="XMLID_41_">
	<path id="XMLID_29_" class="st0" d="M43,118c-2.2,0-4-1.8-4-4V84c0-2.2,1.8-4,4-4h126c2.2,0,4,1.8,4,4v30c0,2.2-1.8,4-4,4H43z"/>
	<path id="XMLID_26_" class="st1" d="M169,82c1.1,0,2,0.9,2,2v30c0,1.1-0.9,2-2,2H43c-1.1,0-2-0.9-2-2V84c0-1.1,0.9-2,2-2H169
		 M169,78H43c-3.3,0-6,2.7-6,6v30c0,3.3,2.7,6,6,6h126c3.3,0,6-2.7,6-6V84C175,80.7,172.3,78,169,78L169,78z"/>
</g>
<g id="XMLID_57_">
	<path id="XMLID_48_" class="st1" d="M61.4,91.3l1.8,3.7c0.2,0.3,0.5,0.6,0.9,0.6l4.1,0.6c0.9,0.1,1.3,1.3,0.6,2l-2.9,2.9
		c-0.3,0.3-0.4,0.6-0.3,1l0.7,4c0.2,0.9-0.8,1.7-1.7,1.2l-3.6-1.9c-0.3-0.2-0.7-0.2-1.1,0l-3.6,1.9c-0.8,0.4-1.8-0.3-1.7-1.2l0.7-4
		c0.1-0.4-0.1-0.8-0.3-1l-2.9-2.9c-0.7-0.7-0.3-1.8,0.6-2l4.1-0.6c0.4-0.1,0.7-0.3,0.9-0.6l1.8-3.7C59.7,90.4,61,90.4,61.4,91.3z"/>
	<path id="XMLID_58_" class="st1" d="M83.7,91.3l1.8,3.7c0.2,0.3,0.5,0.6,0.9,0.6l4.1,0.6c0.9,0.1,1.3,1.3,0.6,2l-2.9,2.9
		c-0.3,0.3-0.4,0.6-0.3,1l0.7,4c0.2,0.9-0.8,1.7-1.7,1.2l-3.6-1.9c-0.3-0.2-0.7-0.2-1.1,0l-3.6,1.9c-0.8,0.4-1.8-0.3-1.7-1.2l0.7-4
		c0.1-0.4-0.1-0.8-0.3-1l-2.9-2.9c-0.7-0.7-0.3-1.8,0.6-2l4.1-0.6c0.4-0.1,0.7-0.3,0.9-0.6l1.8-3.7C82,90.4,83.3,90.4,83.7,91.3z"/>
	<path id="XMLID_76_" class="st1" d="M105.8,91.3l1.8,3.7c0.2,0.3,0.5,0.6,0.9,0.6l4.1,0.6c0.9,0.1,1.3,1.3,0.6,2l-2.9,2.9
		c-0.3,0.3-0.4,0.6-0.3,1l0.7,4c0.2,0.9-0.8,1.7-1.7,1.2l-3.6-1.9c-0.3-0.2-0.7-0.2-1.1,0l-3.6,1.9c-0.8,0.4-1.8-0.3-1.7-1.2l0.7-4
		c0.1-0.4-0.1-0.8-0.3-1l-2.9-2.9c-0.7-0.7-0.3-1.8,0.6-2l4.1-0.6c0.4-0.1,0.7-0.3,0.9-0.6l1.8-3.7
		C104.2,90.4,105.4,90.4,105.8,91.3z"/>
	<path id="XMLID_82_" class="st1" d="M128.5,91.3l1.8,3.7c0.2,0.3,0.5,0.6,0.9,0.6l4.1,0.6c0.9,0.1,1.3,1.3,0.6,2L133,101
		c-0.3,0.3-0.4,0.6-0.3,1l0.7,4c0.2,0.9-0.8,1.7-1.7,1.2l-3.6-1.9c-0.3-0.2-0.7-0.2-1.1,0l-3.6,1.9c-0.8,0.4-1.8-0.3-1.7-1.2l0.7-4
		c0.1-0.4-0.1-0.8-0.3-1l-2.9-2.9c-0.7-0.7-0.3-1.8,0.6-2l4.1-0.6c0.4-0.1,0.7-0.3,0.9-0.6l1.8-3.7
		C126.9,90.4,128.1,90.4,128.5,91.3z"/>
	<path id="XMLID_83_" class="st1" d="M152.7,91.3l1.8,3.7c0.2,0.3,0.5,0.6,0.9,0.6l4.1,0.6c0.9,0.1,1.3,1.3,0.6,2l-2.9,2.9
		c-0.3,0.3-0.4,0.6-0.3,1l0.7,4c0.2,0.9-0.8,1.7-1.7,1.2l-3.6-1.9c-0.3-0.2-0.7-0.2-1.1,0l-3.6,1.9c-0.8,0.4-1.8-0.3-1.7-1.2l0.7-4
		c0.1-0.4-0.1-0.8-0.3-1l-2.9-2.9c-0.7-0.7-0.3-1.8,0.6-2l4.1-0.6c0.4-0.1,0.7-0.3,0.9-0.6l1.8-3.7C151,90.4,152.3,90.4,152.7,91.3z
		"/>
</g>
</svg>
