<?xml version="1.0" encoding="utf-8"?>
<!-- Generator: Adobe Illustrator 19.0.0, SVG Export Plug-In . SVG Version: 6.00 Build 0)  -->
<svg version="1.1" id="Layer_4_copy_5" xmlns="http://www.w3.org/2000/svg" xmlns:xlink="http://www.w3.org/1999/xlink" x="0px"
	 y="0px" viewBox="0 0 210 138" style="enable-background:new 0 0 210 138;" xml:space="preserve">
<style type="text/css">
	.st0{fill:#FFFFFF;}
	.st1{fill:#E31E24;}
	.st2{fill:none;stroke:#E31E24;stroke-width:4;stroke-miterlimit:10;}
</style>
<g id="XMLID_110_">
	<path id="XMLID_36_" class="st0" d="M54,132V76c0-2.2,1.8-4,4-4h84c2.2,0,4,1.8,4,4v56H54z"/>
	<path id="XMLID_33_" class="st1" d="M142,74c1.1,0,2,0.9,2,2v54H56V76c0-1.1,0.9-2,2-2H142 M142,70H58c-3.3,0-6,2.7-6,6v58h96V76
		C148,72.7,145.3,70,142,70L142,70z"/>
</g>
<g id="XMLID_97_">
	<path id="XMLID_32_" class="st1" d="M151,138H49c-1.7,0-3-1.3-3-3v-2c0-1.7,1.3-3,3-3h102c1.7,0,3,1.3,3,3v2
		C154,136.7,152.7,138,151,138z"/>
</g>
<g id="XMLID_141_">
	<path id="XMLID_29_" class="st0" d="M78.3,33c-0.7,0-1.3-0.6-1.3-1.3V9.2c0-0.7,0.6-1.3,1.3-1.3h21.3l7.2-4.9h15
		c0.7,0,1.3,0.6,1.3,1.3v27.4c0,0.7-0.6,1.3-1.3,1.3H78.3z"/>
	<path id="XMLID_26_" class="st1" d="M121,5v26H79V9.9h19.9h1.2l1-0.7l6.1-4.2H121 M121.7,1h-15.7l-7.2,4.9H78.3
		c-1.8,0-3.3,1.5-3.3,3.3v22.5c0,1.8,1.5,3.3,3.3,3.3h43.5c1.8,0,3.3-1.5,3.3-3.3V4.3C125,2.5,123.5,1,121.7,1L121.7,1z"/>
</g>
<g id="XMLID_114_">
	<g id="XMLID_111_">
		<line id="XMLID_145_" class="st2" x1="95.9" y1="88.3" x2="95.9" y2="54.4"/>
		<g id="XMLID_140_">
			<path id="XMLID_144_" class="st1" d="M103.9,52.7l-5.2-9c-1.3-2.2-4.4-2.2-5.7,0l-5.2,9c-1.3,2.2,0.3,4.9,2.8,4.9h10.4
				C103.6,57.6,105.2,54.9,103.9,52.7z"/>
		</g>
	</g>
	<g id="XMLID_121_">
		<line id="XMLID_139_" class="st2" x1="106.8" y1="63.1" x2="106.8" y2="97"/>
		<g id="XMLID_132_">
			<path id="XMLID_133_" class="st1" d="M98.8,98.8l5.2,9c1.3,2.2,4.4,2.2,5.7,0l5.2-9c1.3-2.2-0.3-4.9-2.8-4.9h-10.4
				C99.1,93.9,97.5,96.6,98.8,98.8z"/>
		</g>
	</g>
</g>
<rect id="XMLID_122_" x="55" y="121" class="st1" width="90" height="10"/>
<circle id="XMLID_146_" class="st0" cx="100" cy="126" r="2"/>
</svg>
