<?xml version="1.0" encoding="utf-8"?>
<!-- Generator: Adobe Illustrator 19.0.0, SVG Export Plug-In . SVG Version: 6.00 Build 0)  -->
<svg version="1.1" id="Layer_4_copy_7" xmlns="http://www.w3.org/2000/svg" xmlns:xlink="http://www.w3.org/1999/xlink" x="0px"
	 y="0px" viewBox="0 0 210 138" style="enable-background:new 0 0 210 138;" xml:space="preserve">
<style type="text/css">
	.st0{fill:#FFFFFF;}
	.st1{fill:#E31E24;}
	.st2{fill:none;stroke:#E31E24;stroke-width:4;stroke-miterlimit:10;}
</style>
<g id="XMLID_155_">
	<path id="XMLID_44_" class="st0" d="M157,9V2h6.1c4.3,0,7.9,3,8.8,7H157z"/>
	<path id="XMLID_41_" class="st1" d="M163.1,4c2.4,0,4.5,1.2,5.7,3H159V4H163.1 M163.1,0H155v11h19.1v0C174.1,4.9,169.1,0,163.1,0
		L163.1,0z"/>
</g>
<g id="XMLID_192_">
	<path id="XMLID_39_" class="st0" d="M43,132V13c0-6.1,4.9-11,11-11h106.1c-1.9,2.1-3.1,4.9-3.1,8v114c0,3.5-2.3,6.6-5.6,7.6
		c-0.8,0.2-1.6,0.4-2.4,0.4H43z"/>
	<path id="XMLID_36_" class="st1" d="M156.4,4c-0.9,1.8-1.4,3.9-1.4,6v114c0,2.6-1.7,4.9-4.2,5.7c-0.6,0.2-1.2,0.3-1.8,0.3H45V13
		c0-5,4-9,9-9H156.4 M169,0H54c-7.2,0-13,5.8-13,13v121h108c1.1,0,2.1-0.2,3-0.5c4.1-1.3,7-5.1,7-9.5V10C159,4.5,163.5,0,169,0
		L169,0L169,0z"/>
</g>
<g id="XMLID_185_">
	<path id="XMLID_34_" class="st0" d="M33,132c-4.8,0-8.9-3.4-9.8-8H143c0,3,1.1,5.9,3,8H33z"/>
	<path id="XMLID_31_" class="st1" d="M141.1,126c0.2,1.4,0.6,2.8,1.2,4H33c-3,0-5.5-1.6-6.9-4H141.1 M145,122H21c0,6.6,5.4,12,12,12
		h116c1.1,0,2.1-0.2,3-0.5c-4.1-1.3-7-5.1-7-9.5V122L145,122z"/>
</g>
<rect id="XMLID_134_" x="77" y="15" class="st1" width="44" height="8"/>
<line id="XMLID_156_" class="st2" x1="58" y1="36" x2="140" y2="36"/>
<line id="XMLID_173_" class="st2" x1="58" y1="48" x2="110" y2="48"/>
<line id="XMLID_191_" class="st2" x1="58" y1="94" x2="90" y2="94"/>
<line id="XMLID_194_" class="st2" x1="58" y1="106" x2="95" y2="106"/>
<line id="XMLID_184_" class="st2" x1="120" y1="48" x2="140" y2="48"/>
<g id="XMLID_158_">
	<path id="XMLID_29_" class="st0" d="M120,98c-9.9,0-18-8.1-18-18s8.1-18,18-18s18,8.1,18,18S129.9,98,120,98z"/>
	<path id="XMLID_26_" class="st1" d="M120,64c8.8,0,16,7.2,16,16s-7.2,16-16,16s-16-7.2-16-16S111.2,64,120,64 M120,60
		c-11,0-20,9-20,20s9,20,20,20s20-9,20-20S131,60,120,60L120,60z"/>
</g>
<path id="XMLID_169_" class="st1" d="M121.4,74.5l0.5,1.4c0.2,0.6,0.8,1,1.4,1h1.5c1.5,0,2.1,1.9,0.9,2.7l-1.2,0.9
	c-0.5,0.4-0.7,1.1-0.5,1.7l0.5,1.4c0.4,1.4-1.1,2.5-2.3,1.7l-1.2-0.9c-0.5-0.4-1.2-0.4-1.8,0l-1.2,0.9c-1.2,0.9-2.8-0.3-2.3-1.7
	l0.5-1.4c0.2-0.6,0-1.3-0.5-1.7l-1.2-0.9c-1.2-0.9-0.6-2.7,0.9-2.7h1.5c0.6,0,1.2-0.4,1.4-1l0.5-1.4C119,73.1,121,73.1,121.4,74.5z"
	/>
<polygon id="XMLID_170_" class="st1" points="127,111 120,105 113,111 113,97 127,97 "/>
</svg>
