<?xml version="1.0" encoding="utf-8"?>
<!-- Generator: Adobe Illustrator 19.0.0, SVG Export Plug-In . SVG Version: 6.00 Build 0)  -->
<svg version="1.1" id="Layer_4_copy" xmlns="http://www.w3.org/2000/svg" xmlns:xlink="http://www.w3.org/1999/xlink" x="0px"
	 y="0px" viewBox="0 0 210 138" style="enable-background:new 0 0 210 138;" xml:space="preserve">
<style type="text/css">
	.st0{fill:#FFFFFF;}
	.st1{fill:#E31E24;}
	.st2{fill:none;stroke:#E31E24;stroke-width:4;stroke-miterlimit:10;}
</style>
<g id="XMLID_77_">
	<path id="XMLID_29_" class="st0" d="M116.8,96H59c-5.5,0-10-4.5-10-10V38c0-5.5,4.5-10,10-10h90c5.5,0,10,4.5,10,10v48
		c0,5.5-4.5,10-10,10h-7v25.2L116.8,96z"/>
	<path id="XMLID_26_" class="st1" d="M149,30c4.4,0,8,3.6,8,8v48c0,4.4-3.6,8-8,8h-5h-4v4v18.3l-21.2-21.2l-1.2-1.2H116H59
		c-4.4,0-8-3.6-8-8V38c0-4.4,3.6-8,8-8H149 M149,26H59c-6.6,0-12,5.4-12,12v48c0,6.6,5.4,12,12,12h57l28,28V98h5c6.6,0,12-5.4,12-12
		V38C161,31.4,155.6,26,149,26L149,26z"/>
</g>
<line id="XMLID_34_" class="st2" x1="67" y1="48" x2="141" y2="48"/>
<line id="XMLID_36_" class="st2" x1="67" y1="62" x2="93" y2="62"/>
<line id="XMLID_39_" class="st2" x1="107" y1="62" x2="141" y2="62"/>
<line id="XMLID_38_" class="st2" x1="67" y1="76" x2="121" y2="76"/>
</svg>
